<?xml version="1.0" encoding="UTF-8"?><!DOCTYPE svg PUBLIC "-//W3C//DTD SVG 1.1//EN" "http://www.w3.org/Graphics/SVG/1.1/DTD/svg11.dtd"><svg xmlns="http://www.w3.org/2000/svg" xmlns:xlink="http://www.w3.org/1999/xlink" version="1.1" id="Layer_1" x="0px" y="0px" width="91px" height="91px" viewBox="0 0 91 91" xml:space="preserve"><path fill="#010101" d="M83.432 52.574c-7.606-.699-13.342-6.99-13.342-14.635 0-3.718 1.406-7.275 3.959-10.017l2.201-2.362-2.94-1.334c-3.515-1.593-7.672-2.435-12.028-2.435-4.815 0-9.621 1.065-12.729 2.748 1.493-3.657 4.63-8.647 10.801-9.616l-.72-4.587c-3.701.582-6.57 2.182-8.787 4.189a16.934 16.934 0 0 0-1.486-4.63C45.476 4.032 39.593.389 33.009.389l-1.372.019-.683.858c-4.116 5.167-4.905 12.302-2.013 18.178.413.837.891 1.623 1.418 2.366-.269-.007-.538-.025-.807-.025-11.931 0-24.722 6.4-24.847 24.36-.176 25.271 14.931 38.357 21.437 42.808 1.676 1.146 3.727 1.727 6.097 1.727 5.438 0 10.954-3.104 11.267-3.285.027-.016.683-.393 1.776-.393.727 0 1.493.172 2.269.504.854.469 5.999 3.174 11.069 3.174h.001c2.37 0 4.419-.58 6.095-1.727 5.261-3.596 17.814-14.082 20.797-33.717l.37-2.436-2.451-.226zM33.108 17.392c-1.939-3.938-1.597-8.662.822-12.329 4.423.314 8.302 2.891 10.264 6.879 1.969 4.008 1.638 8.637-.817 12.332a12.474 12.474 0 0 1-2.903-.568 20.607 20.607 0 0 0-.901-.332c-2.775-1.118-5.094-3.192-6.465-5.982zm28.988 67.727c-.887.607-2.057.916-3.473.916-4.189 0-8.845-2.604-8.889-2.631l-.202-.102c-1.406-.627-2.835-.945-4.249-.945-2.256 0-3.752.803-4.191 1.07-1.327.748-5.381 2.607-8.85 2.607-1.419 0-2.589-.311-3.477-.916-5.889-4.033-19.575-15.9-19.414-38.943.121-17.826 14.169-19.75 20.204-19.75 3.138 0 5.938.51 8.077 1.193.488.204.985.384 1.494.541.739.313 1.348.645 1.798.969l.16.105c.124.075.852.491 1.93.817-3.075 1.847-6.257.9-6.748.733a2.322 2.322 0 0 0-1.547 4.378c1.053.374 2.481.656 4.089.656 3.719 0 8.378-1.526 11.502-6.917 1.967-1.229 6.054-2.47 10.974-2.47 2.569 0 5.038.337 7.286.986a19.247 19.247 0 0 0-3.122 10.519c0 9.211 6.328 16.928 15.078 18.873-3.283 16.376-13.876 25.2-18.43 28.311z"/><metadata><rdf:RDF xmlns:rdf="http://www.w3.org/1999/02/22-rdf-syntax-ns#" xmlns:rdfs="http://www.w3.org/2000/01/rdf-schema#" xmlns:dc="http://purl.org/dc/elements/1.1/"><rdf:Description about="https://iconscout.com/legal#licenses" dc:title="food,applebite" dc:description="food,applebite" dc:publisher="Iconscout" dc:date="2018-04-15" dc:format="image/svg+xml" dc:language="en"><dc:creator><rdf:Bag><rdf:li>BomSymbols .</rdf:li></rdf:Bag></dc:creator></rdf:Description></rdf:RDF></metadata></svg>