<?xml version="1.0" encoding="UTF-8"?><!DOCTYPE svg PUBLIC "-//W3C//DTD SVG 1.1//EN" "http://www.w3.org/Graphics/SVG/1.1/DTD/svg11.dtd"><svg xmlns="http://www.w3.org/2000/svg" xmlns:xlink="http://www.w3.org/1999/xlink" version="1.1" id="Layer_1" x="0px" y="0px" width="91px" height="91px" viewBox="0 0 91 91" xml:space="preserve"><path d="M79.895 15.791c-2.697-3.122-7.807-6.528-17.458-5.108-2.695.425-6.527 1.419-9.792 3.264 0-1.561.285-2.696.568-3.832.427-1.277.852-2.838.283-4.541-.566-2.271-2.979-5.96-11.495-5.251-1.136.142-1.987.994-2.271 1.986-.426 2.555-.852 5.251-1.136 8.09-.141 1.419-.425 2.697-.567 4.116-3.831-2.412-8.089-4.541-13.482-4.825-6.812-.426-12.772 2.554-15.327 7.38-2.271 4.257-2.129 9.083-2.129 13.056.142 6.103 0 11.921 0 17.456 0 5.677-.142 11.496 0 17.598.142 6.245 3.69 15.61 8.941 19.727 3.122 2.555 7.522 4.399 12.205 4.399 3.406 0 7.096-1.135 10.644-3.689 1.277.994 2.696 1.987 4.258 2.697 3.689 1.844 8.089 2.555 12.063 2.555 3.831 0 7.236-.711 9.508-1.845 8.516-4.258 13.624-11.78 13.767-19.869.283-11.496 1.845-22.565 4.968-32.925 1.418-4.828 1.701-14.335-3.548-20.439zM44.414 5.147c2.129 0 4.115.568 4.541 1.845.143.425 0 .993-.283 1.844-.567 1.846-1.278 4.258-.427 8.232a20.672 20.672 0 0 0-2.271 2.696c-1.135-.709-2.128-1.419-3.264-2.271.283-1.987.568-4.258.851-6.387.285-1.984.569-4.113.853-5.959zM78.758 34.95c-3.121 10.787-4.825 22.282-5.108 34.203-.142 6.244-4.259 12.205-11.069 15.611-2.697 1.419-10.787 2.271-17.173-.71-4.115-1.987-6.67-5.11-7.522-9.509-.284-1.277-1.561-2.129-2.838-1.845-1.277.283-2.129 1.561-1.845 2.839.568 2.411 1.419 4.54 2.696 6.527-7.663 5.535-15.043.284-16.604-.852-3.975-3.121-7.096-11.07-7.096-16.037-.143-6.102 0-11.921 0-17.456 0-5.677.142-11.495 0-17.598 0-3.548-.143-7.521 1.561-10.644 1.703-3.122 5.96-5.109 10.786-4.825 5.535.284 9.651 2.98 13.909 5.818.141.143.425.284.567.426s.284.142.425.284c4.825 3.406 10.218 7.096 18.023 7.948 1.278.141 2.556-.852 2.697-2.129.142-1.278-.851-2.555-2.129-2.697-2.838-.283-5.394-1.135-7.664-2.128 2.129-3.122 8.232-5.96 12.915-6.67 5.961-.852 10.36.425 13.198 3.548 3.69 4.543 3.408 12.207 2.271 15.896z"/><path d="M25.964 26.152c-1.277-.284-2.555.567-2.838 1.845-2.554 13.057-2.412 25.687-1.703 37.609 0 1.276 1.135 2.271 2.412 2.271h.142c1.277-.142 2.413-1.278 2.271-2.555-.567-11.496-.851-23.843 1.703-36.331.142-1.278-.709-2.556-1.987-2.839z"/><metadata><rdf:RDF xmlns:rdf="http://www.w3.org/1999/02/22-rdf-syntax-ns#" xmlns:rdfs="http://www.w3.org/2000/01/rdf-schema#" xmlns:dc="http://purl.org/dc/elements/1.1/"><rdf:Description about="https://iconscout.com/legal#licenses" dc:title="food,bell,pepper" dc:description="food,bell,pepper" dc:publisher="Iconscout" dc:date="2018-04-15" dc:format="image/svg+xml" dc:language="en"><dc:creator><rdf:Bag><rdf:li>BomSymbols .</rdf:li></rdf:Bag></dc:creator></rdf:Description></rdf:RDF></metadata></svg>