<?xml version="1.0" encoding="UTF-8"?><!DOCTYPE svg PUBLIC "-//W3C//DTD SVG 1.1//EN" "http://www.w3.org/Graphics/SVG/1.1/DTD/svg11.dtd"><svg xmlns="http://www.w3.org/2000/svg" xmlns:xlink="http://www.w3.org/1999/xlink" version="1.1" id="Layer_1" x="0px" y="0px" width="91px" height="91px" viewBox="0 0 91 91" xml:space="preserve"><path d="M64.208 14.667c-8.695 0-16.137 7.427-20.86 16.46a24.244 24.244 0 0 0-9.721-2.048C20.486 29.079.225 39.449.225 53.231c0 13.785 20.262 24.157 33.402 24.157a24.082 24.082 0 0 0 14.949-5.203c4.375 3.253 9.775 5.203 15.632 5.203 14.496 0 26.289-11.796 26.289-26.29-.002-14.332-11.29-36.431-26.289-36.431zM33.627 73.202c-11.271 0-29.215-9.139-29.215-19.971 0-10.831 17.943-19.967 29.215-19.967 2.732 0 5.439.572 7.929 1.647-2.323 5.509-3.638 11.298-3.638 16.185 0 7.103 2.843 13.546 7.437 18.283a19.902 19.902 0 0 1-11.728 3.823zm30.581 0c-12.188 0-22.104-9.915-22.104-22.105 0-12.439 10.116-32.244 22.104-32.244S86.31 38.657 86.31 51.097c0 12.19-9.914 22.105-22.102 22.105z"/><path d="M48.699 54.804c0 8.548 6.957 15.504 15.507 15.504 8.547 0 15.502-6.956 15.502-15.504 0-8.551-6.954-15.503-15.502-15.503-8.55 0-15.507 6.952-15.507 15.503zm26.822 0c0 6.242-5.075 11.317-11.314 11.317-6.241 0-11.319-5.075-11.319-11.317 0-6.241 5.078-11.316 11.319-11.316 6.238-.001 11.314 5.075 11.314 11.316z"/><metadata><rdf:RDF xmlns:rdf="http://www.w3.org/1999/02/22-rdf-syntax-ns#" xmlns:rdfs="http://www.w3.org/2000/01/rdf-schema#" xmlns:dc="http://purl.org/dc/elements/1.1/"><rdf:Description about="https://iconscout.com/legal#licenses" dc:title="food,boiled,eggs" dc:description="food,boiled,eggs" dc:publisher="Iconscout" dc:date="2018-04-15" dc:format="image/svg+xml" dc:language="en"><dc:creator><rdf:Bag><rdf:li>BomSymbols .</rdf:li></rdf:Bag></dc:creator></rdf:Description></rdf:RDF></metadata></svg>