<?xml version="1.0" encoding="UTF-8"?><!DOCTYPE svg PUBLIC "-//W3C//DTD SVG 1.1//EN" "http://www.w3.org/Graphics/SVG/1.1/DTD/svg11.dtd"><svg xmlns="http://www.w3.org/2000/svg" xmlns:xlink="http://www.w3.org/1999/xlink" version="1.1" id="Layer_1" x="0px" y="0px" width="91px" height="91px" viewBox="0 0 91 91" xml:space="preserve"><path d="M77.149 46.887a2.115 2.115 0 0 0-.94-.572c-5.584-3.329-12.497-5.761-20.168-6.936a2.26 2.26 0 0 0-.405-.06 69.544 69.544 0 0 0-10.077-.733c-4.83 0-9.477.493-13.84 1.396-.078.01-.151.013-.229.029-.102.023-.196.057-.295.082C13.436 43.925.608 54.648.608 67.253c0 7.458 4.268 12.184 13.04 14.446 7.117 1.833 16.695 1.979 28.476 1.979H48.99c21.35 0 41.512 0 41.512-16.425-.002-7.959-5.117-15.167-13.353-20.366zm-28.161 32.46h-6.865c-11.471 0-20.771-.134-27.393-1.842-6.862-1.766-9.792-4.834-9.792-10.251 0-7.301 5.402-13.857 13.927-18.321-2.756 4.16-4.257 9.378-4.033 15.036a2.164 2.164 0 0 0 2.162 2.081c.027 0 .057 0 .084-.003a2.165 2.165 0 0 0 2.08-2.249c-.378-9.595 5.099-17.643 13.317-19.569.023-.007.042-.017.064-.022a64.895 64.895 0 0 1 10.983-1.259c-6.327 4.219-10.473 11.714-10.473 20.457a2.167 2.167 0 0 0 4.332 0c0-11.049 7.912-19.703 18.032-19.76 4.971.747 9.577 2.045 13.636 3.778-7.577 2.847-13.026 10.474-13.026 19.438a2.165 2.165 0 0 0 4.331 0c0-8.815 6.563-16.003 14.729-16.288 6.863 4.359 11.083 10.226 11.083 16.682.003 11.278-14.045 12.092-37.178 12.092z"/><path d="M29.823 36.084c.423.423.979.634 1.533.634.553 0 1.107-.211 1.53-.634 4.047-4.041 4.044-10.632-.005-14.695a.022.022 0 0 1-.012-.011c-.005-.002-.008-.007-.011-.01-2.359-2.359-2.357-6.2.003-8.565a2.166 2.166 0 1 0-3.066-3.06c-4.046 4.054-4.046 10.643.002 14.69.002 0 .005.002.005.005l.008.005s0 .002.003.002c2.364 2.373 2.369 6.218.012 8.574a2.17 2.17 0 0 0-.002 3.065z"/><path d="M44.042 36.084c.423.423.975.634 1.529.634.556 0 1.109-.211 1.53-.634 3.996-3.991 4.036-10.458.145-14.528a2.27 2.27 0 0 0-.146-.162c-.003-.002-.003-.005-.005-.005-.005-.008-.01-.013-.018-.021a6.007 6.007 0 0 1-1.774-4.279c0-1.615.63-3.138 1.777-4.285a2.166 2.166 0 1 0-3.064-3.063 10.325 10.325 0 0 0-3.046 7.349c0 2.751 1.063 5.339 2.997 7.296.01.01.023.018.032.027a.222.222 0 0 1 .029.037c2.367 2.368 2.372 6.215.013 8.572a2.163 2.163 0 0 0 .001 3.062z"/><path d="M58.253 36.084c.423.423.979.634 1.533.634.554 0 1.107-.211 1.53-.634 4.018-4.01 4.041-10.536.076-14.603a.047.047 0 0 0-.01-.016c-.028-.034-.06-.067-.088-.097a6.014 6.014 0 0 1-1.777-4.279 6.03 6.03 0 0 1 1.777-4.285 2.164 2.164 0 0 0 0-3.063 2.168 2.168 0 0 0-3.063 0 10.336 10.336 0 0 0-3.045 7.349c0 2.771 1.079 5.375 2.965 7.26.019.021.04.034.057.055.017.015.023.029.038.045 2.363 2.368 2.368 6.215.01 8.572a2.167 2.167 0 0 0-.003 3.062z"/><metadata><rdf:RDF xmlns:rdf="http://www.w3.org/1999/02/22-rdf-syntax-ns#" xmlns:rdfs="http://www.w3.org/2000/01/rdf-schema#" xmlns:dc="http://purl.org/dc/elements/1.1/"><rdf:Description about="https://iconscout.com/legal#licenses" dc:title="food,bread,loaf" dc:description="food,bread,loaf" dc:publisher="Iconscout" dc:date="2018-04-15" dc:format="image/svg+xml" dc:language="en"><dc:creator><rdf:Bag><rdf:li>BomSymbols .</rdf:li></rdf:Bag></dc:creator></rdf:Description></rdf:RDF></metadata></svg>