<?xml version="1.0" encoding="UTF-8"?><!DOCTYPE svg PUBLIC "-//W3C//DTD SVG 1.1//EN" "http://www.w3.org/Graphics/SVG/1.1/DTD/svg11.dtd"><svg xmlns="http://www.w3.org/2000/svg" xmlns:xlink="http://www.w3.org/1999/xlink" version="1.1" id="Layer_1" x="0px" y="0px" width="91px" height="91px" viewBox="0 0 91 91" xml:space="preserve"><path d="M89.726 63.697L83.89 60.2v-2.872h3.072a2.186 2.186 0 0 0 2.1-2.762c-2.486-8.992-9.469-16.569-18.836-21.419a2.172 2.172 0 0 0-.806-.503 2.315 2.315 0 0 0-.355-.085c-6.008-2.905-12.929-4.702-20.234-5.076-.003 0-.005-.002-.01-.005a2.19 2.19 0 0 0-.933-.042 55.015 55.015 0 0 0-7.788.283v-8.013a2.29 2.29 0 0 0 .431-.192l11.957-6.991-16.747-6.379v22.224a52.189 52.189 0 0 0-8.904 2.509 2.13 2.13 0 0 0-.549.208c-11.628 4.581-20.505 13.09-23.38 23.48a2.178 2.178 0 0 0 .368 1.901 2.168 2.168 0 0 0 1.733.861h3.01v2.396l-6.62 3.973a2.182 2.182 0 0 0-.749 2.992 2.183 2.183 0 0 0 2.99.747l4.379-2.629v5.518c0 .113.018.224.035.33H7.44a2.182 2.182 0 0 0-2.178 2.182v4.133c0 4.596 3.738 8.337 8.336 8.337h64.771c4.601 0 8.342-3.741 8.342-8.337v-4.133a2.183 2.183 0 0 0-2.182-2.182h-.674c.02-.106.033-.217.033-.33V65.28l3.594 2.155c.351.21.736.309 1.117.309.74 0 1.466-.376 1.872-1.059a2.177 2.177 0 0 0-.745-2.988zM40.099 12.468l2.326.886-2.326 1.361v-2.247zM82.352 76.97a3.985 3.985 0 0 1-3.982 3.978H13.597A3.98 3.98 0 0 1 9.62 76.97v-1.953h72.732v1.953zm-63.737-9.533c.01.007.023.01.035.018.039.023.084.04.125.062a2.302 2.302 0 0 0 .497.172c.126.027.248.043.373.048.029 0 .061.01.09.01.015 0 .029-.005.044-.005a2.17 2.17 0 0 0 .507-.067c.027-.008.053-.021.078-.026a2.15 2.15 0 0 0 .424-.182c.023-.013.044-.018.068-.028l7.49-4.49 7.481 4.49c.03.018.061.025.09.041.073.038.145.073.221.103.063.025.123.047.186.069.07.02.14.036.211.049.069.016.139.026.209.032a2.755 2.755 0 0 0 .418 0c.068-.007.133-.019.197-.029.076-.016.148-.032.221-.055.06-.02.117-.038.177-.064a1.82 1.82 0 0 0 .229-.107c.027-.015.058-.022.084-.038l7.49-4.49 7.49 4.49c.01.007.022.007.032.015.116.069.24.111.368.157.056.019.106.051.165.066.148.039.302.054.457.061.032.003.064.013.095.013h.005c.029 0 .063-.01.093-.013.155-.007.311-.021.461-.061.054-.016.106-.045.159-.066.128-.046.256-.088.373-.16.011-.005.021-.005.03-.012l7.488-4.49 7.483 4.49c.03.02.063.025.093.043.073.038.146.073.221.103.06.023.117.045.178.064.076.022.149.039.226.055.066.013.128.023.189.029a2.674 2.674 0 0 0 .424 0c.07-.007.141-.019.209-.032.073-.013.141-.029.212-.049l.183-.067c.079-.031.153-.066.225-.107.027-.015.058-.022.086-.038l7.022-4.216v7.104c0 .113.02.224.036.33h-67.22c.018-.106.032-.217.032-.33v-6.628l6.24 3.736zm-6.239-8.824v-1.285h67.152v.956a2.19 2.19 0 0 0-.659.252l-7.485 4.489-7.485-4.492a2.177 2.177 0 0 0-2.241 0l-7.487 4.492-7.488-4.492a2.179 2.179 0 0 0-2.242 0l-7.49 4.492-7.482-4.489a2.176 2.176 0 0 0-2.244-.003l-7.493 4.492-7.356-4.412zM8.054 52.97c2.724-6.63 8.381-12.193 15.691-15.965l-2.557 7.914a2.18 2.18 0 0 0 4.146 1.343l3.739-11.574a48.5 48.5 0 0 1 8.567-2.221c.092.011.184.027.278.027.339 0 .654-.082.936-.221a51.758 51.758 0 0 1 6.534-.494l-3.607 13.236a2.182 2.182 0 0 0 1.529 2.677 2.183 2.183 0 0 0 2.677-1.53l3.878-14.24c5.788.436 11.257 1.839 16.112 4.004l-3.085 8.951a2.18 2.18 0 0 0 1.354 2.772 2.17 2.17 0 0 0 2.771-1.352l2.891-8.39c6.493 3.735 11.491 8.949 14.003 15.062l-75.857.001z"/><metadata><rdf:RDF xmlns:rdf="http://www.w3.org/1999/02/22-rdf-syntax-ns#" xmlns:rdfs="http://www.w3.org/2000/01/rdf-schema#" xmlns:dc="http://purl.org/dc/elements/1.1/"><rdf:Description about="https://iconscout.com/legal#licenses" dc:title="food,burger" dc:description="food,burger" dc:publisher="Iconscout" dc:date="2018-04-15" dc:format="image/svg+xml" dc:language="en"><dc:creator><rdf:Bag><rdf:li>BomSymbols .</rdf:li></rdf:Bag></dc:creator></rdf:Description></rdf:RDF></metadata></svg>