<?xml version="1.0" encoding="UTF-8"?><!DOCTYPE svg PUBLIC "-//W3C//DTD SVG 1.1//EN" "http://www.w3.org/Graphics/SVG/1.1/DTD/svg11.dtd"><svg xmlns="http://www.w3.org/2000/svg" xmlns:xlink="http://www.w3.org/1999/xlink" version="1.1" id="Layer_1" x="0px" y="0px" width="91px" height="91px" viewBox="0 0 91 91" xml:space="preserve"><path d="M8.708 36.727h73.818c.685 0 1.328-.319 1.742-.865a2.19 2.19 0 0 0 .37-1.909c-2.252-8.143-8.565-15.002-17.034-19.402a2.208 2.208 0 0 0-.807-.5 2.198 2.198 0 0 0-.435-.102c-5.388-2.587-11.565-4.197-18.1-4.542-.013-.004-.023-.011-.036-.015a2.167 2.167 0 0 0-1.03-.023c-.526-.017-1.048-.054-1.578-.054-6.11 0-11.967 1.127-17.235 3.123-.258.053-.503.15-.725.29C17.19 16.897 9.19 24.566 6.593 33.952a2.192 2.192 0 0 0 2.115 2.775zm16.498-18.088l-2.138 6.612a2.19 2.19 0 1 0 4.166 1.347l3.335-10.32c4.368-1.562 9.185-2.464 14.21-2.556L41.615 25.35a2.19 2.19 0 0 0 4.226 1.151l3.441-12.643c5.041.4 9.816 1.616 14.064 3.483l-2.71 7.87a2.188 2.188 0 0 0 2.072 2.903c.907 0 1.755-.571 2.069-1.478l2.51-7.292c5.577 3.264 9.902 7.75 12.152 13H11.793c2.418-5.637 7.221-10.399 13.413-13.705z"/><path d="M84.717 74.679v-8.863a2.19 2.19 0 0 0-2.188-2.188h-7.96c-4.031 0-5.76 3.068-5.944 5.25l-.035 1.124c0 .053 0 .106.002.156 0 .014-.005 1.262-.862 2.156-.72.75-1.917 1.13-3.56 1.13-3.946 0-4.433-2.674-4.486-3.376v-.57a2.66 2.66 0 0 0-.012-.235c-.199-1.855-1.851-5.373-6.677-5.373-4.187 0-6.041 3.221-6.265 5.383-.01.075-.013.148-.013.226v1.019c-.126.694-.606 1.743-2.347 1.743-1.909 0-2.373-.956-2.422-1.669v-1.37c0-2.341-1.125-4.166-3.163-5.14-1.373-.657-2.771-.71-3.215-.71H8.708a2.19 2.19 0 0 0-2.188 2.189v9.122c0 4.264 3.469 7.734 7.736 7.734h62.725c4.264-.004 7.736-3.475 7.736-7.738zm-73.819 0v-6.931h24.707c1.304 0 1.962.492 1.962 1.471v1.418c.053 2.413 1.909 6 6.802 6 4.833 0 6.506-3.743 6.713-5.724a1.95 1.95 0 0 0 .014-.231v-1.017c.124-.659.563-1.396 1.898-1.396 1.743 0 2.201.873 2.313 1.396v.492c.086 2.134 1.853 7.666 8.862 7.666 2.881 0 5.142-.833 6.72-2.479 1.999-2.083 2.088-4.677 2.08-5.272l.024-.941c.031-.336.242-1.124 1.575-1.124h5.771v6.672a3.359 3.359 0 0 1-3.357 3.355H14.255a3.36 3.36 0 0 1-3.357-3.355z"/><path d="M82.525 56.147H8.708a2.19 2.19 0 0 0 0 4.38h73.818a2.19 2.19 0 0 0-.001-4.38z"/><path d="M7.462 53.076h76.306c3.907 0 7.085-3.178 7.085-7.079 0-3.906-3.178-7.083-7.085-7.083H7.462c-3.904 0-7.079 3.175-7.079 7.083 0 3.901 3.175 7.079 7.079 7.079zm0-9.784h76.306a2.709 2.709 0 0 1 2.706 2.705 2.705 2.705 0 0 1-2.706 2.702H7.462a2.704 2.704 0 0 1 0-5.407z"/><metadata><rdf:RDF xmlns:rdf="http://www.w3.org/1999/02/22-rdf-syntax-ns#" xmlns:rdfs="http://www.w3.org/2000/01/rdf-schema#" xmlns:dc="http://purl.org/dc/elements/1.1/"><rdf:Description about="https://iconscout.com/legal#licenses" dc:title="food,cheeseburger" dc:description="food,cheeseburger" dc:publisher="Iconscout" dc:date="2018-04-15" dc:format="image/svg+xml" dc:language="en"><dc:creator><rdf:Bag><rdf:li>BomSymbols .</rdf:li></rdf:Bag></dc:creator></rdf:Description></rdf:RDF></metadata></svg>