<?xml version="1.0" encoding="UTF-8"?><!DOCTYPE svg PUBLIC "-//W3C//DTD SVG 1.1//EN" "http://www.w3.org/Graphics/SVG/1.1/DTD/svg11.dtd"><svg xmlns="http://www.w3.org/2000/svg" xmlns:xlink="http://www.w3.org/1999/xlink" version="1.1" id="Layer_1" x="0px" y="0px" width="91px" height="91px" viewBox="0 0 91 91" xml:space="preserve"><g fill="#010101"><path d="M86.922 22.844l.495-.978c2.083-4.089 4.938-9.689.65-14.169C83.13 2.541 76.58 4.832 73.43 5.935l-.159.055c-.834.292-1.782.622-2.647 1.275-.816.615-.849.641-1.871-.186-5.74-4.637-12.941-4.412-17.919.562-5.14 5.144-5.218 12.927-.179 18.108 3.772 3.876 2.846 10.906 2.742 11.605-1.642 6.696-9.127 11.301-13.605 13.513 1.519-16.94-7.924-22.923-8.295-23.147-.943-.623-1.103-1.202-1.139-1.58-.127-1.3.976-3.269 2.876-5.142 2.509-2.467 3.732-4.929 3.634-7.312-.082-2.013-1.075-3.826-2.95-5.386-1.596-1.328-3.405-1.926-5.232-1.738-2.336.246-4.591 1.732-6.707 4.417-.351.444-.605.697-.774.839-.159-.17-.402-.477-.734-1.017-2.527-4.092-5.247-6.487-8.081-7.12-1.789-.398-3.579-.057-5.176.986C5.584 5.731 4.563 7.32 4.262 9.26c-.466 3.001.841 6.653 3.587 10.02.427.523.664.891.792 1.131-.281.118-.771.28-1.597.459-2.496.537-4.4 1.75-5.507 3.505C.445 26.104.171 28.291.745 30.702c.479 2.006 1.718 3.646 3.491 4.621 2.06 1.13 4.698 1.276 7.242.399 5.518-1.904 9.487-2.002 12.135-.296 2.668 1.718 4.307 5.615 4.872 11.587.063.644.08 1.293.092 1.799l.018.516c.027 6.343-1.984 11.679-5.816 15.43-3.828 3.747-9.194 5.642-15.544 5.48l-.058-.001a2.186 2.186 0 0 0-.055 4.371c7.542.191 14.024-2.134 18.716-6.727 4.696-4.597 7.159-11.018 7.128-18.662l-.018-.527a30.022 30.022 0 0 0-.111-2.096c-.708-7.475-2.951-12.332-6.856-14.849-3.848-2.476-9.06-2.53-15.931-.161-1.376.476-2.729.441-3.711-.097-.695-.382-1.148-.989-1.34-1.799-.299-1.258-.219-2.262.236-2.983.589-.934 1.809-1.366 2.729-1.564 2.074-.447 4.29-1.179 5.004-3.21.724-2.066-.641-4.08-1.729-5.416-1.905-2.337-2.922-4.862-2.653-6.587.109-.711.434-1.221 1.022-1.604.623-.408 1.187-.528 1.833-.38 1.574.35 3.509 2.227 5.313 5.148.888 1.441 2.168 3.11 4.195 3.228 2.026.119 3.527-1.449 4.468-2.64 1.318-1.676 2.645-2.661 3.729-2.775.647-.061 1.291.177 1.979.75 1.333 1.111 1.367 1.937 1.378 2.208.044 1.081-.762 2.469-2.333 4.015-1.707 1.679-4.516 5.041-4.161 8.68.133 1.353.774 3.284 3.131 4.838.358.229 8.768 5.791 5.823 22.65a2.186 2.186 0 0 0 2.89 2.436c.691-.245 16.961-6.184 19.818-18.198.01-.044.021-.088.028-.134.066-.396 1.61-9.78-3.91-15.452-3.785-3.896-2.754-9.074.137-11.968 3.364-3.363 8.107-3.461 12.08-.252 2.545 2.059 4.782 2.144 7.251.274.318-.239.896-.441 1.459-.637l.161-.056c4.348-1.521 7.542-1.939 10.031.658 1.994 2.083.745 4.979-1.386 9.161l-.512 1.013c-1.773 3.561-2.264 6.538.775 10.385 2.395 3.042 3.738 7.27 1.34 9.857-2.546 2.745-6.939 4.229-10.405 1.745-5.017-3.595-8.94-1.745-12.527.458-4.413 2.716-7.943 6.318-11.359 9.8-1.041 1.059-2.079 2.118-3.143 3.153-8.021 7.79-16.316 15.847-26.191 21.715-3.009 1.792-6.134 3.191-9.286 4.166a2.185 2.185 0 1 0 1.29 4.176c3.482-1.075 6.925-2.617 10.229-4.583 10.318-6.132 18.803-14.372 27.007-22.342 1.088-1.06 2.152-2.144 3.218-3.228 3.379-3.447 6.572-6.7 10.528-9.136 3.135-1.928 4.915-2.62 7.691-.63 4.87 3.491 11.665 2.512 16.157-2.326 4.152-4.482 2.433-11.033-1.115-15.537-1.591-2.006-1.645-3.023-.297-5.722z"/><path d="M60.244 38.141a2.184 2.184 0 0 0 3.019-.672 24.86 24.86 0 0 0 1.927-3.657c6.218-2.723 12.636 1.054 14.777 3.822a2.186 2.186 0 0 0 3.459-2.677c-2.687-3.468-8.713-6.983-15.195-6.388 3.189-4.407 7.974-9.269 11.468-10.402a2.184 2.184 0 0 0 1.404-2.753 2.184 2.184 0 0 0-2.754-1.406c-3.829 1.241-8.268 5.289-11.741 9.512-.379-2.759-1.341-5.573-2.898-8.468a2.185 2.185 0 0 0-3.85 2.071c3.49 6.488 3.4 12.208-.284 18a2.186 2.186 0 0 0 .668 3.018z"/><path d="M72.172 70.476c1.728-1.945 2.476-3.656 2.354-5.375-.104-1.448-.848-2.756-2.203-3.88-1.797-1.492-3.461-1.617-4.536-1.467-1.816.261-3.474 1.49-4.93 3.656a2.184 2.184 0 1 0 3.626 2.44c1.031-1.533 1.736-1.742 1.927-1.77.366-.045.809.244 1.121.502.184.154.613.54.636.832.007.117-.021.781-1.343 2.245-.459.507-1.855 2.051-1.409 3.938.451 1.9 2.398 2.653 3.135 2.939 1.932.745 3.189 1.969 3.579 2.851.134.301.122.465.126.465-.281.383-2.404.838-4.736-.437-.752-.411-2.751-1.5-4.533-.477-1.787 1.028-1.846 3.268-1.876 4.342-.021.725-.194 1.272-.49 1.545-.356.33-1.005.371-1.474.348-.372-.018-.656-.156-.874-.419-.357-.435-.501-1.163-.382-1.947.77-5.135.022-8.821-2.278-11.263-2.334-2.477-6.064-3.45-11.404-2.968a2.185 2.185 0 0 0-1.982 2.374 2.185 2.185 0 0 0 2.373 1.981c3.86-.347 6.498.196 7.833 1.611 1.304 1.383 1.686 3.945 1.136 7.619-.299 2.015.184 3.97 1.326 5.364.999 1.217 2.434 1.933 4.038 2.014.146.007.289.01.428.01 2.13 0 3.469-.812 4.231-1.515.824-.763 1.821-2.185 1.892-4.633.002-.041.002-.081.005-.118 2.571 1.385 5.582 1.728 7.87.897 1.428-.519 2.479-1.485 2.964-2.723.46-1.19.396-2.52-.189-3.841-.948-2.132-3.173-4.052-5.961-5.14z"/></g><metadata><rdf:RDF xmlns:rdf="http://www.w3.org/1999/02/22-rdf-syntax-ns#" xmlns:rdfs="http://www.w3.org/2000/01/rdf-schema#" xmlns:dc="http://purl.org/dc/elements/1.1/"><rdf:Description about="https://iconscout.com/legal#licenses" dc:title="food,coriander" dc:description="food,coriander" dc:publisher="Iconscout" dc:date="2018-04-15" dc:format="image/svg+xml" dc:language="en"><dc:creator><rdf:Bag><rdf:li>BomSymbols .</rdf:li></rdf:Bag></dc:creator></rdf:Description></rdf:RDF></metadata></svg>