<?xml version="1.0" encoding="UTF-8"?><!DOCTYPE svg PUBLIC "-//W3C//DTD SVG 1.1//EN" "http://www.w3.org/Graphics/SVG/1.1/DTD/svg11.dtd"><svg xmlns="http://www.w3.org/2000/svg" xmlns:xlink="http://www.w3.org/1999/xlink" version="1.1" id="Layer_1" x="0px" y="0px" width="91px" height="91px" viewBox="0 0 91 91" xml:space="preserve"><path d="M86.855 2.658c-.312-.933-1.088-1.555-1.865-1.71-9.485-2.177-30.476 2.955-45.87 15.394h-.156c-14.15-4.198-33.896 7.929-35.918 12.75a2.612 2.612 0 0 0 .311 2.799c.622.777 1.711 1.088 2.644.933 4.509-.933 12.128-1.555 15.238 4.198-5.442 8.552-9.641 18.659-12.75 33.119v.623c-.932 2.486-1.555 4.976-2.021 7.462-.312 1.089-.466 2.645.778 4.665 2.332 3.732 9.173 7.93 11.817 7.93 2.332 0 4.042-2.332 5.752-4.665.623-.776 1.4-2.021 1.866-2.486 12.439-1.556 19.748-9.641 27.522-18.193l1.089-1.088c.932-1.088.932-2.8-.156-3.732-1.089-.933-2.798-.933-3.73.156l-1.089 1.088c-7.774 8.553-13.839 15.238-24.568 16.482-2.177.311-3.576 2.177-5.287 4.509-.466.623-1.244 1.71-1.71 2.332-2.021-.776-6.686-4.042-7.153-5.597 0-.156 0-.312.156-.312 1.555-9.64 8.552-24.101 23.013-32.963 6.841-4.199 16.948-3.422 25.033-2.956 5.754.467 10.264.778 13.218-.466 3.266 2.644 5.13 6.064 5.753 10.573 1.399 9.329-3.109 20.837-6.686 27.833-2.179-12.284-6.376-33.274-29.388-34.984-1.399-.155-2.799.932-2.799 2.486-.155 1.4.933 2.8 2.488 2.8 19.747 1.399 22.857 20.369 24.877 31.564.468 2.332.777 4.354 1.245 5.753.31.933 1.088 1.711 2.021 1.865h.621c.778 0 1.556-.31 2.022-.933 2.954-3.575 13.371-22.079 11.194-37.317-.776-5.753-3.265-10.418-7.464-13.683 5.91-11.039 12.441-29.076 9.952-36.229zm-73.39 24.101c5.442-3.265 13.528-6.686 20.835-6.063l-.622.622c-3.421 3.577-6.375 6.997-9.174 10.729-2.487-3.111-6.219-4.977-11.039-5.288zm57.843 11.04c-1.711.777-6.843.466-11.041.155-8.861-.622-19.902-1.399-28.299 3.731-4.665 2.955-9.018 6.686-12.75 10.884 2.021-5.287 4.354-9.641 6.841-13.372.311-.311.622-.778.777-1.244 3.266-4.976 6.997-9.019 10.573-12.906C50.782 10.899 72.551 4.991 82.035 5.923c.467 5.909-4.509 20.836-10.727 31.876z"/><path d="M42.23 56.924c-4.198 4.821-14.46 9.329-18.192 9.796-1.399.156-2.487 1.555-2.333 2.955.156 1.399 1.244 2.332 2.644 2.332h.311c5.287-.622 16.637-5.754 21.613-11.507.933-1.087.776-2.798-.312-3.73-1.087-1.089-2.798-.935-3.731.154z"/><path d="M60.889 13.387l-.312.156c-1.398.622-1.865 2.177-1.243 3.577.466.932 1.4 1.555 2.333 1.555.312 0 .777 0 1.088-.312l.312-.156c1.398-.622 1.865-2.177 1.244-3.576a2.488 2.488 0 0 0-3.422-1.244z"/><path d="M53.426 23.649c1.398-.933 1.71-2.643.777-3.888-.777-1.243-2.488-1.555-3.732-.621l-.312.155c-1.242.777-1.554 2.488-.621 3.731.467.778 1.399 1.089 2.177 1.089s1.245-.154 1.711-.466z"/><path d="M71.773 9.655c-1.556.312-2.333 1.71-2.021 3.11.312 1.244 1.398 2.022 2.644 2.022h.622c1.399-.312 2.332-1.711 2.021-3.11-.31-1.4-1.711-2.332-3.266-2.022z"/><path d="M67.886 19.606c-1.243.777-1.555 2.488-.622 3.732.468.778 1.4 1.088 2.177 1.088.466 0 1.089-.156 1.556-.466h.154c1.245-.778 1.4-2.488.623-3.577-.933-1.242-2.644-1.554-3.888-.777z"/><path d="M60.423 24.894c-1.399.933-1.711 2.643-.934 3.888.468.777 1.399 1.087 2.178 1.087.466 0 1.088-.155 1.554-.466l.155-.156c1.246-.777 1.556-2.488.623-3.731-.778-1.245-2.487-1.555-3.576-.622z"/><path d="M52.492 30.336c-1.244.777-1.555 2.487-.621 3.731.467.777 1.398 1.088 2.176 1.088a3 3 0 0 0 1.556-.466l.155-.155c1.244-.778 1.398-2.488.622-3.576-.933-1.245-2.643-1.555-3.888-.622z"/><path d="M43.785 24.894l-.312.155c-1.243.778-1.555 2.488-.621 3.733.466.777 1.398 1.087 2.177 1.087a2.99 2.99 0 0 0 1.554-.466l.156-.156c1.245-.777 1.556-2.488.622-3.731-.622-1.245-2.332-1.555-3.576-.622z"/><metadata><rdf:RDF xmlns:rdf="http://www.w3.org/1999/02/22-rdf-syntax-ns#" xmlns:rdfs="http://www.w3.org/2000/01/rdf-schema#" xmlns:dc="http://purl.org/dc/elements/1.1/"><rdf:Description about="https://iconscout.com/legal#licenses" dc:title="food,corn" dc:description="food,corn" dc:publisher="Iconscout" dc:date="2018-04-15" dc:format="image/svg+xml" dc:language="en"><dc:creator><rdf:Bag><rdf:li>BomSymbols .</rdf:li></rdf:Bag></dc:creator></rdf:Description></rdf:RDF></metadata></svg>