<?xml version="1.0" encoding="UTF-8"?><!DOCTYPE svg PUBLIC "-//W3C//DTD SVG 1.1//EN" "http://www.w3.org/Graphics/SVG/1.1/DTD/svg11.dtd"><svg xmlns="http://www.w3.org/2000/svg" xmlns:xlink="http://www.w3.org/1999/xlink" version="1.1" id="Layer_1" x="0px" y="0px" width="91px" height="91px" viewBox="0 0 91 91" xml:space="preserve"><path d="M83.482 43.386c-.027-.371-.05-.742-.109-1.108-.653-4.056-3.273-7.742-8.008-11.269l-1.097-.823c-3.063-2.316-5.296-3.989-9.292-4.279-4.849-4.484-12.085-6.296-18.671-6.296-6.571 0-13.78 1.802-18.628 6.254-4.813-.084-7.729 2.071-11.852 5.145-4.519 3.363-7.091 6.878-7.888 10.717C3.06 46.851.702 56.215.541 63.441c-.088 3.982.49 6.652 1.717 7.936.997 1.043 2.308 1.461 3.915 1.461 2.511 0 5.749-1.018 9.644-2.242 4.221-1.326 9.005-2.829 13.678-3.267.267-.024.514-.104.742-.213 4.237 1.19 8.135 1.692 10.614 1.692.621 0 1.192-.029 1.706-.084.064-.007.112-.033.171-.047 1.347.603 2.566.94 3.576.94.908 0 2.027-.319 3.27-.889 2.052-.069 6.273-.547 11.025-1.822.307.229.672.387 1.082.423 4.674.439 9.456 1.94 13.679 3.267 3.895 1.226 7.13 2.243 9.64 2.243 1.607 0 2.919-.415 3.917-1.46 1.243-1.299 1.832-3.885 1.749-7.684-.147-6.587-2.435-15.251-7.184-20.309zm-68.956 23.1c-3.28 1.031-8.239 2.584-9.108 1.969-1.26-1.878-.787-12.593 2.925-19.848.746 2.414 2.089 4.936 4.079 7.61 2.573 3.454 6.213 6.051 10.097 7.971-2.793.673-5.491 1.512-7.993 2.298zm1.351-12.843c-3.059-4.11-4.305-7.603-3.812-10.677.468-2.897 2.54-5.677 6.419-8.565 2.103-1.569 3.625-2.703 5.12-3.403-.859 2.025-1.356 4.292-1.527 6.759A24.738 24.738 0 0 0 22 39.588c0 .535.031 1.075.081 1.613.007.089.021.179.029.268.867 8.291 7.231 16.999 13.587 22.496-6.357-1.131-15.249-4.186-19.82-10.322zm31.981 11.046a2.057 2.057 0 0 0-.413.325c-.458.188-.85.294-1.14.294-.544 0-1.238-.206-2.035-.572a2.188 2.188 0 0 0-.487-.404c-5.712-3.323-16.049-13.733-17.339-22.902l-.007-.072a13.19 13.19 0 0 1-.127-1.769c0-11.553 10.327-15.668 19.993-15.668 9.664 0 19.994 4.116 19.994 15.668 0 .327-.019.659-.042.99-.023.265-.055.532-.095.802-.005.04-.007.08-.015.12-1.449 9.556-13.12 20.39-18.287 23.188zm9.4-1.357c5.348-4.86 10.681-11.89 12.601-18.71.022-.086.04-.171.064-.258a18.61 18.61 0 0 0 .398-1.794c.061-.322.106-.644.146-.963.021-.181.044-.358.062-.54.047-.497.078-.989.078-1.48 0-.556-.026-1.096-.062-1.627-.133-2.17-.515-4.188-1.177-6.021.688.464 1.428 1.024 2.301 1.685l1.121.841c3.792 2.824 5.863 5.606 6.331 8.501.496 3.074-.75 6.566-3.812 10.677-3.963 5.321-11.736 8.269-18.051 9.689zm28.551 5.062c-.926.677-5.878-.876-9.156-1.907-2.586-.814-5.378-1.686-8.273-2.367 4.017-1.862 7.793-4.42 10.387-7.901 1.784-2.396 3.043-4.672 3.826-6.855 4.114 7.079 4.272 17.543 3.216 19.03z"/><path d="M38.739 34.164c.66-.979.41-2.309-.563-2.98a2.151 2.151 0 0 0-2.997.553c-.307.45-7.407 11.157 5.949 25.398.423.452.998.681 1.572.681a2.156 2.156 0 0 0 1.571-3.628c-10.858-11.578-5.775-19.656-5.532-20.024z"/><metadata><rdf:RDF xmlns:rdf="http://www.w3.org/1999/02/22-rdf-syntax-ns#" xmlns:rdfs="http://www.w3.org/2000/01/rdf-schema#" xmlns:dc="http://purl.org/dc/elements/1.1/"><rdf:Description about="https://iconscout.com/legal#licenses" dc:title="food,croissant" dc:description="food,croissant" dc:publisher="Iconscout" dc:date="2018-04-15" dc:format="image/svg+xml" dc:language="en"><dc:creator><rdf:Bag><rdf:li>BomSymbols .</rdf:li></rdf:Bag></dc:creator></rdf:Description></rdf:RDF></metadata></svg>