<?xml version="1.0" encoding="UTF-8"?><!DOCTYPE svg PUBLIC "-//W3C//DTD SVG 1.1//EN" "http://www.w3.org/Graphics/SVG/1.1/DTD/svg11.dtd"><svg xmlns="http://www.w3.org/2000/svg" xmlns:xlink="http://www.w3.org/1999/xlink" version="1.1" id="Layer_1" x="0px" y="0px" width="91px" height="91px" viewBox="0 0 91 91" xml:space="preserve"><path d="M90.679 3.328a2.168 2.168 0 0 0-2.314-2.049L26.007 5.063a2.184 2.184 0 0 0-2.049 2.313c.029.502.235.948.542 1.301a2.184 2.184 0 0 0 1.563 3.623l5.944.211c-2.082 3.461-1.661 8.023 1.283 11.031.011.012.026.02.036.032.013.013.021.027.034.042 1.823 1.828 1.838 4.783.05 6.614-.018.018-.04.03-.056.048-3.506 3.509-3.535 9.201-.088 12.743.016.021.036.032.053.047.017.018.027.038.043.056a4.716 4.716 0 0 1 .533 6.022H18.949l.93-1.415 3.637-5.537h2.907a2.186 2.186 0 1 0 0-4.37h-3.261l-8.521-7.491a2.187 2.187 0 0 0-2.705-.143L1.182 37.792a2.18 2.18 0 0 0-.918 1.63 2.179 2.179 0 0 0 .68 1.745l12.008 11.331 9.899 36.495h28.524c8.074 0 9.266-1.413 11.278-7.98l9.04-28.537 11.985-11.309a2.19 2.19 0 0 0-.242-3.375L72.681 30.19a2.182 2.182 0 0 0-2.703.143l-8.521 7.491h-4.396c-1.207 0-2.187.98-2.187 2.184 0 1.207.979 2.186 2.187 2.186h4.042l4.566 6.952H53.146c.957-3.114.211-6.646-2.246-9.111a.095.095 0 0 1-.021-.015c-.006-.005-.006-.008-.008-.013a4.672 4.672 0 0 1-1.368-3.314c0-1.232.478-2.39 1.338-3.276.021-.018.043-.03.064-.05 3.529-3.53 3.529-9.29-.006-12.839l-.04-.031c-.008-.008-.01-.019-.019-.026a4.717 4.717 0 0 1 .043-6.615c.198-.198.345-.424.453-.668l37.081 1.309.08.002c1.17 0 2.139-.93 2.182-2.109a2.185 2.185 0 0 0-2.107-2.262L41.811 8.481l46.817-2.842a2.182 2.182 0 0 0 2.051-2.311zM14.504 47.955L5.883 39.82l7.167-5.065 6.418 5.644-3.742 5.698-1.222 1.858zm50.678-7.582l6.39-5.619 7.165 5.065-8.591 8.11-4.964-7.556zm1.599 13.145l-8.3 26.194c-1.504 4.91-1.504 4.91-7.107 4.91h-25.18l-8.438-31.104h49.025zM43.814 20.681c-.001-.002-.002-.008-.005-.011a2.267 2.267 0 0 0-.14-.153 4.72 4.72 0 0 1 0-6.661c.264-.264.437-.583.538-.919l1.953.07c-1.77 3.417-1.226 7.733 1.638 10.597.003.005.008.008.013.013 1.818 1.831 1.834 4.775.051 6.608-.021.019-.043.032-.063.053a9.012 9.012 0 0 0-2.661 6.417 9.015 9.015 0 0 0 2.666 6.422c.003.002.003.005.006.005a4.722 4.722 0 0 1 .531 6.024h-2.414a9.104 9.104 0 0 0-2.234-9.094c-.009-.008-.015-.021-.026-.03a4.664 4.664 0 0 1-1.379-3.326c0-1.238.48-2.4 1.346-3.287.017-.016.036-.026.051-.042 3.481-3.484 3.519-9.129.129-12.686zm-3.186 9.555c-.017.015-.035.026-.051.042a9.014 9.014 0 0 0-2.659 6.417c0 2.383.913 4.625 2.571 6.329.015.018.034.029.051.045.015.018.027.038.043.056a4.718 4.718 0 0 1 .532 6.022h-2.411a9.097 9.097 0 0 0-2.229-9.083c-.012-.013-.021-.028-.031-.041-1.82-1.817-1.828-4.767-.038-6.61.018-.015.039-.027.055-.045 3.531-3.53 3.529-9.29-.007-12.836-.001-.003-.002-.003-.004-.005a4.72 4.72 0 0 1-.005-6.668c.33-.331.53-.743.603-1.17l2.033.071c-1.915 3.43-1.446 7.844 1.425 10.778.013.015.028.025.043.037l.032.04c1.824 1.83 1.838 4.788.047 6.621z"/><metadata><rdf:RDF xmlns:rdf="http://www.w3.org/1999/02/22-rdf-syntax-ns#" xmlns:rdfs="http://www.w3.org/2000/01/rdf-schema#" xmlns:dc="http://purl.org/dc/elements/1.1/"><rdf:Description about="https://iconscout.com/legal#licenses" dc:title="food,cup,noodles" dc:description="food,cup,noodles" dc:publisher="Iconscout" dc:date="2018-04-15" dc:format="image/svg+xml" dc:language="en"><dc:creator><rdf:Bag><rdf:li>BomSymbols .</rdf:li></rdf:Bag></dc:creator></rdf:Description></rdf:RDF></metadata></svg>