<?xml version="1.0" encoding="UTF-8"?><!DOCTYPE svg PUBLIC "-//W3C//DTD SVG 1.1//EN" "http://www.w3.org/Graphics/SVG/1.1/DTD/svg11.dtd"><svg xmlns="http://www.w3.org/2000/svg" xmlns:xlink="http://www.w3.org/1999/xlink" version="1.1" id="Layer_1" x="0px" y="0px" width="91px" height="91px" viewBox="0 0 91 91" xml:space="preserve"><path d="M45.509 8.753c-21.644 0-39.771 12.523-44.14 29.17-.008.023-.018.041-.026.064-.17.535-.306 1.161-.41 1.839a30.533 30.533 0 0 0-.572 5.852c0 20.361 20.252 36.925 45.148 36.925 24.898 0 45.148-16.563 45.148-36.925-.001-20.361-20.253-36.925-45.148-36.925zm0 69.44c-18.304 0-33.825-9.687-38.944-22.973 2.282 1.153 4.722.795 6.63.512 1.348-.197 2.621-.386 3.652-.109 2.095.555 3.438 3.275 4.737 5.905.51 1.027.991 2.001 1.53 2.881 3.362 5.462 8.944 7.31 14.216 4.722.864-.421 1.654-.864 2.412-1.282 2.791-1.554 4.47-2.494 7.675-1.559 1.541.446 3.001 1.105 4.547 1.805 2.892 1.304 5.878 2.65 9.534 2.65.247 0 .499-.007.752-.02 5.822-.292 8.195-3.476 10.29-6.283 1.104-1.483 2.147-2.885 3.71-4.007.87-.625 2.067-.739 3.453-.869.892-.086 1.884-.189 2.885-.443-6.42 11.235-20.622 19.07-37.079 19.07zM85.63 51.272a2.082 2.082 0 0 0-.245.318c-1.071 1.706-2.246 2.751-3.591 3.182-.726.232-1.592.316-2.507.403-1.768.163-3.769.354-5.61 1.676-2.117 1.523-3.476 3.344-4.671 4.953-1.943 2.603-3.228 4.325-6.977 4.512-2.948.16-5.518-1.012-8.25-2.245-1.618-.731-3.294-1.485-5.129-2.021-4.968-1.442-8.062.278-11.052 1.941-.693.384-1.42.788-2.21 1.181-4.596 2.25-7.484-1.401-8.517-3.076-.435-.706-.871-1.59-1.332-2.521-1.573-3.184-3.532-7.148-7.559-8.213-1.908-.513-3.776-.236-5.429.008-2.416.355-3.734.486-4.891-.787-2.249-2.467-2.838-6.982-2.397-9.959C8.316 25.087 25.2 13.163 45.507 13.163c22.462 0 40.737 14.585 40.737 32.515a26 26 0 0 1-.614 5.594z"/><path d="M45.509 28.557c-8.438 0-14.802 3.761-14.802 8.749 0 2.969 2.262 5.492 5.862 7.062 1.956 1.002 4.681 1.506 7.364 1.646l.048.003c.514.026 1.026.042 1.527.042.505 0 1.016-.018 1.531-.042.015 0 .028-.003.043-.003 2.684-.138 5.411-.643 7.366-1.647 3.599-1.567 5.863-4.09 5.863-7.058 0-4.99-6.364-8.752-14.802-8.752zm0 13.09c-2.63 0-4.859-.445-6.576-1.089 1.204-.505 3.484-1.046 6.576-1.046 3.096 0 5.375.542 6.574 1.044-1.714.646-3.942 1.091-6.574 1.091zm10.319-3.939c-2.169-1.874-6.466-2.606-10.319-2.606-3.852 0-8.152.731-10.321 2.606a1.391 1.391 0 0 1-.071-.403c0-1.768 4.048-4.339 10.392-4.339 6.343 0 10.391 2.57 10.391 4.339a1.4 1.4 0 0 1-.072.403z"/><path d="M23.138 24.075a2.209 2.209 0 0 0-3.118-.111l-7.537 7.009a2.207 2.207 0 0 0 1.503 3.82c.539 0 1.076-.195 1.501-.59l7.537-7.009a2.207 2.207 0 0 0 .114-3.119z"/><path d="M23.377 44.454a2.204 2.204 0 1 0-3.668 2.447l5.026 7.539a2.205 2.205 0 0 0 3.667-2.446l-5.025-7.54z"/><path d="M27.653 32.633L22.4 34.459a2.204 2.204 0 0 0-1.358 2.807 2.205 2.205 0 0 0 2.082 1.483c.241 0 .486-.041.724-.125l5.255-1.826a2.206 2.206 0 0 0-1.45-4.165z"/><path d="M50.18 49.759a2.206 2.206 0 0 0-3.104-.298 2.206 2.206 0 0 0-.297 3.105l4.338 5.253a2.2 2.2 0 0 0 3.103.297 2.206 2.206 0 0 0 .296-3.104l-4.336-5.253z"/><path d="M74.578 40.526l-7.766 4.376a2.199 2.199 0 0 0-.836 3 2.202 2.202 0 0 0 3 .841l7.766-4.374a2.207 2.207 0 0 0 .841-3.005 2.202 2.202 0 0 0-3.005-.838z"/><path d="M69.632 33.093a2.205 2.205 0 1 0 4.292-1.011l-2.511-10.667a2.2 2.2 0 0 0-2.652-1.639 2.198 2.198 0 0 0-1.638 2.65l2.509 10.667z"/><path d="M59.776 16.919l-5.874 4.111a2.205 2.205 0 0 0 2.53 3.612l5.874-4.111a2.205 2.205 0 1 0-2.53-3.612z"/><path d="M32.982 20.481l6.626 5.026a2.197 2.197 0 0 0 3.086-.426 2.202 2.202 0 0 0-.423-3.088l-6.626-5.026a2.206 2.206 0 0 0-2.663 3.514z"/><path d="M35.095 51.605l-3.425 3.2a2.2 2.2 0 0 0-.106 3.115 2.197 2.197 0 0 0 1.611.699c.539 0 1.08-.195 1.504-.593l3.425-3.199a2.201 2.201 0 0 0 .106-3.116 2.201 2.201 0 0 0-3.115-.106z"/><metadata><rdf:RDF xmlns:rdf="http://www.w3.org/1999/02/22-rdf-syntax-ns#" xmlns:rdfs="http://www.w3.org/2000/01/rdf-schema#" xmlns:dc="http://purl.org/dc/elements/1.1/"><rdf:Description about="https://iconscout.com/legal#licenses" dc:title="food,donut" dc:description="food,donut" dc:publisher="Iconscout" dc:date="2018-04-15" dc:format="image/svg+xml" dc:language="en"><dc:creator><rdf:Bag><rdf:li>BomSymbols .</rdf:li></rdf:Bag></dc:creator></rdf:Description></rdf:RDF></metadata></svg>