<?xml version="1.0" encoding="UTF-8"?><!DOCTYPE svg PUBLIC "-//W3C//DTD SVG 1.1//EN" "http://www.w3.org/Graphics/SVG/1.1/DTD/svg11.dtd"><svg xmlns="http://www.w3.org/2000/svg" xmlns:xlink="http://www.w3.org/1999/xlink" version="1.1" id="Layer_1" x="0px" y="0px" width="91px" height="91px" viewBox="0 0 91 91" xml:space="preserve"><g fill="#010101"><path d="M89.719 32.328l-8.65-7.428-2.107-11.206a2.212 2.212 0 0 0-1.763-1.764L65.991 9.821l-7.43-8.65a2.204 2.204 0 0 0-2.408-.646L45.396 4.303 34.639.524a2.205 2.205 0 0 0-2.409.646l-7.428 8.65-11.208 2.11a2.207 2.207 0 0 0-1.762 1.764L9.725 24.899l-8.652 7.427a2.21 2.21 0 0 0-.646 2.411l3.78 10.757-3.78 10.757a2.211 2.211 0 0 0 .646 2.41l8.651 7.427 2.106 11.205a2.209 2.209 0 0 0 1.764 1.766L24.8 81.166l7.428 8.65a2.215 2.215 0 0 0 2.409.645l10.757-3.777 10.758 3.777a2.214 2.214 0 0 0 2.409-.645l7.43-8.65 11.205-2.107a2.208 2.208 0 0 0 1.764-1.763l2.106-11.208 8.65-7.427c.689-.592.948-1.55.645-2.41l-3.778-10.757 3.778-10.757a2.204 2.204 0 0 0-.642-2.409zm-7.562 13.9l3.536 10.064-8.093 6.947a2.21 2.21 0 0 0-.731 1.268l-1.974 10.487-10.483 1.972a2.236 2.236 0 0 0-1.27.732l-6.95 8.094-10.065-3.534a2.193 2.193 0 0 0-1.463 0l-10.063 3.534-6.95-8.094a2.21 2.21 0 0 0-1.269-.732l-10.484-1.972-1.97-10.485a2.213 2.213 0 0 0-.733-1.27l-8.094-6.947 3.534-10.064a2.22 2.22 0 0 0 0-1.466L5.098 34.698l8.094-6.95c.381-.328.64-.775.731-1.269l1.97-10.484 10.484-1.973a2.213 2.213 0 0 0 1.268-.731l6.95-8.094L44.66 8.733a2.22 2.22 0 0 0 1.466 0l10.065-3.537 6.949 8.094c.327.381.773.64 1.268.731l10.485 1.973 1.973 10.484c.093.494.351.941.732 1.269l8.095 6.95-3.537 10.066a2.25 2.25 0 0 0 .001 1.465z"/><path d="M46.169 20.885h-.003c-6.905 0-13.395 2.688-18.273 7.571-6.007 6.003-8.766 14.908-7.378 23.82 1.452 9.334 7.093 17.169 15.476 21.498a2.21 2.21 0 0 0 2.027-3.929c-7.116-3.673-11.904-10.326-13.136-18.25-1.17-7.521 1.125-15.004 6.138-20.014a21.272 21.272 0 0 1 15.147-6.277h.003a21.3 21.3 0 0 1 15.155 6.279 16.591 16.591 0 0 1 4.891 11.808 16.62 16.62 0 0 1-4.896 11.812c-5.038 5.033-13.233 5.035-18.27 0-3.857-3.859-3.856-10.137 0-13.996 2.913-2.911 7.658-2.913 10.572-.001a5.55 5.55 0 0 1-.003 7.834 3.999 3.999 0 0 1-5.639.002 2.754 2.754 0 0 1 .002-3.889 2.21 2.21 0 0 0-3.125-3.126c-2.794 2.792-2.797 7.34-.003 10.141 3.28 3.276 8.615 3.272 11.89-.001 3.879-3.88 3.881-10.198.003-14.084-4.639-4.633-12.185-4.633-16.822.001-5.58 5.581-5.581 14.664-.001 20.247 6.764 6.757 17.763 6.757 24.523 0a21 21 0 0 0 6.188-14.938c0-5.643-2.193-10.946-6.184-14.935-4.886-4.883-11.379-7.573-18.282-7.573z"/></g><metadata><rdf:RDF xmlns:rdf="http://www.w3.org/1999/02/22-rdf-syntax-ns#" xmlns:rdfs="http://www.w3.org/2000/01/rdf-schema#" xmlns:dc="http://purl.org/dc/elements/1.1/"><rdf:Description about="https://iconscout.com/legal#licenses" dc:title="food,fish,cake" dc:description="food,fish,cake" dc:publisher="Iconscout" dc:date="2018-04-15" dc:format="image/svg+xml" dc:language="en"><dc:creator><rdf:Bag><rdf:li>BomSymbols .</rdf:li></rdf:Bag></dc:creator></rdf:Description></rdf:RDF></metadata></svg>