<?xml version="1.0" encoding="UTF-8"?><!DOCTYPE svg PUBLIC "-//W3C//DTD SVG 1.1//EN" "http://www.w3.org/Graphics/SVG/1.1/DTD/svg11.dtd"><svg xmlns="http://www.w3.org/2000/svg" xmlns:xlink="http://www.w3.org/1999/xlink" version="1.1" id="Layer_1" x="0px" y="0px" width="91px" height="91px" viewBox="0 0 91 91" xml:space="preserve"><path d="M90.24 30.004a2.126 2.126 0 0 0-2.435-.393c-6.415 3.172-11.975 7.95-16.237 13.914-4.56-6.394-10.523-11.305-17.268-14.403.287-2.526.42-6.96-1.68-9.494-1.021-1.233-2.438-1.886-4.097-1.886-14.261 0-22.23 7.609-24.156 9.708-9.442 3.136-17.704 9.679-23.29 18.793l-.68 1.111.68 1.11c5.641 9.2 14.007 15.779 23.561 18.878 2.31 2.415 10.186 9.425 23.886 9.425 1.658 0 3.075-.651 4.097-1.885 2.046-2.472 1.973-6.75 1.701-9.303 6.735-3.1 12.689-8.008 17.245-14.394 4.263 5.967 9.822 10.743 16.238 13.916a2.12 2.12 0 0 0 2.454-.415 2.123 2.123 0 0 0 .376-2.461c-7.271-14.117-.046-29.646.024-29.798a2.113 2.113 0 0 0-.419-2.423zm-41.717-8.017c.449 0 .648.133.826.349.753.906.918 3.099.811 5.137a40.766 40.766 0 0 0-12.933-2.114c-1.119 0-2.229.061-3.333.152 3.486-1.864 8.34-3.524 14.629-3.524zM23.007 62.211c-7-2.951-13.146-8.054-17.609-14.855 4.464-6.802 10.609-11.903 17.609-14.854 6.594 8.61 6.592 21.096 0 29.709zm26.343 9.967c-.179.214-.377.346-.826.346-6.005 0-10.701-1.513-14.149-3.272a41.68 41.68 0 0 0 2.854.103c4.459 0 8.816-.738 12.943-2.117.085 1.98-.093 4.061-.822 4.94zm-12.122-7.07c-3.453 0-6.833-.503-10.078-1.437 6.66-9.678 6.66-22.955.002-32.631a36.456 36.456 0 0 1 10.075-1.436c12.715 0 24.521 6.611 31.832 17.75-7.308 11.144-19.115 17.754-31.831 17.754zm47.257-6.918c-4.055-2.876-7.583-6.543-10.399-10.835 2.888-4.396 6.517-8.137 10.697-11.042-1.458 5.212-2.756 13.362-.298 21.877z"/><path d="M17.676 43.64a2.123 2.123 0 1 0 0 4.247 2.117 2.117 0 0 0 2.109-2.125 2.117 2.117 0 0 0-2.109-2.122z"/><path d="M49.703 40.122c-2.565-2.273-7.698-1.727-8.698-1.594a2.125 2.125 0 0 0-1.826 2.38 2.127 2.127 0 0 0 2.38 1.829c2.438-.315 5.09.077 5.383.716 0 .087-.002.292-.37.6-.585.491-1.532.773-2.241.871a14.48 14.48 0 0 0-1.166-.008 2.123 2.123 0 0 0-.275 4.218 6.54 6.54 0 0 0 1.543.047c1.551.124 2.211.626 2.358.958.134.3-.022.76-.391 1.137-.707.729-2.214 1.202-4.321.349a2.121 2.121 0 1 0-1.595 3.931c1.339.544 2.587.772 3.72.772 2.306 0 4.127-.945 5.245-2.101 1.583-1.636 2.061-3.915 1.22-5.809a5.03 5.03 0 0 0-.997-1.452c.974-.964 1.495-2.153 1.515-3.459.018-1.339-.497-2.509-1.484-3.385z"/><metadata><rdf:RDF xmlns:rdf="http://www.w3.org/1999/02/22-rdf-syntax-ns#" xmlns:rdfs="http://www.w3.org/2000/01/rdf-schema#" xmlns:dc="http://purl.org/dc/elements/1.1/"><rdf:Description about="https://iconscout.com/legal#licenses" dc:title="food,fish" dc:description="food,fish" dc:publisher="Iconscout" dc:date="2018-04-15" dc:format="image/svg+xml" dc:language="en"><dc:creator><rdf:Bag><rdf:li>BomSymbols .</rdf:li></rdf:Bag></dc:creator></rdf:Description></rdf:RDF></metadata></svg>