<?xml version="1.0" encoding="UTF-8"?><!DOCTYPE svg PUBLIC "-//W3C//DTD SVG 1.1//EN" "http://www.w3.org/Graphics/SVG/1.1/DTD/svg11.dtd"><svg xmlns="http://www.w3.org/2000/svg" xmlns:xlink="http://www.w3.org/1999/xlink" version="1.1" id="Layer_1" x="0px" y="0px" width="91px" height="91px" viewBox="0 0 91 91" xml:space="preserve"><path d="M75.127 54.837H85.68v29.131a2.465 2.465 0 1 0 4.929 0V8.704c0-.232-.04-.452-.101-.664l-.044-.144a2.514 2.514 0 0 0-.286-.584c-.005-.009-.015-.018-.021-.026a2.572 2.572 0 0 0-.428-.456c-.035-.029-.07-.061-.105-.089a2.439 2.439 0 0 0-.576-.326c-.008-.003-.013-.01-.022-.013-.023-.009-.045-.007-.065-.015a2.475 2.475 0 0 0-.576-.125c-.049-.004-.098-.014-.146-.015-.03-.001-.063-.009-.093-.009-.19 0-.374.026-.552.066-.035.008-.065.022-.101.031a2.55 2.55 0 0 0-.532.217c-.036.021-.077.038-.109.061a2.482 2.482 0 0 0-.507.417c-.012.012-.026.018-.038.03-.634.711-15.55 17.726-13.638 45.479a2.465 2.465 0 0 0 2.458 2.298zM85.68 16.655v33.251h-8.212c-.505-15.071 4.395-26.626 8.212-33.251z"/><path d="M15.086 45.549v38.046a2.465 2.465 0 1 0 4.929 0V45.549c8.284-1.375 14.675-9.52 14.675-19.362 0-10.795-7.689-19.58-17.141-19.58-9.451 0-17.143 8.784-17.143 19.58 0 9.842 6.39 17.989 14.68 19.362zm2.463-34.009c6.735 0 12.211 6.57 12.211 14.65 0 8.081-5.477 14.655-12.211 14.655S5.335 34.269 5.335 26.19s5.48-14.65 12.214-14.65z"/><path d="M48.829 41.924h2.074v41.671a2.465 2.465 0 1 0 4.93 0V41.924h2.066c5.609 0 10.18-4.568 10.18-10.182V9.074a2.465 2.465 0 0 0-4.931 0v22.668a5.255 5.255 0 0 1-5.248 5.252h-9.069a5.254 5.254 0 0 1-5.245-5.252V9.074a2.465 2.465 0 0 0-4.93 0v22.668c-.003 5.613 4.564 10.182 10.173 10.182z"/><path d="M53.366 29.476a2.467 2.467 0 0 0 2.467-2.464V9.074a2.466 2.466 0 0 0-2.467-2.464 2.464 2.464 0 0 0-2.463 2.464v17.939a2.46 2.46 0 0 0 2.463 2.463z"/><metadata><rdf:RDF xmlns:rdf="http://www.w3.org/1999/02/22-rdf-syntax-ns#" xmlns:rdfs="http://www.w3.org/2000/01/rdf-schema#" xmlns:dc="http://purl.org/dc/elements/1.1/"><rdf:Description about="https://iconscout.com/legal#licenses" dc:title="food,flatware" dc:description="food,flatware" dc:publisher="Iconscout" dc:date="2018-04-15" dc:format="image/svg+xml" dc:language="en"><dc:creator><rdf:Bag><rdf:li>BomSymbols .</rdf:li></rdf:Bag></dc:creator></rdf:Description></rdf:RDF></metadata></svg>