<?xml version="1.0" encoding="UTF-8"?><!DOCTYPE svg PUBLIC "-//W3C//DTD SVG 1.1//EN" "http://www.w3.org/Graphics/SVG/1.1/DTD/svg11.dtd"><svg xmlns="http://www.w3.org/2000/svg" xmlns:xlink="http://www.w3.org/1999/xlink" version="1.1" id="Layer_1" x="0px" y="0px" width="91px" height="91px" viewBox="0 0 91 91" xml:space="preserve"><path d="M54.28 10.609c-9.768 0-19.12 4.79-21.75 11.145l-.105.32c-.005.02-.505 1.946-1.954 1.946-.315 0-.68-.072-1.08-.211l-.392-.097c-.071-.01-1.767-.258-4.116-.258-4.97 0-11.521 1.068-14.502 6.156-3.759 6.413-3.131 14.933-2.895 18.141.026.373.051.649.054.75-.079.688-1.388 3.723-4.565 8.922-3.117 5.102-3.87 13.011.264 17.416 2.324 2.481 6.062 3.846 10.52 3.846 2.711 0 5.484-.504 8.018-1.455.582-.217 1.159-.437 1.726-.655 3.408-1.31 6.351-2.438 9.264-2.438 1.167 0 2.259.183 3.341.56.609.213 1.398.515 2.342.879 5.163 1.984 14.777 5.684 23.767 5.684 4.581 0 8.507-.967 11.665-2.882 3.977-2.408 13.521-9.335 16.203-21.566 2.049-9.349-.449-19.317-7.428-29.633-9.744-14.419-21.963-16.57-28.377-16.57zm31.65 45.289c-2.329 10.623-10.745 16.714-14.252 18.838-2.484 1.507-5.667 2.271-9.462 2.271-8.202 0-17.333-3.517-22.24-5.401a78.44 78.44 0 0 0-2.472-.927 14.206 14.206 0 0 0-4.74-.796c-3.701 0-7.143 1.321-10.786 2.72-.56.215-1.124.43-1.696.646a19.047 19.047 0 0 1-6.525 1.184c-3.223 0-5.926-.913-7.416-2.501-2.623-2.796-1.982-8.611.264-12.286 3.441-5.633 5.188-9.361 5.188-11.088 0-.213-.026-.596-.063-1.116-.21-2.845-.768-10.404 2.322-15.674 2.067-3.527 7.673-4.054 10.83-4.054 1.619 0 2.883.135 3.325.19a7.435 7.435 0 0 0 2.264.375c3.701 0 5.531-3.175 6.042-5.019 1.792-4.061 9.027-8.394 17.766-8.394 9.618 0 18.447 5.218 24.854 14.696 6.302 9.311 8.587 18.171 6.797 26.336z"/><path d="M53.518 30.882c-10.129 0-18.37 8.241-18.37 18.373 0 10.127 8.24 18.366 18.37 18.366S71.89 59.382 71.89 49.255c0-10.131-8.243-18.373-18.372-18.373zm0 32.483c-7.783 0-14.113-6.331-14.113-14.109 0-7.784 6.332-14.117 14.113-14.117 7.783 0 14.117 6.333 14.117 14.117 0 7.778-6.334 14.109-14.117 14.109z"/><path d="M60.995 48.932a2.13 2.13 0 0 0 1.163-2.777 12.867 12.867 0 0 0-8.87-7.612 2.13 2.13 0 0 0-2.566 1.57 2.13 2.13 0 0 0 1.571 2.567 8.603 8.603 0 0 1 5.928 5.088 2.127 2.127 0 0 0 2.774 1.164z"/><path d="M61.724 50.166c-1.161-.184-2.256.682-2.434 1.843a2.124 2.124 0 0 0 2.104 2.449 2.131 2.131 0 0 0 2.104-1.804l.017-.125c.175-1.161-.63-2.186-1.791-2.363z"/><metadata><rdf:RDF xmlns:rdf="http://www.w3.org/1999/02/22-rdf-syntax-ns#" xmlns:rdfs="http://www.w3.org/2000/01/rdf-schema#" xmlns:dc="http://purl.org/dc/elements/1.1/"><rdf:Description about="https://iconscout.com/legal#licenses" dc:title="food,fried,egg" dc:description="food,fried,egg" dc:publisher="Iconscout" dc:date="2018-04-15" dc:format="image/svg+xml" dc:language="en"><dc:creator><rdf:Bag><rdf:li>BomSymbols .</rdf:li></rdf:Bag></dc:creator></rdf:Description></rdf:RDF></metadata></svg>