<?xml version="1.0" encoding="UTF-8"?><!DOCTYPE svg PUBLIC "-//W3C//DTD SVG 1.1//EN" "http://www.w3.org/Graphics/SVG/1.1/DTD/svg11.dtd"><svg xmlns="http://www.w3.org/2000/svg" xmlns:xlink="http://www.w3.org/1999/xlink" version="1.1" id="Layer_1" x="0px" y="0px" width="91px" height="91px" viewBox="0 0 91 91" xml:space="preserve"><g fill="#010101"><path d="M80.016 63.396a1.974 1.974 0 0 0-1.62.293L60.987 75.792c-.72.425-4.19 2.644-4.347 6.13-.102 2.284 1.203 4.374 3.879 6.215 2.59 1.783 5.393 2.688 8.326 2.688h.001c3.456 0 6.918-1.313 9.75-3.7 5.974-5.033 7.034-13.939 2.696-22.692a1.975 1.975 0 0 0-1.276-1.037zm-3.966 20.71c-2.118 1.786-4.678 2.769-7.203 2.769-2.119 0-4.167-.669-6.087-1.993-.831-.569-2.215-1.69-2.173-2.775.049-1.182 1.664-2.483 2.434-2.926.055-.029.106-.063.158-.1L78.68 68.304c2.399 6.322 1.451 12.364-2.63 15.802z"/><path d="M73 57.953c1.627-12.124-7.952-19.937-9.146-20.857l-12.64-12.054c-.854-.9-3.187-3.845-3.742-6.614a1.973 1.973 0 0 0-2.323-1.549 1.974 1.974 0 0 0-1.55 2.324c.887 4.44 4.588 8.39 4.818 8.627l12.792 12.2c.057.056.119.108.185.157.092.067 9.084 6.874 7.692 17.239-.984 7.313-7.296 10.155-13.036 11.21.306-.438.605-.878.862-1.354 5.068-9.38-1.26-22.234-1.532-22.776a1.973 1.973 0 1 0-3.531 1.765c.057.115 5.679 11.578 1.581 19.142-2.011 3.718-6.187 5.982-12.406 6.729-1.107-.033-9.756-.604-13.209-9.647a1.976 1.976 0 0 0-2.55-1.14 1.973 1.973 0 0 0-1.14 2.549 19.898 19.898 0 0 0 2.442 4.566 13.968 13.968 0 0 1-8.928-2.091c-3.296-2.088-5.361-5.303-5.819-9.058-1.26-10.345 7.612-17.206 7.698-17.271.062-.047.121-.097.176-.15l12.765-12.178c.224-.206 2.246-2.187 4.441-8.234a1.976 1.976 0 0 0-3.714-1.348c-1.842 5.072-3.42 6.689-3.431 6.701l-12.713 12.13c-1.16.905-10.623 8.697-9.145 20.829.595 4.882 3.374 9.226 7.627 11.919a17.89 17.89 0 0 0 9.583 2.781c1.557 0 3.122-.212 4.66-.621 5.099 4.146 11.002 4.22 11.354 4.22.076 0 .153-.005.228-.015 3.886-.453 7.141-1.442 9.763-2.952 12.867-.508 20.639-5.89 21.888-15.179z"/><path d="M31.376 35.321c-.497.635-4.877 6.323-5.933 10.133a1.977 1.977 0 0 0 3.809 1.056c.716-2.589 4.025-7.202 5.241-8.76a1.976 1.976 0 0 0-3.117-2.429z"/><path d="M40.84 14.497c1.09 0 1.975-.884 1.975-1.975V2.5a1.976 1.976 0 0 0-3.951 0v10.022c0 1.091.886 1.975 1.976 1.975z"/><path d="M45.647 14.235a1.977 1.977 0 0 0 2.697-.73l2.247-3.915a1.975 1.975 0 1 0-3.427-1.969l-2.247 3.915a1.98 1.98 0 0 0 .73 2.699z"/><path d="M33.701 13.97a1.97 1.97 0 0 0 2.791-.105 1.974 1.974 0 0 0-.104-2.792l-4.221-3.915a1.978 1.978 0 0 0-2.791.105c-.743.8-.697 2.049.104 2.792l4.221 3.915z"/></g><metadata><rdf:RDF xmlns:rdf="http://www.w3.org/1999/02/22-rdf-syntax-ns#" xmlns:rdfs="http://www.w3.org/2000/01/rdf-schema#" xmlns:dc="http://purl.org/dc/elements/1.1/"><rdf:Description about="https://iconscout.com/legal#licenses" dc:title="food,garlic" dc:description="food,garlic" dc:publisher="Iconscout" dc:date="2018-04-15" dc:format="image/svg+xml" dc:language="en"><dc:creator><rdf:Bag><rdf:li>BomSymbols .</rdf:li></rdf:Bag></dc:creator></rdf:Description></rdf:RDF></metadata></svg>