<?xml version="1.0" encoding="UTF-8"?><!DOCTYPE svg PUBLIC "-//W3C//DTD SVG 1.1//EN" "http://www.w3.org/Graphics/SVG/1.1/DTD/svg11.dtd"><svg xmlns="http://www.w3.org/2000/svg" xmlns:xlink="http://www.w3.org/1999/xlink" version="1.1" id="Layer_1" x="0px" y="0px" width="91px" height="91px" viewBox="0 0 91 91" xml:space="preserve"><path d="M64.389 25.636a2.134 2.134 0 0 0-2.897-.832 2.128 2.128 0 0 0-.83 2.896c2.326 4.206 6.466 5.558 10.826 5.558 7.567 0 15.79-4.07 16.326-4.339l2.428-1.221-1.766-2.065c-5.628-6.589-11.781-10.155-18.287-10.6-3.664-.245-6.839.552-9.313 1.566 1.823-8.301-2.107-15.026-2.167-15.13l-3.648 2.203c.309.509 7.153 12.222-5.423 22.877-.197-.06-.398-.118-.602-.169.291-1.644.297-3.325-.054-4.976-1.277-6.034-6.678-10.415-12.839-10.415-.912 0-1.832.097-2.731.287-6.818 1.446-11.267 7.971-10.257 14.775l-.018-.001c-.913 0-1.83.098-2.731.287-7.084 1.501-11.629 8.487-10.129 15.575a12.966 12.966 0 0 0 2.529 5.367c-.781.009-1.562.085-2.334.249a12.177 12.177 0 0 0-7.729 5.303 12.165 12.165 0 0 0-1.716 9.215c.691 3.259 2.673 5.99 5.331 7.72a11.814 11.814 0 0 0-2.068 9.515c1.164 5.499 6.082 9.489 11.694 9.49h.001c.833 0 1.671-.088 2.491-.263 3.927-.83 7.074-3.557 8.542-7.156a13.03 13.03 0 0 0 6.092 1.527c.912 0 1.83-.094 2.731-.288 5.925-1.255 10.069-6.379 10.373-12.174.679.109 1.369.175 2.071.175.911 0 1.829-.096 2.73-.288 4.932-1.045 8.624-4.747 9.911-9.289.366.035.734.08 1.097.08.798 0 1.596-.085 2.37-.249a11.944 11.944 0 0 0 7.589-5.207 11.942 11.942 0 0 0 1.682-9.05c-1.17-5.525-6.112-9.535-11.756-9.535-.836 0-1.676.088-2.498.264-.177.036-.338.104-.509.147-.042-.362-.098-.72-.176-1.071-.677-3.199-2.518-5.923-5.011-7.786 2.002-1.887 3.513-3.809 4.645-5.716.974-.775 5.438-4.023 11.539-3.614 4.607.316 9.094 2.658 13.368 6.971-4.984 1.988-15.591 5.331-18.877-.613zm-36.939.331c-1.013-4.788 2.058-9.509 6.844-10.524a9.016 9.016 0 0 1 1.849-.194c4.162 0 7.809 2.961 8.674 7.038a8.779 8.779 0 0 1-.021 3.753c-.551.045-1.1.115-1.642.23a13.35 13.35 0 0 0-1.327.356c-.083.026-.161.062-.241.09a12.81 12.81 0 0 0-1.042.401c-.075.032-.146.074-.22.107-.339.158-.674.327-.999.514-.066.037-.128.079-.192.118-.324.193-.64.399-.946.619-.064.046-.125.096-.187.142-.294.223-.582.453-.858.7-.067.062-.131.125-.199.186-.258.242-.507.492-.749.753-.071.079-.141.161-.211.241-.224.258-.439.525-.644.802-.067.09-.131.182-.197.273-.091.13-.19.25-.279.385-.11.17-.201.346-.303.52-.026.044-.057.083-.083.128-.019-.031-.042-.062-.061-.093a14.25 14.25 0 0 0-.41-.642c-.069-.103-.136-.206-.208-.306a13.87 13.87 0 0 0-.476-.616c-.065-.079-.129-.162-.196-.239a12.58 12.58 0 0 0-.644-.701l-.073-.076a13.266 13.266 0 0 0-4.708-3.045 9.909 9.909 0 0 1-.251-.92zm9.502 22.321a8.84 8.84 0 0 1 .162 2.521c-.026.099-.059.197-.071.3-.167 1.469-.641 2.795-1.408 3.944a.069.069 0 0 1-.01.021 8.894 8.894 0 0 1-1.853 2.002c-.072.042-.145.077-.211.129-1.049.79-2.187 1.322-3.38 1.587l-.072.018a8.472 8.472 0 0 1-.792.126 8.644 8.644 0 0 1-1.512.028c-.105-.005-.209-.018-.314-.026-.207-.021-.415-.039-.623-.074-.071-.012-.141-.008-.209-.013a8.743 8.743 0 0 1-2.425-.852c-.046-.028-.081-.07-.13-.095a9.082 9.082 0 0 1-2.787-2.318 9.693 9.693 0 0 1-.334-.45c-.113-.159-.229-.318-.331-.487a8.839 8.839 0 0 1-.541-1.063c-.048-.11-.088-.223-.131-.335a8.771 8.771 0 0 1-.393-1.288l-.004-.033c-.098-.476-.154-1-.169-1.604-.001-.041-.016-.078-.02-.119a8.827 8.827 0 0 1 .067-1.117c.019-.075.05-.145.061-.223a8.917 8.917 0 0 1 6.908-7.425 8.64 8.64 0 0 1 1.572-.179c.033-.001.065-.004.1-.004.15-.002.301.008.45.014a8.5 8.5 0 0 1 2.244.376 8.49 8.49 0 0 1 1.035.387c.135.061.272.119.403.186a9.072 9.072 0 0 1 1.484.926c.043.042.075.097.123.135 1.546 1.257 2.601 2.924 3.049 4.821.003.014.013.026.019.043.01.048.031.091.043.141zM21.29 30.506a8.955 8.955 0 0 1 1.849-.195c.776 0 1.523.133 2.247.329.049.018.093.042.142.056.942.268 1.818.68 2.602 1.209l.071.048c.25.172.492.354.721.549.252.221.497.449.726.697.116.125.221.262.331.393.187.228.364.461.526.707.075.112.155.22.225.336a8.746 8.746 0 0 1 1.08 2.715c.01.048.021.096.029.144a12.908 12.908 0 0 0-3.041-.484c-.05-.002-.099-.005-.149-.006-.123-.004-.245-.017-.37-.017-.299 0-.6.026-.899.046-.111.007-.221.007-.331.018-.503.047-1.006.118-1.502.223-.494.105-.974.244-1.445.4-.086.028-.169.065-.257.095-.413.146-.817.314-1.21.5-.037.018-.074.035-.109.054a13.052 13.052 0 0 0-5.268 4.639 13.378 13.378 0 0 0-.988 1.844 8.738 8.738 0 0 1-1.827-3.779c-1.011-4.785 2.06-9.506 6.847-10.521zM6.314 55.154a7.953 7.953 0 0 1 5.041-3.459 7.82 7.82 0 0 1 3.903.18 12.106 12.106 0 0 0 .47 2.143c.03.093.068.184.1.278.099.291.201.582.319.862.038.088.08.176.119.263.129.287.263.571.412.851.033.063.071.126.106.188.171.308.353.608.547.899.016.026.034.049.05.075a13.309 13.309 0 0 0 3.46 3.506 7.96 7.96 0 0 1-2.856 4.806c-.048.029-.101.05-.146.083-.45.345-.919.632-1.403.868-.093.045-.184.09-.28.131a6.679 6.679 0 0 1-.509.205 7.638 7.638 0 0 1-.981.287c-.001 0-.003 0-.005.002a7.622 7.622 0 0 1-2.005.145l-.021-.002a8.378 8.378 0 0 1-2.047-.392c-.093-.03-.189-.037-.285-.054-2.535-.923-4.524-3.106-5.107-5.856a7.93 7.93 0 0 1 1.118-6.009zm11.278 29.19a7.731 7.731 0 0 1-1.607.17c-3.611 0-6.777-2.571-7.526-6.11-.536-2.525.234-5.091 2.02-6.922.818.175 1.66.276 2.522.276a12.316 12.316 0 0 0 6.42-1.811c.198.101.395.208.585.326.001.041.008.079.009.12.008.165.022.33.036.494.043.539.106 1.067.217 1.584 0 .006.002.01.003.013.109.51.257 1.005.423 1.489a13.162 13.162 0 0 0 .739 1.758l.04.07c.244.465.518.909.811 1.336.037.051.07.104.108.157.324.459.677.898 1.056 1.309-.681 2.873-2.935 5.125-5.856 5.741zm17.366-5.915a9.013 9.013 0 0 1-1.848.194c-2.342 0-4.5-.962-6.114-2.508a9.314 9.314 0 0 1-.717-.76c-.102-.124-.191-.255-.288-.384a9.37 9.37 0 0 1-.511-.741c-.125-.213-.228-.438-.336-.661-.098-.198-.206-.394-.287-.599a8.8 8.8 0 0 1-.419-1.376l-.003-.014c-.006-.029-.006-.06-.013-.089a8.636 8.636 0 0 1-.147-2.196c.001-.028-.007-.058-.006-.087a8.936 8.936 0 0 1 2.886-5.995c.366.031.734.049 1.105.049.207 0 .415-.024.621-.032.138-.005.276-.013.413-.021.188-.016.375-.03.563-.055.376-.044.752-.098 1.122-.178l.015-.002c.023-.005.043-.014.065-.019a11.896 11.896 0 0 0 2.066-.639c.037-.017.074-.027.109-.041a13.111 13.111 0 0 0 2.104-1.097c.131.034.263.071.392.11.122.396.265.78.42 1.159.027.063.057.121.083.182.135.315.28.624.439.924.039.075.083.146.125.222.156.283.322.562.499.832.047.073.096.143.145.216.185.269.379.533.583.788.048.061.096.119.144.178a13.074 13.074 0 0 0 .804.888c.882.89 1.883 1.654 2.979 2.265.403 4.412-2.563 8.548-6.993 9.487zm15.177-12.288a8.945 8.945 0 0 1-1.849.193c-1.333 0-2.602-.331-3.755-.876a9.295 9.295 0 0 1-1.261-.729c-.112-.08-.232-.149-.342-.235a8.778 8.778 0 0 1-.55-.469 9.107 9.107 0 0 1-.4-.386 8.318 8.318 0 0 1-.48-.513 8.623 8.623 0 0 1-.963-1.43 9.235 9.235 0 0 1-.299-.587c-.083-.185-.167-.37-.239-.562a8.577 8.577 0 0 1-.374-1.223c-.001-.011-.002-.022-.005-.032-.001-.009-.005-.016-.008-.023-.146-.706-.189-1.469-.129-2.326.025-.041.044-.085.069-.127a13.09 13.09 0 0 0 1.691-4.714 8.953 8.953 0 0 1 1.258-1.328c.045-.032.099-.047.141-.081a9.467 9.467 0 0 1 1.663-1.122c.092-.048.183-.099.274-.143.208-.101.42-.186.633-.27a8.694 8.694 0 0 1 1.247-.384c.385-.081.772-.13 1.162-.159.072-.007.14-.007.211-.013.285-.015.567-.005.853.009.211.009.42.03.629.056.278.033.555.066.832.129.103.022.202.057.306.081a8.764 8.764 0 0 1 .993.301c.265.101.516.225.769.348.088.043.181.076.267.122.193.103.372.226.554.341.209.131.413.269.61.417.14.105.276.213.406.326.271.229.527.473.767.734.054.057.113.11.165.169.296.341.565.704.81 1.087.052.08.096.168.146.252.185.313.349.639.495.975.048.112.1.225.144.34.163.426.305.863.402 1.321l.002.003c.171.813.201 1.705.098 2.728-.006.075.016.147.018.223-.467 3.645-3.169 6.774-6.961 7.577zm10.156-24.652a7.83 7.83 0 0 1 1.618-.171c3.642 0 6.832 2.59 7.589 6.158a7.727 7.727 0 0 1-1.085 5.844 7.72 7.72 0 0 1-4.902 3.363 7.32 7.32 0 0 1-2.113.129 13.97 13.97 0 0 0-.081-1.012 11.675 11.675 0 0 0-.172-1.064 12.19 12.19 0 0 0-.336-1.245c-.044-.147-.102-.289-.153-.436-.09-.25-.184-.497-.284-.742-.078-.179-.16-.353-.243-.528a12.146 12.146 0 0 0-.291-.568c-.105-.192-.211-.388-.324-.575-.088-.14-.181-.276-.274-.412a12.7 12.7 0 0 0-.955-1.271c-.052-.061-.098-.124-.149-.183-.163-.185-.339-.358-.514-.537a25.712 25.712 0 0 0-.372-.367 15.038 15.038 0 0 0-1.05-.874c-.125-.094-.249-.191-.38-.283a13.68 13.68 0 0 0-1.047-.67c.021-.051.037-.103.062-.151.023-.052.052-.098.073-.148a7.818 7.818 0 0 1 2.945-3.26c.026-.017.048-.039.074-.057a7.643 7.643 0 0 1 2.364-.94zm-5.572-2.041a12 12 0 0 0-3.075 3.419c-.065.108-.137.21-.201.319-.171.307-.318.626-.466.949-.065.146-.148.284-.211.432a12.906 12.906 0 0 0-2.457-.242c-.046 0-.092.008-.14.008h-.004a13.323 13.323 0 0 0-2.589.281 12.99 12.99 0 0 0-4.524 1.902c-.066-.045-.132-.089-.196-.136a13.13 13.13 0 0 0-3.75-5.936 8.792 8.792 0 0 1 .509-4.541c.005-.013.014-.02.019-.032.27-.68.618-1.314 1.031-1.895.02-.026.038-.053.057-.079a8.842 8.842 0 0 1 .665-.812 8.845 8.845 0 0 1 1.625-1.378l.049-.029a8.586 8.586 0 0 1 1.012-.562c.24-.115.489-.215.742-.309.079-.028.158-.062.238-.088a9.08 9.08 0 0 1 .964-.268l.024-.007.007-.001c.66-.138 1.424-.182 2.221-.144.027.001.054-.01.079-.01 3.965.21 7.38 3.072 8.216 6.997a8.51 8.51 0 0 1 .155 2.162z"/><metadata><rdf:RDF xmlns:rdf="http://www.w3.org/1999/02/22-rdf-syntax-ns#" xmlns:rdfs="http://www.w3.org/2000/01/rdf-schema#" xmlns:dc="http://purl.org/dc/elements/1.1/"><rdf:Description about="https://iconscout.com/legal#licenses" dc:title="food,grapes" dc:description="food,grapes" dc:publisher="Iconscout" dc:date="2018-04-15" dc:format="image/svg+xml" dc:language="en"><dc:creator><rdf:Bag><rdf:li>BomSymbols .</rdf:li></rdf:Bag></dc:creator></rdf:Description></rdf:RDF></metadata></svg>