<?xml version="1.0" encoding="UTF-8"?><!DOCTYPE svg PUBLIC "-//W3C//DTD SVG 1.1//EN" "http://www.w3.org/Graphics/SVG/1.1/DTD/svg11.dtd"><svg xmlns="http://www.w3.org/2000/svg" xmlns:xlink="http://www.w3.org/1999/xlink" version="1.1" id="Layer_1" x="0px" y="0px" width="91px" height="91px" viewBox="0 0 91 91" xml:space="preserve"><path d="M32.267 5.238a2.262 2.262 0 0 0-3.2.003c-4.229 4.235-4.229 11.12 0 15.345.003.003.005.006.009.008l.008.008c2.469 2.48 2.474 6.5.013 8.958a2.26 2.26 0 0 0 1.599 3.862 2.26 2.26 0 0 0 1.599-.66c4.227-4.223 4.225-11.112-.006-15.356-.005-.005-.013-.008-.021-.016-.003-.002-.006-.008-.008-.013-2.459-2.466-2.457-6.474.008-8.941a2.264 2.264 0 0 0-.001-3.198z"/><path d="M47.118 5.238a2.265 2.265 0 0 0-3.2.003 10.785 10.785 0 0 0-3.18 7.675 10.777 10.777 0 0 0 3.198 7.69v.002c2.469 2.477 2.476 6.491.011 8.954a2.263 2.263 0 0 0 3.2 3.204c4.184-4.184 4.217-10.968.114-15.219-.003-.003-.003-.005-.005-.011-.044-.048-.088-.098-.139-.147a6.275 6.275 0 0 1-1.855-4.471 6.29 6.29 0 0 1 1.857-4.477 2.264 2.264 0 0 0-.001-3.203z"/><path d="M61.973 5.238a2.265 2.265 0 0 0-3.2.003 10.787 10.787 0 0 0-3.182 7.675c0 2.878 1.115 5.586 3.141 7.629.008.01.021.019.029.028.011.008.017.021.027.031 2.469 2.477 2.474 6.494.011 8.957a2.262 2.262 0 0 0 3.198 3.202c4.207-4.204 4.222-11.044.054-15.291-.006-.006-.009-.011-.012-.016-.024-.024-.042-.046-.067-.071a6.284 6.284 0 0 1-1.856-4.471c0-1.688.66-3.278 1.858-4.477a2.264 2.264 0 0 0-.001-3.199z"/><path d="M.597 42.861c1.861 14.794 10.986 27.72 24.109 34.528v8.735h33.858c4.293 0 7.785-3.493 7.785-7.786v-.948c13.124-6.809 22.247-19.734 24.11-34.528l.319-2.548H.277l.32 2.547zm84.968 1.978C83.051 57.992 74.131 69.206 61.77 74.577h-7.245v4.526h7.195a3.254 3.254 0 0 1-3.155 2.495H29.231v-2.495h8.485v-4.525h-8.431C16.925 69.207 8.006 57.996 5.489 44.839h80.076z"/><path d="M65.417 66.731c.362 0 .729-.087 1.065-.271 5.587-2.989 9.679-8.215 11.224-14.336a2.257 2.257 0 0 0-1.637-2.746 2.26 2.26 0 0 0-2.749 1.637 18.036 18.036 0 0 1-8.969 11.457 2.264 2.264 0 0 0 1.066 4.259z"/><circle cx="59.939" cy="67.615" r="2.683"/><metadata><rdf:RDF xmlns:rdf="http://www.w3.org/1999/02/22-rdf-syntax-ns#" xmlns:rdfs="http://www.w3.org/2000/01/rdf-schema#" xmlns:dc="http://purl.org/dc/elements/1.1/"><rdf:Description about="https://iconscout.com/legal#licenses" dc:title="food,hot,soup" dc:description="food,hot,soup" dc:publisher="Iconscout" dc:date="2018-04-15" dc:format="image/svg+xml" dc:language="en"><dc:creator><rdf:Bag><rdf:li>BomSymbols .</rdf:li></rdf:Bag></dc:creator></rdf:Description></rdf:RDF></metadata></svg>