<?xml version="1.0" encoding="UTF-8"?><!DOCTYPE svg PUBLIC "-//W3C//DTD SVG 1.1//EN" "http://www.w3.org/Graphics/SVG/1.1/DTD/svg11.dtd"><svg xmlns="http://www.w3.org/2000/svg" xmlns:xlink="http://www.w3.org/1999/xlink" version="1.1" id="Layer_1" x="0px" y="0px" width="91px" height="91px" viewBox="0 0 91 91" xml:space="preserve"><path d="M1.9 37.838c3.06 9.211 10.334 19.739 21.042 30.448 10.709 10.712 21.241 17.988 30.454 21.047 3.206 1.065 6.242 1.59 8.945 1.59 3.563 0 6.539-.926 8.598-2.722 1.467.601 3.049.918 4.683.918a12.24 12.24 0 0 0 8.711-3.606c3.642-3.645 4.519-9.022 2.635-13.503.246-.11.478-.258.681-.461 3.523-3.524 4.095-10.251 1.523-17.99-3.059-9.211-10.333-19.744-21.045-30.456C43.2-1.821 25.495-2.229 19.682 3.583a2.24 2.24 0 0 0-.456.673 12.293 12.293 0 0 0-4.796-.97c-3.29 0-6.384 1.283-8.711 3.611a12.24 12.24 0 0 0-3.606 8.71c0 1.631.317 3.21.917 4.675C-.134 23.906-.571 30.398 1.9 37.838zM64.982 26.25c12.914 12.918 17.986 22.745 19.969 28.71 2.361 7.109 1.358 11.554-.385 13.375-.079-.081-.146-.168-.226-.247L23.146 6.898c-.082-.081-.171-.151-.252-.229C26.699 3.04 41.815 3.086 64.982 26.25zM8.863 10.042a7.825 7.825 0 0 1 5.566-2.307A7.83 7.83 0 0 1 20 10.044l61.193 61.189c3.067 3.069 3.065 8.064-.005 11.133a7.822 7.822 0 0 1-5.565 2.307 7.81 7.81 0 0 1-5.563-2.304L8.869 21.174a7.822 7.822 0 0 1-2.308-5.568c0-2.102.814-4.077 2.302-5.564zM5.67 24.261c.018.02.033.04.054.058l61.188 61.197c.019.019.038.031.053.048-2.262 1.155-6.31 1.49-12.169-.453-5.967-1.983-15.792-7.056-28.708-19.972C13.175 52.228 8.104 42.403 6.121 36.434c-1.944-5.858-1.607-9.909-.451-12.173z"/><path d="M23.514 26.924l.019-.001c2.7.009 4.896 2.178 4.937 4.851 0 .034-.01.064-.01.098 0 2.508.977 4.867 2.75 6.639a9.31 9.31 0 0 0 6.647 2.745h.008a4.944 4.944 0 0 1 4.942 4.854c0 .034-.01.065-.01.097.005 5.173 4.214 9.382 9.386 9.387h.003l.023-.002c2.703.011 4.899 2.185 4.935 4.866-.003.026-.01.057-.01.083a9.334 9.334 0 0 0 2.75 6.639 9.301 9.301 0 0 0 6.604 2.746h.052c2.731.005 4.951 2.216 4.948 4.934 0 1.229.996 2.226 2.224 2.226h.002a2.222 2.222 0 0 0 2.224-2.223c.003-5.166-4.208-9.377-9.391-9.387h-.006l-.025.002-.018-.002a4.894 4.894 0 0 1-3.469-1.441 4.911 4.911 0 0 1-1.439-3.426c0-.03.008-.055.008-.084.002-5.131-4.156-9.313-9.294-9.376-.01-.002-.019-.005-.027-.005h-.161a4.946 4.946 0 0 1-4.863-4.86c.003-.032.01-.064.01-.098 0-5.121-4.137-9.292-9.25-9.373-.008 0-.015-.004-.021-.004-.048-.002-.097-.005-.145-.005h-.007a4.894 4.894 0 0 1-3.484-1.442 4.917 4.917 0 0 1-1.439-3.411c.002-.033.011-.063.011-.098.002-5.162-4.21-9.373-9.393-9.385h-.005c-.018 0-.035.005-.056.005-.011 0-.024-.005-.033-.003a4.946 4.946 0 0 1-4.867-4.938 2.225 2.225 0 0 0-4.448 0c0 5.18 4.21 9.392 9.388 9.392z"/><metadata><rdf:RDF xmlns:rdf="http://www.w3.org/1999/02/22-rdf-syntax-ns#" xmlns:rdfs="http://www.w3.org/2000/01/rdf-schema#" xmlns:dc="http://purl.org/dc/elements/1.1/"><rdf:Description about="https://iconscout.com/legal#licenses" dc:title="food,hot,dog" dc:description="food,hot,dog" dc:publisher="Iconscout" dc:date="2018-04-15" dc:format="image/svg+xml" dc:language="en"><dc:creator><rdf:Bag><rdf:li>BomSymbols .</rdf:li></rdf:Bag></dc:creator></rdf:Description></rdf:RDF></metadata></svg>