<?xml version="1.0" encoding="UTF-8"?><!DOCTYPE svg PUBLIC "-//W3C//DTD SVG 1.1//EN" "http://www.w3.org/Graphics/SVG/1.1/DTD/svg11.dtd"><svg xmlns="http://www.w3.org/2000/svg" xmlns:xlink="http://www.w3.org/1999/xlink" version="1.1" id="Layer_1" x="0px" y="0px" width="91px" height="91px" viewBox="0 0 91 91" xml:space="preserve"><path d="M66.213.719C58.795.374 36.025-.489 15.842 27.802 9.804 36.256-2.789 57.646 6.699 77.484a414.206 414.206 0 0 0-5.175 5.694c-1.035 1.205-1.035 3.104.173 4.139.517.517 1.207.69 1.897.69.862 0 1.553-.346 2.243-1.036 4.485-5.002 12.593-13.627 21.391-22.77 5.692 3.45 10.868 4.83 17.251 4.83 1.38 0 2.76 0 4.313-.174 1.553-.172 2.758-1.552 2.588-3.104-.172-1.552-1.553-2.76-3.105-2.588-6.556.518-11.386-.346-16.733-3.276 13.11-13.457 26.911-27.602 33.294-33.984 1.207-1.208 1.207-2.933 0-4.141-1.209-1.207-2.934-1.207-4.139 0-4.832 4.831-13.113 13.284-22.255 22.6-.517-3.969-.172-8.971 1.035-11.559.69-1.553 0-3.278-1.38-3.968-1.552-.69-3.277 0-3.967 1.38-2.242 4.658-2.415 13.455-.517 18.803v.173c-7.936 8.108-16.043 16.561-22.426 23.46-6.383-16.56 4.313-34.328 9.488-41.572C37.06 7.964 54.482 6.067 66.041 6.584c5.348.173 10.869 2.933 14.318 6.9 1.898 2.242 4.141 5.693 3.795 10.35-.346 5.521-4.313 10.35-7.592 13.455-6.381 5.866-14.488 9.833-22.943 11.386-1.551.345-2.758 1.727-2.412 3.451.342 1.551 1.725 2.76 3.449 2.414 5.693-.863 11.385-2.934 16.389-5.865 2.588 4.657 5.518 13.111 1.035 21.22-5.693 10.177-21.393 16.732-32.26 13.455-1.552-.518-7.418-2.417-13.628-6.729-1.379-.862-3.105-.518-4.14.863-.863 1.381-.517 3.106.862 4.14 4.658 3.105 10.351 6.038 15.181 7.417 2.416.691 5.175 1.209 7.937 1.209 12.076 0 25.531-7.071 31.223-17.251 4.484-8.108 4.141-17.94-1.209-27.256 1.555-1.208 3.279-2.415 4.658-3.795 5.693-5.348 8.973-11.386 9.488-17.251.346-5.175-1.553-10.35-5.346-14.663A24.592 24.592 0 0 0 66.213.719z"/><metadata><rdf:RDF xmlns:rdf="http://www.w3.org/1999/02/22-rdf-syntax-ns#" xmlns:rdfs="http://www.w3.org/2000/01/rdf-schema#" xmlns:dc="http://purl.org/dc/elements/1.1/"><rdf:Description about="https://iconscout.com/legal#licenses" dc:title="food,leaf" dc:description="food,leaf" dc:publisher="Iconscout" dc:date="2018-04-15" dc:format="image/svg+xml" dc:language="en"><dc:creator><rdf:Bag><rdf:li>BomSymbols .</rdf:li></rdf:Bag></dc:creator></rdf:Description></rdf:RDF></metadata></svg>