<?xml version="1.0" encoding="UTF-8"?><!DOCTYPE svg PUBLIC "-//W3C//DTD SVG 1.1//EN" "http://www.w3.org/Graphics/SVG/1.1/DTD/svg11.dtd"><svg xmlns="http://www.w3.org/2000/svg" xmlns:xlink="http://www.w3.org/1999/xlink" version="1.1" id="Layer_1" x="0px" y="0px" width="91px" height="91px" viewBox="0 0 91 91" xml:space="preserve"><path d="M85.083 37.353c3.161-3.637 4.9-8.695 5.058-14.071 0-6.799-2.687-12.965-7.429-16.917C77.967 2.412 71.328.99 64.688 2.412c-4.427.949-8.38 3.004-11.384 6.008-.948-1.738-2.373-3.32-4.11-4.744A15.256 15.256 0 0 0 36.071.831c-5.849 1.581-10.435 6.956-11.699 13.122-4.111-2.687-9.486-3.477-14.071-1.581C3.503 15.219-.134 24.863.341 32.135v.159c.949 12.333 6.482 24.032 16.126 34.15-2.213 2.846-4.426 5.69-6.324 8.538-.79 1.265-.474 2.846.791 3.793.473.317.949.476 1.423.476.79 0 1.739-.476 2.213-1.266 5.06-7.43 11.7-15.336 18.973-22.765 8.063.473 20.236 4.425 23.874 6.797.474.317.948.475 1.422.475.949 0 1.74-.475 2.215-1.265.79-1.265.473-2.846-.791-3.636-3.953-2.53-13.755-5.693-21.819-6.957 4.902-4.586 9.802-9.013 14.862-12.807 3.952-.159 6.324 0 8.695 1.739.474.316.949.474 1.581.474.79 0 1.74-.474 2.214-1.106.79-1.266.631-2.847-.634-3.795-1.58-1.107-3.318-1.898-5.059-2.214 4.111-2.846 8.064-5.217 11.857-7.114 1.266-.633 1.897-2.214 1.266-3.636-.632-1.265-2.214-1.897-3.637-1.265-6.957 3.478-14.545 8.537-22.293 14.703.317-3.636-.473-6.641-2.212-9.486-.791-1.265-2.371-1.581-3.637-.79-1.265.79-1.582 2.371-.791 3.636 1.423 2.371 2.372 5.376 0 12.332-7.431 6.483-14.545 13.756-20.711 21.029-8.539-9.172-13.439-19.605-14.23-30.356v-.158c-.316-5.375 2.372-12.648 6.64-14.387 4.427-1.739 10.118.317 12.174 4.585.632 1.265 2.055 1.739 3.32 1.265 1.265-.475 2.055-1.739 1.738-3.004-1.106-6.008 2.53-12.49 8.063-14.072 2.688-.79 5.85 0 8.38 1.898 2.212 1.739 3.479 4.11 3.479 6.481 0 1.265.79 2.372 2.056 2.688 1.264.317 2.528-.315 3.002-1.423 2.058-3.952 6.167-6.956 11.227-8.063 4.9-1.106 9.96 0 13.438 2.846 3.479 2.845 5.533 7.588 5.374 12.648 0 5.059-2.212 9.802-5.69 12.489-.791.633-1.107 1.582-.949 2.53.158.948.792 1.739 1.739 2.055 3.479 1.264 5.691 5.217 5.06 8.853-.632 3.637-4.111 6.482-7.747 6.482-1.265 0-2.529.948-2.688 2.213-.157 1.267.634 2.531 1.898 3.005 4.269 1.265 7.588 5.851 7.588 10.434 0 1.898-1.422 6.009-5.216 9.486-2.53 2.214-6.799 4.902-13.28 4.27-6.01-.475-9.486-2.372-23.558-10.277-2.055-1.107-4.427-2.371-6.957-3.793-1.265-.791-3.003-.316-3.637 1.104-.791 1.267-.316 3.005 1.107 3.639 2.53 1.421 4.901 2.687 6.957 3.793 14.703 8.222 18.497 10.437 25.771 10.909.791 0 1.581.158 2.213.158 7.114 0 12.174-3.004 15.179-5.85 4.743-4.268 6.955-9.802 6.955-13.439 0-4.742-2.055-9.169-5.533-12.172 3.321-1.897 5.692-5.219 6.484-9.013.63-4.901-1.425-9.801-5.219-12.805z"/><metadata><rdf:RDF xmlns:rdf="http://www.w3.org/1999/02/22-rdf-syntax-ns#" xmlns:rdfs="http://www.w3.org/2000/01/rdf-schema#" xmlns:dc="http://purl.org/dc/elements/1.1/"><rdf:Description about="https://iconscout.com/legal#licenses" dc:title="food,leaf" dc:description="food,leaf" dc:publisher="Iconscout" dc:date="2018-04-15" dc:format="image/svg+xml" dc:language="en"><dc:creator><rdf:Bag><rdf:li>BomSymbols .</rdf:li></rdf:Bag></dc:creator></rdf:Description></rdf:RDF></metadata></svg>