<?xml version="1.0" encoding="UTF-8"?><!DOCTYPE svg PUBLIC "-//W3C//DTD SVG 1.1//EN" "http://www.w3.org/Graphics/SVG/1.1/DTD/svg11.dtd"><svg xmlns="http://www.w3.org/2000/svg" xmlns:xlink="http://www.w3.org/1999/xlink" version="1.1" id="Layer_1" x="0px" y="0px" width="91px" height="91px" viewBox="0 0 91 91" xml:space="preserve"><path d="M72.82 4.905c-9.327-4.11-20.867-3.793-30.825.791-9.01 4.269-16.598 11.539-22.288 21.34-3.793 6.481-11.855 26.873-6.006 45.683C9.59 76.67 5.48 80.781 1.213 84.732c-1.106.947-1.106 2.688-.158 3.793.474.475 1.264.791 1.896.791.633 0 1.265-.316 1.897-.791 4.269-4.109 8.536-8.219 12.804-12.33.632-.314 1.264-.791 1.423-1.422 5.216-5.059 10.433-10.273 15.648-15.176.159-.156.475-.475.632-.631a52.38 52.38 0 0 0 12.171 1.422c1.424 0 3.004 0 4.426-.158 1.424-.156 2.53-1.422 2.53-2.846-.159-1.422-1.423-2.529-2.846-2.529-3.793.316-7.745.16-11.54-.473 3.636-3.479 7.272-7.115 10.908-10.591h.157l18.021 1.106h.158c1.423 0 2.53-1.106 2.688-2.528.158-1.423-1.106-2.688-2.528-2.846l-13.12-.79c1.739-1.739 3.478-3.478 5.374-5.058 1.107-1.107 1.107-2.688 0-3.794-1.106-1.106-2.687-1.106-3.794 0L46.105 41.262a117.596 117.596 0 0 1-2.845-14.859c-.157-1.422-1.581-2.529-3.003-2.371-1.423.158-2.53 1.581-2.372 3.003.791 6.165 2.056 12.488 3.793 18.494-3.477 3.478-7.113 6.796-10.59 10.275-4.268 4.27-8.694 8.535-13.121 12.803-3.318-14.541 1.739-30.98 6.166-38.727 5.058-8.694 12.013-15.333 19.917-18.969 8.694-4.109 18.495-4.426 26.398-.791 8.378 3.794 14.228 12.014 14.543 20.549.474 9.01-5.532 17.388-10.591 22.763-11.382 12.33-29.875 23.395-44.893 20.232-1.422-.314-2.846.635-3.162 2.057-.316 1.422.632 2.844 2.055 3.16 2.213.475 4.427.633 6.798.633 16.439 0 33.196-11.539 43.311-22.445 8.22-8.852 12.331-18.179 12.172-26.873C90.05 19.764 83.094 9.489 72.82 4.905z"/><metadata><rdf:RDF xmlns:rdf="http://www.w3.org/1999/02/22-rdf-syntax-ns#" xmlns:rdfs="http://www.w3.org/2000/01/rdf-schema#" xmlns:dc="http://purl.org/dc/elements/1.1/"><rdf:Description about="https://iconscout.com/legal#licenses" dc:title="food,leaf" dc:description="food,leaf" dc:publisher="Iconscout" dc:date="2018-04-15" dc:format="image/svg+xml" dc:language="en"><dc:creator><rdf:Bag><rdf:li>BomSymbols .</rdf:li></rdf:Bag></dc:creator></rdf:Description></rdf:RDF></metadata></svg>