<?xml version="1.0" encoding="UTF-8"?><!DOCTYPE svg PUBLIC "-//W3C//DTD SVG 1.1//EN" "http://www.w3.org/Graphics/SVG/1.1/DTD/svg11.dtd"><svg xmlns="http://www.w3.org/2000/svg" xmlns:xlink="http://www.w3.org/1999/xlink" version="1.1" id="Layer_1" x="0px" y="0px" width="91px" height="91px" viewBox="0 0 91 91" xml:space="preserve"><path d="M74.503 63.055l-9.168-7.176c.611-2.707.007-5.319-1.822-7.566-3.667-4.516-4.475-9.861-5.327-15.518-1.234-8.179-2.635-17.447-12.976-25.561C39.496 2.75 33.622.475 27.75.475c-10.784 0-17.587 7.637-17.843 7.931-.453.502-11.145 12.455-9.183 26.733 1.195 8.699 6.791 16.238 16.639 22.415l.19.107c.793.394 19.509 9.613 25.109 11.342 2.517.776 4.59 1.14 6.516 1.14 1.673 0 3.224-.298 4.659-.872l10.333 6.487c-.415 3.098-.577 9.885 5.212 13.054a10.145 10.145 0 0 0 4.869 1.247c2.438 0 4.848-.877 6.731-2.575 2.299-2.073 3.341-4.933 2.968-7.868 1.825-.451 4.156-1.421 5.547-3.49.916-1.368 1.737-3.74.447-7.275-2.644-7.267-10.683-7.095-15.441-5.796zm-17.452-2.412l-.202.328c-2.635 4.341-5.64 4.841-7.668 4.841-1.483 0-3.146-.301-5.24-.945-5.074-1.565-22.872-10.304-24.37-11.039-8.639-5.445-13.537-11.919-14.552-19.25-1.701-12.258 7.999-23.154 8.119-23.285.057-.064 5.84-6.484 14.614-6.484 4.88 0 9.855 1.962 14.787 5.833 8.988 7.055 10.14 14.703 11.364 22.802.903 5.981 1.837 12.169 6.249 17.601.872 1.069 1.841 2.826.244 5.722-1.156 2.102-3.033 3.626-3.045 3.639l-.3.237zm28.857 13.06c-.991 1.485-3.834 1.94-4.744 1.983a2.165 2.165 0 0 0-1.911 3.002c1.245 2.962-.402 4.888-1.165 5.576-1.504 1.356-4.135 2.112-6.626.747-4.532-2.48-2.819-9.719-2.802-9.786a2.16 2.16 0 0 0-.951-2.36l-9.888-6.206a16.617 16.617 0 0 0 2.539-3.132 19.071 19.071 0 0 0 3.149-3.578l9.215 7.211a2.193 2.193 0 0 0 2.045.343c.362-.129 8.975-3.025 11.108 2.828.537 1.462.545 2.599.031 3.372z"/><path d="M37.193 12.542C28.317 7.5 21.117 11.315 18.55 14.035a2.169 2.169 0 0 0 .086 3.062c.42.394.953.589 1.488.589.574 0 1.148-.226 1.574-.678.049-.054 5.184-5.34 13.355-.699a2.166 2.166 0 0 0 2.14-3.767z"/><path d="M41.165 15.953a2.655 2.655 0 0 0-2.649 2.652 2.657 2.657 0 0 0 2.649 2.652 2.657 2.657 0 0 0 2.652-2.652 2.655 2.655 0 0 0-2.652-2.652z"/><metadata><rdf:RDF xmlns:rdf="http://www.w3.org/1999/02/22-rdf-syntax-ns#" xmlns:rdfs="http://www.w3.org/2000/01/rdf-schema#" xmlns:dc="http://purl.org/dc/elements/1.1/"><rdf:Description about="https://iconscout.com/legal#licenses" dc:title="food,chicken,leg" dc:description="food,chicken,leg" dc:publisher="Iconscout" dc:date="2018-04-15" dc:format="image/svg+xml" dc:language="en"><dc:creator><rdf:Bag><rdf:li>BomSymbols .</rdf:li></rdf:Bag></dc:creator></rdf:Description></rdf:RDF></metadata></svg>