<?xml version="1.0" encoding="UTF-8"?><!DOCTYPE svg PUBLIC "-//W3C//DTD SVG 1.1//EN" "http://www.w3.org/Graphics/SVG/1.1/DTD/svg11.dtd"><svg xmlns="http://www.w3.org/2000/svg" xmlns:xlink="http://www.w3.org/1999/xlink" version="1.1" id="Layer_1" x="0px" y="0px" width="91px" height="91px" viewBox="0 0 91 91" xml:space="preserve"><path d="M73.127.929a2.16 2.16 0 0 0-2.576.635c-1.568 1.987-2.265 5.036-2.525 8.072a2.155 2.155 0 0 0-1.99-.263c-.294.106-7.121 2.712-7.121 11.223 0 6.129 5.361 11.061 8.241 13.27-1.332 1.638-3.627 2.83-5.093 3.419-2.073-6.46-7.38-11.556-14.122-13.224.196-13.037 8.354-17.677 8.734-17.886a2.16 2.16 0 0 0-2.032-3.813c-.33.177-6.076 3.346-9.144 11.345-3.065-7.998-8.814-11.167-9.143-11.344a2.153 2.153 0 0 0-2.908.891 2.165 2.165 0 0 0 .875 2.922c.352.193 8.541 4.827 8.734 17.884-6.744 1.668-12.049 6.765-14.122 13.226-1.434-.581-3.747-1.781-5.09-3.422 2.884-2.209 8.239-7.141 8.239-13.268 0-8.51-6.828-11.116-7.121-11.223a2.155 2.155 0 0 0-1.99.263c-.261-3.036-.958-6.083-2.526-8.072a2.16 2.16 0 0 0-2.576-.635c-.532.239-13.035 5.959-13.035 18.967 0 10.137 9.094 14.347 14.749 15.365 2.209 3.865 7.016 5.803 8.471 6.314-.05.569-.081 1.145-.081 1.726 0 4.512 1.549 8.71 4.15 12.082a12.188 12.188 0 0 0-.193 2.024c0 1.345.221 2.646.625 3.884a12.474 12.474 0 0 0-.625 3.845c0 3.5 1.469 6.734 3.901 9.189-2.194 1.747-5.292 4.766-5.796 8.203-.286 1.953.289 3.812 1.659 5.371 2.117 2.411 5.095 3.331 8.17 2.518 2.208-.58 4.213-1.991 5.634-3.833 1.423 1.841 3.427 3.253 5.637 3.833.732.194 1.459.29 2.171.29 2.274 0 4.386-.972 5.998-2.808 1.371-1.56 1.943-3.416 1.66-5.371-.503-3.438-3.601-6.456-5.797-8.203 2.433-2.456 3.902-5.69 3.902-9.189 0-1.298-.219-2.588-.626-3.845.402-1.237.626-2.539.626-3.884 0-.668-.08-1.348-.194-2.024 2.6-3.371 4.148-7.57 4.148-12.082 0-.581-.03-1.157-.08-1.726 1.454-.51 6.261-2.449 8.47-6.314 5.657-1.018 14.749-5.229 14.749-15.365C86.161 6.889 73.658 1.168 73.127.929zM20.434 31.017c-2.648-.484-11.278-2.713-11.278-11.121 0-7.687 5.738-12.224 8.724-14.064 1.221 3.433 1.003 9.556.479 13.173a2.16 2.16 0 0 0 4.092 1.229l2.698-5.736c1.206 1.039 2.614 2.929 2.614 6.098.001 4.395-4.807 8.661-7.329 10.421zm36.254 52.136c.101.7-.092 1.283-.63 1.896-1.038 1.182-2.324 1.584-3.824 1.188-2.098-.551-4.017-2.573-4.465-4.705a2.132 2.132 0 0 0-.606-1.104l-.156-.151a2.16 2.16 0 0 0-3.021.003l-.156.153a2.16 2.16 0 0 0-.601 1.099c-.447 2.132-2.364 4.155-4.465 4.705-1.502.396-2.785-.007-3.822-1.188-.539-.611-.732-1.196-.631-1.894.3-2.08 3.031-4.648 5.132-6.155a16.243 16.243 0 0 0 5.805 1.818 1.902 1.902 0 0 0 .498 0 16.17 16.17 0 0 0 5.8-1.816c1.79 1.289 4.81 3.891 5.142 6.151zM41.13 70.063l.125.048c.354.135.715.257 1.083.368.08.024.156.05.236.072.343.1.695.185 1.047.26.097.022.188.048.284.067.437.088.88.159 1.33.211.005 0 .01.003.016.003a2.111 2.111 0 0 0 .501 0c.007 0 .012-.003.018-.003.449-.052.891-.123 1.328-.211.098-.02.192-.047.292-.069.35-.074.695-.158 1.033-.256.085-.024.17-.052.251-.079.36-.106.714-.229 1.061-.359.052-.018.102-.04.151-.061.389-.151.768-.316 1.14-.499l.016-.007a15.09 15.09 0 0 0 3.417-2.256c-1.003 3.68-4.51 6.597-8.959 7.204-4.448-.607-7.955-3.523-8.958-7.202 1.32 1.167 2.879 2.101 4.588 2.769zm-4.573-10.442c.055.039.117.066.172.104.558.38 1.137.732 1.731 1.053.149.079.303.146.454.22.485.244.976.473 1.482.678.213.084.427.164.646.242.477.176.962.329 1.456.468.203.057.404.119.613.168.688.17 1.39.313 2.106.407a2.01 2.01 0 0 0 .563 0c.718-.095 1.42-.239 2.109-.407.203-.049.404-.111.605-.168.5-.139.988-.292 1.47-.47.211-.078.422-.152.631-.24.519-.21 1.024-.443 1.521-.694.136-.069.277-.129.411-.199a20.206 20.206 0 0 0 1.753-1.066c.052-.033.108-.062.161-.099a8.992 8.992 0 0 1-.727 1.732 8.141 8.141 0 0 1-.752 1.18 9.906 9.906 0 0 1-.934 1.076 11.755 11.755 0 0 1-1.088.943c-.13.098-.266.186-.401.278-.261.181-.525.354-.807.513-.151.086-.312.16-.465.237-.278.141-.557.282-.847.401-.215.087-.438.156-.661.23-.248.084-.491.179-.747.249-.491.131-.995.24-1.516.31a11.973 11.973 0 0 1-1.514-.31c-.253-.07-.497-.162-.742-.246-.227-.077-.454-.146-.67-.235a10.608 10.608 0 0 1-.826-.391c-.164-.081-.333-.16-.491-.25-.269-.151-.524-.32-.777-.493-.146-.1-.295-.196-.437-.304a10.587 10.587 0 0 1-.667-.558 11.24 11.24 0 0 1-.422-.392 10.401 10.401 0 0 1-1.357-1.69 12.154 12.154 0 0 1-.32-.56 8.517 8.517 0 0 1-.325-.666 8.598 8.598 0 0 1-.391-1.051zm16.682-4.537c-.085.074-.168.156-.257.23-.205.169-.427.323-.645.481-.152.113-.301.235-.46.344-.186.128-.382.239-.575.354-.199.125-.394.252-.597.364-.175.099-.359.183-.539.273-.229.117-.455.24-.692.344-.177.08-.358.144-.541.217-.246.1-.49.202-.74.287-.208.072-.427.127-.64.191-.229.067-.454.14-.686.198-.449.108-.905.2-1.369.271a16.426 16.426 0 0 1-1.37-.271c-.198-.05-.393-.115-.588-.172-.248-.073-.5-.136-.742-.219-.207-.073-.404-.158-.609-.239-.226-.09-.456-.169-.677-.268-.181-.082-.354-.177-.531-.267-.236-.113-.474-.226-.702-.353-.136-.076-.263-.163-.398-.241-.263-.157-.526-.311-.777-.481-.069-.047-.133-.104-.203-.152-4.011-2.832-6.606-7.493-6.606-12.677 0-7.657 5.656-14.202 13.204-15.336 7.546 1.135 13.204 7.679 13.204 15.336 0 4.673-2.111 8.92-5.464 11.786zm17.32-24.07c-2.521-1.763-7.325-6.023-7.325-10.418 0-3.172 1.409-5.063 2.615-6.098l2.698 5.736a2.16 2.16 0 0 0 4.09-1.232c-.527-3.611-.747-9.721.473-13.161 2.98 1.858 8.729 6.434 8.729 14.055.003 8.358-8.629 10.621-11.28 11.118z"/><metadata><rdf:RDF xmlns:rdf="http://www.w3.org/1999/02/22-rdf-syntax-ns#" xmlns:rdfs="http://www.w3.org/2000/01/rdf-schema#" xmlns:dc="http://purl.org/dc/elements/1.1/"><rdf:Description about="https://iconscout.com/legal#licenses" dc:title="food,lobster" dc:description="food,lobster" dc:publisher="Iconscout" dc:date="2018-04-15" dc:format="image/svg+xml" dc:language="en"><dc:creator><rdf:Bag><rdf:li>BomSymbols .</rdf:li></rdf:Bag></dc:creator></rdf:Description></rdf:RDF></metadata></svg>