<?xml version="1.0" encoding="UTF-8"?><!DOCTYPE svg PUBLIC "-//W3C//DTD SVG 1.1//EN" "http://www.w3.org/Graphics/SVG/1.1/DTD/svg11.dtd"><svg xmlns="http://www.w3.org/2000/svg" xmlns:xlink="http://www.w3.org/1999/xlink" version="1.1" id="Layer_1" x="0px" y="0px" width="91px" height="91px" viewBox="0 0 91 91" xml:space="preserve"><g fill="#010101"><path d="M45.744.587h-.486C18.696.587 6.675 18.16 6.239 18.818c-.321.433-7.837 10.757-4.951 24.293 3.252 15.27 16.687 16.157 19.746 16.157.209 0 .37-.004.476-.008 2.289.038 5.658-.567 8.682-2.454l-2.76 16.665c-.237.957-1.385 6.489 2.101 11.076 2.959 3.893 8.25 5.864 15.725 5.864h.486c7.478 0 12.77-1.972 15.729-5.864 3.483-4.588 2.334-10.119 2.098-11.076L60.811 56.8c3.024 1.884 6.392 2.487 8.683 2.46 1.652.057 16.748.165 20.228-16.149 2.88-13.537-4.636-23.86-4.891-24.203C84.328 18.162 72.31.587 45.744.587zm21.017 9.267a3.583 3.583 0 0 1-3.579 3.58 3.585 3.585 0 0 1-3.583-3.58c0-1.003.43-1.94 1.147-2.611a44.385 44.385 0 0 1 6.001 2.406c.002.069.014.136.014.205zm-8.813 72.065c-2.09 2.721-6.196 4.098-12.204 4.098h-.485c-6.005 0-10.11-1.377-12.201-4.098-2.442-3.173-1.362-7.377-1.354-7.407l4.02-24.209a16.84 16.84 0 0 0 1.105-3.788c1.74-10.152-4.648-14.533-8.645-15.575 1.942-2.702 6.763-7.329 17.074-7.329 10.188 0 15.482 4.506 17.78 7.272-3.977.937-10.637 5.294-8.864 15.634a17.062 17.062 0 0 0 1.104 3.784l3.972 23.981.046.217c.014.043 1.091 4.247-1.348 7.42zm27.471-39.722C82.568 55.574 70.183 54.908 69.67 54.87l-.113-.008-.103.003c-.38.01-9.375.076-10.948-9.091-1.507-8.786 4.941-10.487 5.667-10.649l.182-.044c1.068-.319 4.599-.916 6.724.467 1.132.737 1.799 1.983 2.03 3.806.164 1.282-.067 2.301-.706 3.113-1.206 1.536-3.688 2.117-4.544 2.213a2.199 2.199 0 0 0-1.955 2.407 2.202 2.202 0 0 0 2.408 1.964c.499-.051 4.943-.589 7.521-3.837 1.382-1.744 1.949-3.962 1.634-6.418-.503-3.908-2.449-5.925-3.994-6.931-1.72-1.118-3.695-1.507-5.462-1.569-1.587-2.615-7.859-11.081-22.756-11.081-14.803 0-20.418 8.366-21.868 11.13-1.59.058-3.393.396-5.06 1.353-2.416 1.387-4.016 3.701-4.757 6.879-.711 3.053.175 5.176 1.042 6.419 2.328 3.337 6.835 3.985 7.342 4.049a2.198 2.198 0 0 0 .552-4.36c-.847-.114-3.271-.731-4.296-2.214-.518-.752-.636-1.699-.358-2.896.458-1.96 1.323-3.287 2.646-4.053 2.568-1.489 6.101-.454 6.125-.446l.205.053c.296.061 7.217 1.602 5.667 10.646-1.571 9.169-10.574 9.092-10.938 9.094l-.113-.003-.104.008c-.532.035-12.905.706-15.754-12.675C3.124 30.655 9.703 21.526 9.83 21.35c.11-.163 11.191-16.365 35.425-16.365h.487c3.81 0 7.287.393 10.444 1.055a7.963 7.963 0 0 0-.987 3.816c0 4.397 3.58 7.974 7.98 7.974 3.668 0 6.758-2.497 7.684-5.876 6.783 4.302 10.09 9.076 10.365 9.481.068.088 6.649 9.217 4.191 20.762z"/><path d="M20.959 13.113a4.45 4.45 0 0 0-4.444 4.446 4.448 4.448 0 0 0 4.444 4.444 4.45 4.45 0 0 0 4.445-4.444 4.45 4.45 0 0 0-4.445-4.446z"/></g><metadata><rdf:RDF xmlns:rdf="http://www.w3.org/1999/02/22-rdf-syntax-ns#" xmlns:rdfs="http://www.w3.org/2000/01/rdf-schema#" xmlns:dc="http://purl.org/dc/elements/1.1/"><rdf:Description about="https://iconscout.com/legal#licenses" dc:title="food,mushroom,slide" dc:description="food,mushroom,slide" dc:publisher="Iconscout" dc:date="2018-04-15" dc:format="image/svg+xml" dc:language="en"><dc:creator><rdf:Bag><rdf:li>BomSymbols .</rdf:li></rdf:Bag></dc:creator></rdf:Description></rdf:RDF></metadata></svg>