<?xml version="1.0" encoding="UTF-8"?><!DOCTYPE svg PUBLIC "-//W3C//DTD SVG 1.1//EN" "http://www.w3.org/Graphics/SVG/1.1/DTD/svg11.dtd"><svg xmlns="http://www.w3.org/2000/svg" xmlns:xlink="http://www.w3.org/1999/xlink" version="1.1" id="Layer_1" x="0px" y="0px" width="91px" height="91px" viewBox="0 0 91 91" xml:space="preserve"><g fill="#010101"><path d="M58.666 14.842c-.055-.023-5.572-2.287-5.572-7.389a2.169 2.169 0 0 0-4.337 0c0 8.004 7.961 11.279 8.313 11.42 12.133 4.767 20.282 16.211 20.282 28.48 0 16.652-14.652 30.72-31.996 30.72s-31.995-14.07-31.995-30.721c0-12.394 8.261-23.882 20.553-28.588l.132-.056c.499-.23 12.2-5.755 12.2-16.141a2.168 2.168 0 0 0-4.336 0c0 7.308-8.865 11.807-9.629 12.179C18.365 20.109 9.023 33.201 9.023 47.352c0 15.973 11.757 29.859 27.202 33.882l-2.942 2.941a2.167 2.167 0 1 0 3.066 3.066l4.967-4.969c.027-.027.047-.06.075-.089.594.066 1.194.115 1.793.152v6.232a2.17 2.17 0 0 0 4.337 0v-6.232a36.795 36.795 0 0 0 1.795-.152c.026.029.047.062.075.089l4.968 4.969c.423.424.978.635 1.532.635s1.109-.211 1.532-.635a2.166 2.166 0 0 0 0-3.066l-2.941-2.941c15.444-4.022 27.204-17.909 27.204-33.882.002-14.037-9.256-27.103-23.02-32.51z"/><path d="M42.949 19.416c0 1.665-2.399 2.185-2.465 2.199-12.877 2.356-22.588 13.421-22.588 25.738 0 14.438 11.746 26.183 26.18 26.183a2.169 2.169 0 1 0 0-4.336c-12.044 0-21.844-9.8-21.844-21.847 0-10.256 8.182-19.486 19.052-21.476 2.075-.4 6-2.266 6-6.459a2.17 2.17 0 0 0-2.169-2.168 2.165 2.165 0 0 0-2.166 2.166z"/><path d="M44.078 29.435c-9.878 0-17.918 8.038-17.918 17.918 0 9.881 8.04 17.922 17.918 17.922a2.172 2.172 0 0 0 2.169-2.171 2.17 2.17 0 0 0-2.169-2.166c-7.489 0-13.581-6.094-13.581-13.584 0-7.489 6.092-13.582 13.581-13.582a2.168 2.168 0 1 0 0-4.337z"/><path d="M44.078 41.838a2.168 2.168 0 0 0 0-4.336c-5.433 0-9.852 4.418-9.852 9.851 0 5.434 4.419 9.854 9.852 9.854a2.17 2.17 0 0 0 2.169-2.166c0-1.197-.973-2.17-2.169-2.17a5.522 5.522 0 0 1-5.515-5.517 5.52 5.52 0 0 1 5.515-5.516z"/><path d="M50.653 73.142c.424.424.979.635 1.534.635.554 0 1.108-.211 1.531-.635 14.22-14.218 14.22-37.357 0-51.579a2.164 2.164 0 0 0-3.065 0 2.166 2.166 0 0 0 0 3.065c12.528 12.531 12.528 32.92 0 45.448a2.167 2.167 0 0 0 0 3.066z"/></g><metadata><rdf:RDF xmlns:rdf="http://www.w3.org/1999/02/22-rdf-syntax-ns#" xmlns:rdfs="http://www.w3.org/2000/01/rdf-schema#" xmlns:dc="http://purl.org/dc/elements/1.1/"><rdf:Description about="https://iconscout.com/legal#licenses" dc:title="food,onion" dc:description="food,onion" dc:publisher="Iconscout" dc:date="2018-04-15" dc:format="image/svg+xml" dc:language="en"><dc:creator><rdf:Bag><rdf:li>BomSymbols .</rdf:li></rdf:Bag></dc:creator></rdf:Description></rdf:RDF></metadata></svg>