<?xml version="1.0" encoding="UTF-8"?><!DOCTYPE svg PUBLIC "-//W3C//DTD SVG 1.1//EN" "http://www.w3.org/Graphics/SVG/1.1/DTD/svg11.dtd"><svg xmlns="http://www.w3.org/2000/svg" xmlns:xlink="http://www.w3.org/1999/xlink" version="1.1" id="Layer_1" x="0px" y="0px" width="91px" height="91px" viewBox="0 0 91 91" xml:space="preserve"><path d="M5.829 42.579a2.067 2.067 0 0 0 .773 2.493l4.073 2.714-2.357 4.537a2.068 2.068 0 0 0 2.322 2.965c8.681-2.104 20.024-5.968 23.676-15.533 4.073 3.657 9.358 4.858 14.724 4.858 4.675 0 9.409-.908 13.45-1.887a2.078 2.078 0 0 0 1.547-1.622 2.078 2.078 0 0 0-.839-2.079l-4.172-2.956 2.377-4.28a2.072 2.072 0 0 0-.454-2.57l-4.819-4.17 2.406-5.696a2.066 2.066 0 0 0-.725-2.504l-4.173-2.899 2.373-4.614c.37-.72.285-1.59-.214-2.226a2.075 2.075 0 0 0-2.114-.732c-10.081 2.444-20.076 5.719-23.659 15.594-7.705-7.157-18.102-5.474-28.19-3.03a2.071 2.071 0 0 0-.716 3.696l4.22 3.018-2.382 4.485a2.072 2.072 0 0 0 .501 2.56l4.748 3.961-2.376 5.917zM7.401 30.6l2.444-4.602a2.066 2.066 0 0 0-.624-2.654l-1.918-1.372c10.025-1.96 17.038-1.298 22.076 5.456.047.063.102.114.157.171.03.036.06.073.095.106.067.061.138.11.21.162.037.026.073.057.114.083.074.046.155.082.232.118.045.02.086.044.13.06.088.033.18.053.271.074.038.009.074.024.112.03l.017.001c.067.012.135.01.205.015a2.039 2.039 0 0 0 1.654-.676c.012-.012.022-.027.031-.04.077-.089.147-.182.207-.285.012-.021.022-.044.033-.064.052-.097.1-.194.138-.3.01-.024.012-.049.019-.073.028-.091.06-.181.077-.279 1.387-8.308 7.319-12.109 17.125-14.954l-1.077 2.094a2.07 2.07 0 0 0 .659 2.646l4.284 2.974-2.34 5.534a2.068 2.068 0 0 0 .552 2.37l4.687 4.055-2.46 4.433a2.065 2.065 0 0 0 .613 2.692l1.835 1.299c-11.159 2.013-18.023.295-21.97-5.377-.007-.012-.019-.022-.028-.034-.044-.062-.097-.118-.149-.175-.041-.045-.079-.091-.125-.131-.05-.046-.107-.085-.162-.127-.052-.039-.103-.081-.159-.115-.055-.033-.115-.059-.172-.087-.064-.03-.126-.064-.189-.088-.055-.02-.115-.032-.169-.047-.077-.021-.152-.042-.229-.054-.017-.001-.028-.009-.045-.01-.042-.006-.087-.001-.13-.003-.077-.005-.152-.011-.23-.007-.065.002-.127.012-.188.021-.072.01-.14.019-.212.036-.062.015-.122.037-.18.057-.067.023-.135.046-.2.077-.06.027-.114.062-.172.094-.044.026-.095.047-.14.078-.017.011-.025.024-.043.036-.05.036-.092.079-.14.12-.055.05-.115.098-.165.152-.038.042-.069.089-.102.134-.048.061-.098.12-.135.185-.03.051-.055.108-.083.163-.031.065-.065.128-.09.195-.022.058-.033.122-.05.183-.02.071-.04.14-.05.21-.005.017-.01.032-.012.049-.911 6.854-6.227 11.521-17.07 14.837l1.037-1.992a2.072 2.072 0 0 0-.689-2.679L10.3 42.561l2.31-5.752a2.069 2.069 0 0 0-.594-2.361L7.401 30.6z"/><path d="M25.189 34.594c.159 0 .324-.019.487-.058l14.465-3.503a2.07 2.07 0 0 0-.975-4.024l-14.465 3.503a2.07 2.07 0 0 0 .488 4.082z"/><path d="M35.329 47.352c-.811 0-1.546.477-1.883 1.21a2.08 2.08 0 0 0 .316 2.216l3.393 3.923-3.374 3.795a2.072 2.072 0 0 0-.117 2.606l3.683 4.969-3.705 5.191a2.073 2.073 0 0 0 .165 2.606l3.322 3.598-3.36 3.856a2.065 2.065 0 0 0 1.559 3.427c8.935 0 20.877-1.09 26.674-9.539 5.794 8.449 17.738 9.539 26.674 9.539a2.068 2.068 0 1 0 1.56-3.427l-3.357-3.856 3.319-3.598a2.07 2.07 0 0 0 .161-2.606l-3.701-5.191 3.68-4.969a2.068 2.068 0 0 0-.117-2.606L86.848 54.7l3.391-3.925a2.066 2.066 0 0 0 .317-2.214 2.074 2.074 0 0 0-1.882-1.21c-10.377 0-20.867.833-26.672 9.597-5.805-8.763-16.295-9.596-26.673-9.596zM62.02 63.337c.133 0 .264-.016.393-.04.009 0 .017-.005.025-.008.126-.024.248-.065.366-.115l.01-.002c.023-.01.043-.025.066-.035.098-.047.192-.095.283-.156.033-.025.064-.05.095-.077.076-.058.15-.114.217-.184.03-.029.055-.066.083-.1.06-.066.119-.135.171-.214.024-.037.043-.08.066-.121.038-.069.081-.131.112-.205 3.305-7.746 9.966-10.042 20.166-10.494l-1.54 1.781a2.066 2.066 0 0 0 .019 2.727l3.462 3.895-3.578 4.829a2.07 2.07 0 0 0-.021 2.432l3.6 5.045-3.436 3.728a2.074 2.074 0 0 0-.041 2.764l1.48 1.697c-11.32-.67-17.584-3.954-20.083-10.401-.007-.017-.021-.033-.025-.053-.022-.052-.05-.1-.077-.152-.038-.071-.074-.143-.12-.206-.023-.038-.055-.073-.082-.107a1.697 1.697 0 0 0-.175-.204c-.027-.026-.06-.051-.09-.078a1.893 1.893 0 0 0-.222-.177c-.033-.021-.068-.037-.104-.06a1.894 1.894 0 0 0-.259-.129.198.198 0 0 0-.031-.019c-.029-.012-.063-.014-.098-.024a2.295 2.295 0 0 0-.256-.073 1.253 1.253 0 0 0-.174-.021 1.59 1.59 0 0 0-.219-.017c-.071 0-.141.007-.212.014-.06.007-.119.012-.181.023a2.015 2.015 0 0 0-.252.073c-.033.009-.069.014-.103.024l-.03.019a2.057 2.057 0 0 0-.257.129c-.035.02-.071.036-.104.06-.08.053-.152.115-.227.179-.028.023-.06.047-.085.073a2.044 2.044 0 0 0-.181.212c-.025.033-.053.063-.076.098-.048.067-.083.14-.121.217-.026.048-.053.096-.074.145-.011.02-.022.033-.028.054-2.499 6.445-8.766 9.729-20.083 10.398l1.479-1.696a2.067 2.067 0 0 0-.04-2.763l-3.438-3.726 3.602-5.046a2.068 2.068 0 0 0-.022-2.435l-3.578-4.826 3.461-3.895a2.071 2.071 0 0 0 .02-2.729l-1.542-1.778c10.2.454 16.862 2.749 20.166 10.494.03.072.074.13.109.197.024.043.045.087.072.13.05.075.104.138.161.202.03.038.06.077.096.111.062.063.127.115.197.17.037.03.075.063.114.091.077.052.163.094.247.134.032.019.062.041.098.055.005.003.012.003.017.005.086.036.177.061.27.083.043.013.082.031.126.038.053.013.107.01.162.017.081.01.161.025.242.025l.012-.002z"/><path d="M52.759 66.051c0 1.142.928 2.067 2.068 2.067h14.881a2.07 2.07 0 0 0 0-4.137H54.827a2.069 2.069 0 0 0-2.068 2.07z"/><metadata><rdf:RDF xmlns:rdf="http://www.w3.org/1999/02/22-rdf-syntax-ns#" xmlns:rdfs="http://www.w3.org/2000/01/rdf-schema#" xmlns:dc="http://purl.org/dc/elements/1.1/"><rdf:Description about="https://iconscout.com/legal#licenses" dc:title="food,pasta" dc:description="food,pasta" dc:publisher="Iconscout" dc:date="2018-04-15" dc:format="image/svg+xml" dc:language="en"><dc:creator><rdf:Bag><rdf:li>BomSymbols .</rdf:li></rdf:Bag></dc:creator></rdf:Description></rdf:RDF></metadata></svg>