<?xml version="1.0" encoding="UTF-8"?><!DOCTYPE svg PUBLIC "-//W3C//DTD SVG 1.1//EN" "http://www.w3.org/Graphics/SVG/1.1/DTD/svg11.dtd"><svg xmlns="http://www.w3.org/2000/svg" xmlns:xlink="http://www.w3.org/1999/xlink" version="1.1" id="Layer_1" x="0px" y="0px" width="91px" height="91px" viewBox="0 0 91 91" xml:space="preserve"><path d="M43.502 56.547a2.222 2.222 0 0 0 1.922 1.109H61.87c.792 0 1.525-.422 1.923-1.109a2.228 2.228 0 0 0 0-2.22l-8.222-14.244a2.223 2.223 0 0 0-3.845 0l-8.225 14.244a2.215 2.215 0 0 0 .001 2.22zm10.147-10.915l4.377 7.587h-8.76l4.383-7.587z"/><path d="M27.502 86.072c5.873 0 10.709-4.512 11.239-10.25l37.683-15.848c.186.882.382 1.752.548 2.669l4.367-.787a90.715 90.715 0 0 0-.751-3.632l8.729-3.673a2.217 2.217 0 0 0 1.324-2.439C81.574 1.832 39.057.419 38.627.412a2.247 2.247 0 0 0-2.088 1.356l-3.683 8.756c-2.142-.316-3.457-.364-3.531-.367l-.088 4.438c.182.003.843.028 1.853.13L.343 87.843a2.222 2.222 0 0 0 2.047 3.079c.291 0 .581-.057.858-.175l17.14-7.205a11.245 11.245 0 0 0 7.114 2.53zm0-4.437c-3.783 0-6.86-3.076-6.86-6.857s3.076-6.854 6.86-6.854c3.78 0 6.855 3.073 6.855 6.854s-3.074 6.857-6.855 6.857zm12.52-76.691c7.22.658 37.809 5.822 45.924 46.213l-6.447 2.71C70.994 23.496 49.18 14.212 37.312 11.393l2.71-6.449zM17.471 79.955L6.542 84.551l29.065-69.105c10.68 2.23 31.717 10.401 39.77 40.158L38.214 71.228c-1.492-4.49-5.726-7.745-10.712-7.745-6.23 0-11.298 5.066-11.298 11.294 0 1.867.465 3.621 1.267 5.178z"/><path d="M41.001 39.535a6.65 6.65 0 0 0 6.644-6.643c0-3.665-2.98-6.645-6.644-6.645s-6.644 2.98-6.644 6.645a6.651 6.651 0 0 0 6.644 6.643zm0-8.848c1.216 0 2.205.99 2.205 2.206 0 1.214-.99 2.204-2.205 2.204a2.208 2.208 0 0 1-2.204-2.204c0-1.217.989-2.206 2.204-2.206z"/><path d="M27.806 53.38c2.009 0 3.643-1.634 3.643-3.643s-1.634-3.644-3.643-3.644c-2.008 0-3.643 1.635-3.643 3.644s1.635 3.643 3.643 3.643zm0-4.437a.794.794 0 1 1 0 1.589.796.796 0 0 1 0-1.589z"/><metadata><rdf:RDF xmlns:rdf="http://www.w3.org/1999/02/22-rdf-syntax-ns#" xmlns:rdfs="http://www.w3.org/2000/01/rdf-schema#" xmlns:dc="http://purl.org/dc/elements/1.1/"><rdf:Description about="https://iconscout.com/legal#licenses" dc:title="food,pizza" dc:description="food,pizza" dc:publisher="Iconscout" dc:date="2018-04-15" dc:format="image/svg+xml" dc:language="en"><dc:creator><rdf:Bag><rdf:li>BomSymbols .</rdf:li></rdf:Bag></dc:creator></rdf:Description></rdf:RDF></metadata></svg>