<?xml version="1.0" encoding="UTF-8"?><!DOCTYPE svg PUBLIC "-//W3C//DTD SVG 1.1//EN" "http://www.w3.org/Graphics/SVG/1.1/DTD/svg11.dtd"><svg xmlns="http://www.w3.org/2000/svg" xmlns:xlink="http://www.w3.org/1999/xlink" version="1.1" id="Layer_1" x="0px" y="0px" width="91px" height="91px" viewBox="0 0 91 91" xml:space="preserve"><path d="M63.438 51.988h4.21v13.008a1.954 1.954 0 1 0 3.908 0V29.354c0-.184-.033-.357-.08-.526l-.036-.114a2.03 2.03 0 0 0-.226-.463c-.004-.007-.012-.013-.017-.021a2.05 2.05 0 0 0-.34-.362 36.192 36.192 0 0 0-.083-.071 2.056 2.056 0 0 0-.456-.259c-.007-.002-.012-.008-.019-.01-.019-.006-.036-.005-.052-.012a1.901 1.901 0 0 0-.454-.097c-.041-.004-.081-.012-.121-.013-.024-.001-.047-.007-.073-.007-.15 0-.295.021-.437.053-.024.006-.053.019-.081.025a1.865 1.865 0 0 0-.416.171c-.032.016-.064.03-.093.048-.148.092-.28.202-.4.33-.009.009-.021.013-.028.023-.311.347-7.586 8.646-6.657 22.117a1.956 1.956 0 0 0 1.951 1.822zm4.21-15.531V48.08h-2.329a28.895 28.895 0 0 1 2.329-11.623z"/><path d="M81.968 27.575c-4.909 0-8.906 4.513-8.906 10.06 0 4.79 2.98 8.801 6.953 9.812v17.375a1.955 1.955 0 0 0 3.909 0V47.446c3.971-1.011 6.948-5.023 6.948-9.812 0-5.546-3.995-10.059-8.904-10.059zm0 16.214c-2.754 0-4.998-2.761-4.998-6.154 0-3.391 2.242-6.151 4.998-6.151s4.996 2.759 4.996 6.151c0 3.393-2.242 6.154-4.996 6.154z"/><path d="M37.542 68.894c11.975 0 21.719-9.743 21.719-21.719s-9.744-21.72-21.719-21.72c-11.976 0-21.72 9.744-21.72 21.72.001 11.975 9.745 21.719 21.72 21.719zm0-39.531c9.82 0 17.81 7.99 17.81 17.812 0 9.82-7.99 17.81-17.81 17.81-9.821 0-17.811-7.989-17.811-17.81 0-9.821 7.991-17.812 17.811-17.812z"/><path d="M37.542 62.441c8.419 0 15.266-6.848 15.266-15.267 0-8.418-6.849-15.268-15.266-15.268s-15.268 6.849-15.268 15.268c.002 8.42 6.851 15.267 15.268 15.267zm0-26.625c6.262 0 11.357 5.095 11.357 11.359 0 6.263-5.095 11.357-11.357 11.357-6.264 0-11.358-5.095-11.358-11.357 0-6.264 5.096-11.359 11.358-11.359z"/><path d="M6.06 45.874v18.947c0 1.078.875 1.952 1.955 1.952s1.954-.874 1.954-1.952V45.874h.192a5.615 5.615 0 0 0 5.606-5.61V29.53a1.953 1.953 0 0 0-3.908 0v10.734c0 .937-.762 1.7-1.698 1.7H5.865a1.7 1.7 0 0 1-1.697-1.7V29.53a1.954 1.954 0 1 0-3.909 0v10.734a5.615 5.615 0 0 0 5.605 5.61h.196z"/><path d="M8.015 39.978a1.954 1.954 0 0 0 1.954-1.954v-8.495a1.954 1.954 0 0 0-3.909 0v8.495c0 1.08.876 1.954 1.955 1.954z"/><metadata><rdf:RDF xmlns:rdf="http://www.w3.org/1999/02/22-rdf-syntax-ns#" xmlns:rdfs="http://www.w3.org/2000/01/rdf-schema#" xmlns:dc="http://purl.org/dc/elements/1.1/"><rdf:Description about="https://iconscout.com/legal#licenses" dc:title="food,place,settings" dc:description="food,place,settings" dc:publisher="Iconscout" dc:date="2018-04-15" dc:format="image/svg+xml" dc:language="en"><dc:creator><rdf:Bag><rdf:li>BomSymbols .</rdf:li></rdf:Bag></dc:creator></rdf:Description></rdf:RDF></metadata></svg>