<?xml version="1.0" encoding="UTF-8"?><!DOCTYPE svg PUBLIC "-//W3C//DTD SVG 1.1//EN" "http://www.w3.org/Graphics/SVG/1.1/DTD/svg11.dtd"><svg xmlns="http://www.w3.org/2000/svg" xmlns:xlink="http://www.w3.org/1999/xlink" version="1.1" id="Layer_1" x="0px" y="0px" width="91px" height="91px" viewBox="0 0 91 91" xml:space="preserve"><path d="M66.117 19.035a27.356 27.356 0 0 1-4.194.347c-4.31 0-7.674-1.268-10-3.77-4.485-4.817-3.968-12.772-3.964-12.849A2.198 2.198 0 0 0 45.767.395C25.603.395 22.932 16.25 22.908 16.41a2.207 2.207 0 0 0-.026.336v36.42c0 5.623 4.576 10.194 10.2 10.194h6.369v22.034a5.426 5.426 0 0 0 5.421 5.419h1.793a5.429 5.429 0 0 0 5.425-5.419V63.361h6.368c5.623 0 10.197-4.571 10.197-10.194V21.208a2.196 2.196 0 0 0-2.538-2.173zM47.688 85.396c0 .562-.459 1.019-1.024 1.019h-1.793a1.021 1.021 0 0 1-1.021-1.019V63.551h3.837v21.845h.001zm16.567-32.229a5.802 5.802 0 0 1-5.796 5.796H33.081a5.803 5.803 0 0 1-5.799-5.796V16.933c.262-1.382 2.592-11.117 16.285-12.064.157 3.317 1.042 9.322 5.111 13.715 3.197 3.449 7.652 5.199 13.241 5.199h.002c.753 0 1.535-.033 2.334-.099v29.483z"/><path d="M37.557 10.508c-4.824 2.97-5.604 7.819-5.634 8.024a2.192 2.192 0 0 0 2.177 2.516 2.213 2.213 0 0 0 2.171-1.842c.021-.125.558-3.084 3.593-4.953a2.2 2.2 0 1 0-2.307-3.745z"/><path d="M34.098 22.955c-1.315 0-2.384 1.069-2.384 2.383s1.069 2.384 2.384 2.384a2.384 2.384 0 0 0 0-4.767z"/><metadata><rdf:RDF xmlns:rdf="http://www.w3.org/1999/02/22-rdf-syntax-ns#" xmlns:rdfs="http://www.w3.org/2000/01/rdf-schema#" xmlns:dc="http://purl.org/dc/elements/1.1/"><rdf:Description about="https://iconscout.com/legal#licenses" dc:title="food,popsicle" dc:description="food,popsicle" dc:publisher="Iconscout" dc:date="2018-04-15" dc:format="image/svg+xml" dc:language="en"><dc:creator><rdf:Bag><rdf:li>BomSymbols .</rdf:li></rdf:Bag></dc:creator></rdf:Description></rdf:RDF></metadata></svg>