<?xml version="1.0" encoding="UTF-8"?><!DOCTYPE svg PUBLIC "-//W3C//DTD SVG 1.1//EN" "http://www.w3.org/Graphics/SVG/1.1/DTD/svg11.dtd"><svg xmlns="http://www.w3.org/2000/svg" xmlns:xlink="http://www.w3.org/1999/xlink" version="1.1" id="Layer_1" x="0px" y="0px" width="91px" height="91px" viewBox="0 0 91 91" xml:space="preserve"><path d="M60.964.572c-8.265 0-13.044 3.572-15.541 7.246C42.913 4.147 38.129.572 29.904.572c-12.508 0-17.077 8.191-17.744 12.522l-.026 45.379c0 4.547 3.698 8.245 8.246 8.245h2.947v18.369a5.64 5.64 0 0 0 5.633 5.634h1.889a5.639 5.639 0 0 0 5.63-5.634V66.718h2.948a8.22 8.22 0 0 0 6.008-2.611 8.206 8.206 0 0 0 6.002 2.611h2.945v18.369a5.642 5.642 0 0 0 5.633 5.634h1.894a5.64 5.64 0 0 0 5.631-5.634V66.718h2.949c4.545 0 8.242-3.698 8.242-8.245V13.437l-.027-.356C78.01 8.755 73.408.572 60.964.572zM31.999 85.087a1.15 1.15 0 0 1-1.149 1.151h-1.888a1.152 1.152 0 0 1-1.151-1.151V66.913h4.188v18.174zm31.058 0a1.15 1.15 0 0 1-1.146 1.151h-1.892a1.153 1.153 0 0 1-1.151-1.151V66.913h4.189v18.174zM74.25 58.473a3.764 3.764 0 0 1-3.76 3.762H51.438a3.767 3.767 0 0 1-3.762-3.762 2.242 2.242 0 1 0-4.483 0 3.767 3.767 0 0 1-3.764 3.762H20.38a3.766 3.766 0 0 1-3.763-3.762v-44.84c.234-1.175 2.155-8.577 13.286-8.577 11.642 0 13.259 8.396 13.319 8.736.005.031.019.06.026.09.016.081.037.157.062.232.021.067.041.132.07.196.028.069.062.134.098.197.036.063.069.124.108.184.042.062.089.119.137.175.043.054.087.105.137.151a3.135 3.135 0 0 0 .329.274 2.837 2.837 0 0 0 .387.206c.064.028.134.052.203.072.076.024.149.044.227.06.03.008.059.018.09.023.038.005.072.003.111.005.084.01.172.013.262.013.056-.003.113-.005.167-.01.054-.005.103 0 .156-.011.043-.007.084-.023.13-.033.046-.01.09-.023.134-.035a2.27 2.27 0 0 0 .297-.105c.03-.016.063-.03.095-.047a2.326 2.326 0 0 0 .592-.434c.036-.038.07-.08.105-.119a2.074 2.074 0 0 0 .354-.578c.027-.064.047-.129.068-.192a1.94 1.94 0 0 0 .063-.235c.005-.031.018-.06.025-.09.053-.356 1.476-8.721 13.312-8.721 10.959 0 13.031 7.44 13.286 8.596v44.818h-.003z"/><path d="M45.437 22.006a2.243 2.243 0 0 0-2.243 2.239v22.952a2.243 2.243 0 0 0 4.483 0V24.246a2.241 2.241 0 0 0-2.24-2.24z"/><metadata><rdf:RDF xmlns:rdf="http://www.w3.org/1999/02/22-rdf-syntax-ns#" xmlns:rdfs="http://www.w3.org/2000/01/rdf-schema#" xmlns:dc="http://purl.org/dc/elements/1.1/"><rdf:Description about="https://iconscout.com/legal#licenses" dc:title="food,popsicles" dc:description="food,popsicles" dc:publisher="Iconscout" dc:date="2018-04-15" dc:format="image/svg+xml" dc:language="en"><dc:creator><rdf:Bag><rdf:li>BomSymbols .</rdf:li></rdf:Bag></dc:creator></rdf:Description></rdf:RDF></metadata></svg>