<?xml version="1.0" encoding="UTF-8"?><!DOCTYPE svg PUBLIC "-//W3C//DTD SVG 1.1//EN" "http://www.w3.org/Graphics/SVG/1.1/DTD/svg11.dtd"><svg xmlns="http://www.w3.org/2000/svg" xmlns:xlink="http://www.w3.org/1999/xlink" version="1.1" id="Layer_1" x="0px" y="0px" width="91px" height="91px" viewBox="0 0 91 91" xml:space="preserve"><path d="M82.537 26.977c-4.193-3.147-9.832-3.933-15.47-2.36-.655-.525-1.179-.918-1.834-1.311-3.672-1.967-7.998-1.705-11.405.655-.264.262-.525.393-.656.786-.655-.524-1.18-1.049-1.836-1.441.263-2.229 3.41-7.736 4.721-8.391.786-.262 1.441-1.049 1.572-1.966.132-.918-.394-1.704-1.179-2.229-4.981-2.753-6.032-3.671-6.032-3.671a2.004 2.004 0 0 0-2.359-.394c-7.996 3.409-12.323 11.012-13.634 16.519-2.884-1.311-6.162-1.18-9.177.394-.524.262-1.048.524-1.573.918-4.982-1.442-10.488-.394-14.815 2.753C4.665 30.385-.185 36.94.207 50.574.47 63.16 3.748 72.336 9.909 77.843c4.064 3.803 9.439 5.637 15.469 5.637h1.704c2.229 1.443 4.589 2.099 7.081 2.099 1.572 0 3.146-.263 4.718-.788.525-.13.918-.522 1.181-1.047 2.359 2.49 4.85 3.015 6.293 3.015h.392c1.704-.131 3.147-.655 4.589-1.704l.788.393c1.048.263 2.097.263 3.015.263 2.884 0 5.637-.786 8.129-2.49 12.454-.263 26.612-4.327 27.53-32.12.261-11.67-2.492-19.798-8.261-24.124zM48.451 11.376c.655.393 1.574 1.049 3.018 1.835-1.968 2.359-3.673 5.899-4.328 8.521-.917-.131-1.966-.263-3.015-.131-1.966.131-3.801.918-5.375 1.967 1.18-4.194 4.195-9.439 9.7-12.192zM4.403 50.574c-.263-11.667 3.67-17.173 6.948-19.664 2.492-1.835 5.507-2.753 8.391-2.491-2.884 4.326-5.507 11.667-5.244 24.516.131 8.391 2.229 19.141 7.341 26.089-3.015-.393-6.424-1.574-9.308-4.326-4.982-4.721-7.866-12.849-8.128-24.124zm32.906 30.023c-3.146 1.049-6.031.655-8.522-1.181-5.506-3.933-9.439-14.683-9.701-26.744-.263-12.979 2.752-22.418 7.996-25.302 2.098-1.18 4.458-1.048 6.424.394.394.262.656.394 1.049.394-4.195 8.521-2.229 38.936 2.229 50.211.262.785.524 1.311.917 1.967-.13.261-.261.261-.392.261zm9.046 1.834c-2.098.133-4.065-1.834-5.376-5.373-4.326-11.014-5.769-39.724-2.36-46.672 1.311-2.491 3.409-4.064 5.9-4.327h.524c2.359 0 4.719 1.311 6.292 3.54 3.803 5.113 2.754 37.494 0 47.195-.785 3.147-2.751 5.507-4.98 5.637zm8.128-1.179c.523-1.05 1.048-2.099 1.311-3.409 2.49-8.651 4.326-40.902-.132-49.948.263-.131.395-.131.655-.262 2.099-1.442 4.458-1.574 6.687-.393 5.507 2.884 8.521 12.454 8.26 25.563-.262 11.275-3.934 21.501-9.439 25.958-2.23 1.836-4.72 2.622-7.342 2.491zM86.21 51.099c-.525 20.189-8.392 25.959-17.961 27.27 4.456-6.032 7.341-15.208 7.473-25.434.261-10.619-1.705-19.141-5.244-24.516 2.621-.394 6.161-.262 9.308 2.098 4.587 3.407 6.685 10.488 6.424 20.582z"/><metadata><rdf:RDF xmlns:rdf="http://www.w3.org/1999/02/22-rdf-syntax-ns#" xmlns:rdfs="http://www.w3.org/2000/01/rdf-schema#" xmlns:dc="http://purl.org/dc/elements/1.1/"><rdf:Description about="https://iconscout.com/legal#licenses" dc:title="food,pumpkin" dc:description="food,pumpkin" dc:publisher="Iconscout" dc:date="2018-04-15" dc:format="image/svg+xml" dc:language="en"><dc:creator><rdf:Bag><rdf:li>BomSymbols .</rdf:li></rdf:Bag></dc:creator></rdf:Description></rdf:RDF></metadata></svg>