<?xml version="1.0" encoding="UTF-8"?><!DOCTYPE svg PUBLIC "-//W3C//DTD SVG 1.1//EN" "http://www.w3.org/Graphics/SVG/1.1/DTD/svg11.dtd"><svg xmlns="http://www.w3.org/2000/svg" xmlns:xlink="http://www.w3.org/1999/xlink" version="1.1" id="Layer_1" x="0px" y="0px" width="91px" height="91px" viewBox="0 0 91 91" xml:space="preserve"><path d="M78.781 20.81a2.25 2.25 0 0 0-2.634-3.392 40.604 40.604 0 0 0-7.756-6.947l.938-1.294a2.264 2.264 0 0 0-.51-3.159 2.258 2.258 0 0 0-3.156.509l-1.15 1.593a40.089 40.089 0 0 0-18.877-4.705c-4.083 0-8.025.616-11.746 1.75a2.255 2.255 0 0 0-2.197-1.75 2.261 2.261 0 0 0-2.26 2.263v1.148a40.566 40.566 0 0 0-14.82 11.184l-1.187-.868a2.263 2.263 0 0 0-3.159.497 2.259 2.259 0 0 0 .496 3.159l1.164.851a40.208 40.208 0 0 0-4.88 10.393 2.26 2.26 0 0 0-1.738 2.194c0 .673.302 1.271.768 1.687a40.46 40.46 0 0 0-.73 6.313H.195l.322 2.547C2.379 59.566 11.496 72.484 24.61 79.288v8.729h33.837c4.289 0 7.778-3.492 7.778-7.781v-.948c13.117-6.804 22.233-19.722 24.097-34.509l.319-2.544h-4.716a40.068 40.068 0 0 0-7.144-21.425zM10.572 36.497h1.523a2.263 2.263 0 0 0 0-4.523h-.262c3.074-8.801 9.491-16.043 17.723-20.203a2.252 2.252 0 0 0 2.138 1.562 2.263 2.263 0 0 0 2.262-2.263V9.909a35.565 35.565 0 0 1 11.68-1.969c10.483 0 19.929 4.531 26.484 11.735l-2.923 1.666a2.258 2.258 0 0 0-.844 3.083 2.256 2.256 0 0 0 3.083.843l3.533-2.016a35.577 35.577 0 0 1 6.434 18.983H9.872a35.64 35.64 0 0 1 .7-5.737zm51.075 39.981h-7.238V81H61.6a3.251 3.251 0 0 1-3.153 2.494H29.134V81h8.48v-4.522h-8.425C16.835 71.109 7.922 59.904 5.406 46.759h80.026c-2.514 13.143-11.428 24.35-23.785 29.719z"/><path d="M26.035 27.827a2.261 2.261 0 0 0-2.26 2.262v4.146a2.261 2.261 0 0 0 4.522 0v-4.146a2.262 2.262 0 0 0-2.262-2.262z"/><path d="M37.358 24.533l-1.589-2.458a2.26 2.26 0 0 0-3.129-.668 2.258 2.258 0 0 0-.667 3.126l1.589 2.458a2.259 2.259 0 0 0 3.126.668 2.258 2.258 0 0 0 .67-3.126z"/><path d="M41.059 30.833a2.26 2.26 0 1 0-3.658 2.66l1.509 2.074c.441.608 1.131.93 1.829.93a2.261 2.261 0 0 0 1.829-3.59l-1.509-2.074z"/><path d="M53.851 22.781l-1.507-1.229a2.265 2.265 0 0 0-3.182.322 2.264 2.264 0 0 0 .321 3.183l1.507 1.229a2.26 2.26 0 0 0 3.182-.322 2.263 2.263 0 0 0-.321-3.183z"/><path d="M61.234 29.958a2.261 2.261 0 0 0-2.26 2.26v1.967a2.262 2.262 0 0 0 4.523 0v-1.967a2.26 2.26 0 0 0-2.263-2.26z"/><path d="M60.608 21.656a2.259 2.259 0 0 0 1.333-2.908l-.418-1.13a2.261 2.261 0 1 0-4.24 1.575l.418 1.131a2.264 2.264 0 0 0 2.907 1.332z"/><path d="M74.851 32.311a2.256 2.256 0 0 0-2.967-1.192l-2.432 1.036a2.259 2.259 0 0 0-1.191 2.966 2.259 2.259 0 0 0 2.966 1.192l2.432-1.036a2.26 2.26 0 0 0 1.192-2.966z"/><path d="M45.813 8.814a2.273 2.273 0 0 0-2.431 2.08l-.218 2.813a2.26 2.26 0 0 0 2.258 2.437 2.26 2.26 0 0 0 2.251-2.085l.219-2.813a2.266 2.266 0 0 0-2.079-2.432z"/><path d="M65.298 68.634c.358 0 .725-.086 1.063-.268a22.56 22.56 0 0 0 11.216-14.328 2.259 2.259 0 0 0-1.64-2.744 2.259 2.259 0 0 0-2.745 1.638 18.01 18.01 0 0 1-8.961 11.446 2.262 2.262 0 0 0 1.067 4.256z"/><circle cx="59.821" cy="69.52" r="2.681"/><metadata><rdf:RDF xmlns:rdf="http://www.w3.org/1999/02/22-rdf-syntax-ns#" xmlns:rdfs="http://www.w3.org/2000/01/rdf-schema#" xmlns:dc="http://purl.org/dc/elements/1.1/"><rdf:Description about="https://iconscout.com/legal#licenses" dc:title="food,rice" dc:description="food,rice" dc:publisher="Iconscout" dc:date="2018-04-15" dc:format="image/svg+xml" dc:language="en"><dc:creator><rdf:Bag><rdf:li>BomSymbols .</rdf:li></rdf:Bag></dc:creator></rdf:Description></rdf:RDF></metadata></svg>