<?xml version="1.0" encoding="UTF-8"?><!DOCTYPE svg PUBLIC "-//W3C//DTD SVG 1.1//EN" "http://www.w3.org/Graphics/SVG/1.1/DTD/svg11.dtd"><svg xmlns="http://www.w3.org/2000/svg" xmlns:xlink="http://www.w3.org/1999/xlink" version="1.1" id="Layer_1" x="0px" y="0px" width="91px" height="91px" viewBox="0 0 91 91" xml:space="preserve"><path d="M45.471 21.895c-6.396 0-12.697 1.348-18.795 3.943a2.136 2.136 0 0 0-1.28.55C17.284 30.094 9.554 36.043 2.48 44.117c-3.08 3.517-3.077 9.019 0 12.531 2.657 3.036 6.732 3.252 11.263.398 2.908-1.832 5.45-3.319 7.736-4.535 1.488 10.213 11.749 18.152 24.174 18.152 12.468 0 22.762-7.997 24.186-18.269 2.189 1.228 4.581 2.733 7.287 4.601l.42.295c1.405.983 2.998 2.1 5.053 2.1 2.234 0 4.317-.974 5.861-2.741 3.08-3.514 3.082-9.018.003-12.533-12.734-14.537-27.599-22.221-42.992-22.221zm.182 44.505c-10.863 0-19.722-7.083-20.079-15.89 7.488-3.319 12.32-3.329 20.079-3.329 7.863 0 13.049.005 20.083 3.146C65.498 59.22 56.587 66.4 45.653 66.4zm39.596-12.556c-.723.829-1.666 1.284-2.65 1.284-.71 0-1.588-.615-2.602-1.328l-.446-.309C64.254 42.914 57.254 42.914 45.653 42.914c-11.634 0-17.477 0-34.183 10.527-1.437.902-2.73 1.384-3.739 1.384-.815 0-1.442-.305-2.038-.982-1.643-1.876-1.643-5.04-.002-6.913 5.506-6.287 11.411-11.184 17.564-14.647l-2.849 9.188a2.135 2.135 0 0 0 2.038 2.766c.91 0 1.751-.588 2.036-1.502l4.043-13.042c3.178-1.337 6.407-2.306 9.674-2.879l-1.879 8.594a2.132 2.132 0 1 0 4.167.908l2.198-10.059a41.814 41.814 0 0 1 2.789-.098c3.572 0 7.113.461 10.61 1.366-.011.041-.027.078-.039.122l-2.512 11.49a2.136 2.136 0 0 0 2.084 2.587c.983 0 1.866-.682 2.085-1.679l2.458-11.242c3.32 1.203 6.59 2.813 9.786 4.817l-3.083 9.396a2.136 2.136 0 0 0 2.026 2.801c.896 0 1.731-.57 2.025-1.47l2.704-8.246c4.029 2.969 7.922 6.584 11.637 10.824 1.641 1.878 1.641 5.042-.004 6.919z"/><path d="M35.524 49.989a2.133 2.133 0 0 0-2.671 1.4l-.72 2.31a2.133 2.133 0 0 0 4.072 1.271l.72-2.31a2.13 2.13 0 0 0-1.401-2.671z"/><path d="M41.457 56.12a2.131 2.131 0 0 0-2.942-.66 2.13 2.13 0 0 0-.661 2.942l1.257 1.983a2.13 2.13 0 0 0 2.944.662 2.133 2.133 0 0 0 .661-2.943l-1.259-1.984z"/><path d="M48.021 55.236a2.134 2.134 0 0 0 3.866-1.804l-1.076-2.31a2.129 2.129 0 0 0-2.833-1.031 2.13 2.13 0 0 0-1.032 2.833l1.075 2.312z"/><path d="M56.87 59.394a2.135 2.135 0 0 0 2.134-2.134v-4.083a2.133 2.133 0 0 0-4.267 0v4.083c0 1.178.956 2.134 2.133 2.134z"/><metadata><rdf:RDF xmlns:rdf="http://www.w3.org/1999/02/22-rdf-syntax-ns#" xmlns:rdfs="http://www.w3.org/2000/01/rdf-schema#" xmlns:dc="http://purl.org/dc/elements/1.1/"><rdf:Description about="https://iconscout.com/legal#licenses" dc:title="food,salmon,sushi" dc:description="food,salmon,sushi" dc:publisher="Iconscout" dc:date="2018-04-15" dc:format="image/svg+xml" dc:language="en"><dc:creator><rdf:Bag><rdf:li>BomSymbols .</rdf:li></rdf:Bag></dc:creator></rdf:Description></rdf:RDF></metadata></svg>