<?xml version="1.0" encoding="UTF-8"?><!DOCTYPE svg PUBLIC "-//W3C//DTD SVG 1.1//EN" "http://www.w3.org/Graphics/SVG/1.1/DTD/svg11.dtd"><svg xmlns="http://www.w3.org/2000/svg" xmlns:xlink="http://www.w3.org/1999/xlink" version="1.1" id="Layer_1" x="0px" y="0px" width="91px" height="91px" viewBox="0 0 91 91" xml:space="preserve"><g fill="#010101"><path d="M64.1 80.61h-1.458c-1.149 0-2.083.934-2.083 2.083s.934 2.082 2.083 2.082H64.1a2.083 2.083 0 0 0 0-4.165z"/><path d="M88.397 80.61h-2.094L52.976 41.139a2.098 2.098 0 0 0-.12-.13c-3.938-3.935-10.342-3.934-14.277 0a1.833 1.833 0 0 0-.119.13L5.151 80.61H2.795a2.083 2.083 0 0 0 0 4.165h50.992a2.083 2.083 0 0 0 0-4.165H10.6l30.98-36.714a5.943 5.943 0 0 1 8.275.001l31 36.713h-9.04a2.083 2.083 0 0 0 0 4.165h16.583a2.084 2.084 0 0 0-.001-4.165z"/><path d="M34.927 60.069a2.075 2.075 0 0 0-2.071 2.084c0 1.148.943 2.081 2.092 2.081a2.084 2.084 0 0 0 0-4.165h-.021z"/><path d="M49.564 64.234a2.084 2.084 0 0 0 2.082-2.081 2.086 2.086 0 0 0-2.082-2.084h-.022a2.075 2.075 0 0 0-2.071 2.084 2.09 2.09 0 0 0 2.093 2.081z"/><path d="M42.256 64.234a2.083 2.083 0 0 0 0-4.165h-.022a2.075 2.075 0 0 0-2.071 2.084c0 1.149.944 2.081 2.093 2.081z"/><path d="M45.93 58.018a2.084 2.084 0 0 0 2.082-2.082 2.085 2.085 0 0 0-2.082-2.083h-.02a2.075 2.075 0 0 0-2.071 2.083 2.091 2.091 0 0 0 2.091 2.082z"/><path d="M53.239 58.018a2.085 2.085 0 0 0 2.083-2.082 2.085 2.085 0 0 0-2.083-2.083h-.022c-1.148 0-2.07.934-2.07 2.083a2.092 2.092 0 0 0 2.092 2.082z"/><path d="M41.751 53.853a2.092 2.092 0 0 0-2.092-2.082 2.084 2.084 0 0 0-2.083 2.082c0 1.148.934 2.081 2.083 2.081h.021a2.072 2.072 0 0 0 2.071-2.081z"/><path d="M44.092 50.754a2.085 2.085 0 0 0 2.083-2.083 2.084 2.084 0 0 0-2.083-2.081h-.021A2.074 2.074 0 0 0 42 48.671c0 1.148.943 2.083 2.092 2.083z"/><path d="M61.68 63.182a2.083 2.083 0 0 0-2.081-2.081h-.021a2.074 2.074 0 0 0-2.071 2.081c0 1.149.943 2.084 2.093 2.084 1.147 0 2.08-.935 2.08-2.084z"/><path d="M26.646 69.355a2.074 2.074 0 0 0-2.071 2.081c0 1.149.943 2.083 2.092 2.083a2.085 2.085 0 0 0 2.082-2.083 2.084 2.084 0 0 0-2.082-2.081h-.021z"/><path d="M49.847 28.966a2.084 2.084 0 0 0 2.081-2.083v-.021a2.074 2.074 0 0 0-2.081-2.072 2.093 2.093 0 0 0-2.083 2.092c0 1.149.933 2.084 2.083 2.084z"/><path d="M45.714 12.662a2.083 2.083 0 0 0 2.082-2.083v-.02c0-1.15-.933-2.072-2.082-2.072-1.148 0-2.082.943-2.082 2.092s.934 2.083 2.082 2.083z"/><path d="M42.995 26.665a2.083 2.083 0 0 0 2.082-2.083v-.021c0-1.15-.933-2.071-2.082-2.071s-2.083.943-2.083 2.092.933 2.083 2.083 2.083z"/><path d="M42.995 33.972a2.082 2.082 0 0 0 2.082-2.082v-.021c0-1.15-.933-2.071-2.082-2.071s-2.083.943-2.083 2.092.933 2.082 2.083 2.082z"/></g><metadata><rdf:RDF xmlns:rdf="http://www.w3.org/1999/02/22-rdf-syntax-ns#" xmlns:rdfs="http://www.w3.org/2000/01/rdf-schema#" xmlns:dc="http://purl.org/dc/elements/1.1/"><rdf:Description about="https://iconscout.com/legal#licenses" dc:title="food,salt" dc:description="food,salt" dc:publisher="Iconscout" dc:date="2018-04-15" dc:format="image/svg+xml" dc:language="en"><dc:creator><rdf:Bag><rdf:li>BomSymbols .</rdf:li></rdf:Bag></dc:creator></rdf:Description></rdf:RDF></metadata></svg>