<?xml version="1.0" encoding="UTF-8"?><!DOCTYPE svg PUBLIC "-//W3C//DTD SVG 1.1//EN" "http://www.w3.org/Graphics/SVG/1.1/DTD/svg11.dtd"><svg xmlns="http://www.w3.org/2000/svg" xmlns:xlink="http://www.w3.org/1999/xlink" version="1.1" id="Layer_1" x="0px" y="0px" width="91px" height="91px" viewBox="0 0 91 91" xml:space="preserve"><path d="M20.695 61.297h-.04a2.202 2.202 0 0 0-2.162 2.241l.114 6.263a2.198 2.198 0 0 0 2.2 2.158h.04a2.202 2.202 0 0 0 2.162-2.239l-.114-6.263a2.2 2.2 0 0 0-2.2-2.16z"/><path d="M37.27 60.206a2.201 2.201 0 1 0-4.362.593l.82 6.01a2.198 2.198 0 0 0 2.478 1.884 2.202 2.202 0 0 0 1.883-2.478l-.819-6.009z"/><path d="M51.906 53.707a2.202 2.202 0 0 0-2.966-.948 2.202 2.202 0 0 0-.946 2.966l3.191 6.188a2.2 2.2 0 0 0 2.963.949 2.206 2.206 0 0 0 .949-2.966l-3.191-6.189z"/><path d="M65.241 44.26a2.2 2.2 0 1 0-3.211 3.01l4.066 4.342a2.19 2.19 0 0 0 1.604.695c.541 0 1.079-.197 1.505-.595a2.196 2.196 0 0 0 .101-3.11l-4.065-4.342z"/><path d="M78.596 38.768l-5.19-3.628a2.201 2.201 0 0 0-2.521 3.607l5.191 3.629a2.2 2.2 0 0 0 2.52-3.608z"/><path d="M90.416 26.223a2.195 2.195 0 0 0-2.963-.947l-3.208 1.65-.041-4.398a2.2 2.2 0 0 0-2.2-2.18h-.02a2.203 2.203 0 0 0-2.184 2.22l.039 4.486a11.924 11.924 0 0 0-13.822 3.368C54.113 44.743 37.911 53.06 17.863 55.144a11.866 11.866 0 0 0-8.048 4.352 11.898 11.898 0 0 0-2.276 4.488l-3.315-2.407A2.2 2.2 0 0 0 1.64 65.14l3.563 2.586-3.207 1.65a2.201 2.201 0 0 0 1.013 4.159 2.2 2.2 0 0 0 1.006-.244l3.902-2.01a11.905 11.905 0 0 0 11.16 7.712c.413 0 .833-.022 1.25-.065C33.44 77.57 45.49 74.095 56.139 68.597c10.74-5.539 20.253-13.238 28.272-22.882 3.462-4.167 3.603-10.007.729-14.3l4.327-2.229a2.2 2.2 0 0 0 .949-2.963zm-9.391 16.676c-7.638 9.187-16.69 16.517-26.904 21.784-10.16 5.246-21.681 8.566-34.25 9.866a7.537 7.537 0 0 1-8.293-6.733 7.502 7.502 0 0 1 1.654-5.545 7.492 7.492 0 0 1 5.085-2.75c21.23-2.205 38.421-11.05 51.087-26.288a7.539 7.539 0 0 1 5.814-2.725c1.757 0 3.473.621 4.827 1.748 3.203 2.664 3.643 7.44.98 10.643z"/><path d="M30.943 36.362a2.2 2.2 0 1 0 2.748 3.439c5.869-4.695 3.171-9.57 1.383-12.796-1.935-3.491-2.415-4.693.305-6.695a2.2 2.2 0 1 0-2.607-3.545c-5.969 4.39-3.311 9.193-1.55 12.375 1.913 3.446 2.576 4.938-.279 7.222z"/><path d="M42.91 31.932a2.198 2.198 0 0 0-.141 3.107 2.19 2.19 0 0 0 1.625.718c.528 0 1.06-.188 1.482-.573 5.777-5.269 3.033-9.436 1.212-12.192-1.772-2.69-2.751-4.172.443-7.438a2.2 2.2 0 1 0-3.147-3.077c-5.674 5.805-2.842 10.099-.969 12.941 1.763 2.67 2.493 3.777-.505 6.514z"/><metadata><rdf:RDF xmlns:rdf="http://www.w3.org/1999/02/22-rdf-syntax-ns#" xmlns:rdfs="http://www.w3.org/2000/01/rdf-schema#" xmlns:dc="http://purl.org/dc/elements/1.1/"><rdf:Description about="https://iconscout.com/legal#licenses" dc:title="food,sausage" dc:description="food,sausage" dc:publisher="Iconscout" dc:date="2018-04-15" dc:format="image/svg+xml" dc:language="en"><dc:creator><rdf:Bag><rdf:li>BomSymbols .</rdf:li></rdf:Bag></dc:creator></rdf:Description></rdf:RDF></metadata></svg>