<?xml version="1.0" encoding="UTF-8"?><!DOCTYPE svg PUBLIC "-//W3C//DTD SVG 1.1//EN" "http://www.w3.org/Graphics/SVG/1.1/DTD/svg11.dtd"><svg xmlns="http://www.w3.org/2000/svg" xmlns:xlink="http://www.w3.org/1999/xlink" version="1.1" id="Layer_1" x="0px" y="0px" width="91px" height="91px" viewBox="0 0 91 91" xml:space="preserve"><path d="M75.328 37.809a2.143 2.143 0 0 0-2.927.779l-2.816 4.863a2.138 2.138 0 0 0 .779 2.924 2.14 2.14 0 0 0 2.929-.781l2.814-4.862a2.14 2.14 0 0 0-.779-2.923z"/><path d="M61.999 33.192a2.14 2.14 0 0 0-2.816 1.117l-2.156 5.001a2.142 2.142 0 0 0 3.936 1.697l2.156-5a2.147 2.147 0 0 0-1.12-2.815z"/><path d="M45.448 29.346c-1.177-.094-2.197.813-2.276 1.995l-.417 6.232a2.138 2.138 0 0 0 2.138 2.282c1.12 0 2.062-.866 2.135-1.998l.417-6.231a2.14 2.14 0 0 0-1.997-2.28z"/><path d="M31.216 32.583a2.137 2.137 0 0 0-2.54-1.648 2.142 2.142 0 0 0-1.647 2.541l1.112 5.222a2.14 2.14 0 1 0 4.186-.893l-1.111-5.222z"/><path d="M19.262 35.016a2.14 2.14 0 0 0-3.914 1.739l2.307 5.195a2.145 2.145 0 0 0 2.826 1.088 2.142 2.142 0 0 0 1.088-2.826l-2.307-5.196z"/><path d="M88.794 44.564l-3.743-.248a10.836 10.836 0 0 0-.498-5.461 10.81 10.81 0 0 0-5.613-6.166c-10.72-5.04-21.607-7.959-32.357-8.672-10.843-.721-21.755.789-32.386 4.487a10.828 10.828 0 0 0-6.229 5.541 10.808 10.808 0 0 0-1.086 5.079l-4.16-.279a2.116 2.116 0 0 0-2.279 1.993 2.142 2.142 0 0 0 1.993 2.28l2.959.196-1.872 3.167a2.14 2.14 0 1 0 3.686 2.179l1.919-3.244a10.903 10.903 0 0 0 8.649 4.276c1.215 0 2.416-.203 3.575-.604a60.947 60.947 0 0 1 13.116-2.994v7.735c0 4.133 3.36 7.492 7.489 7.492h1.007v25.412a2.14 2.14 0 1 0 4.281 0V61.322h1.001a7.498 7.498 0 0 0 7.492-7.492v-6.355c4.643 1.117 9.29 2.75 13.933 4.932a10.791 10.791 0 0 0 4.628 1.038c2.788 0 5.414-1.098 7.399-2.932l1.346 3.186a2.144 2.144 0 0 0 2.806 1.135 2.142 2.142 0 0 0 1.136-2.808l-1.433-3.386 2.959.196a2.141 2.141 0 0 0 .282-4.272zM51.455 53.83a3.212 3.212 0 0 1-3.21 3.21h-6.292a3.21 3.21 0 0 1-3.206-3.21v-7.976c0-.034-.007-.064-.01-.098a57.52 57.52 0 0 1 4.236-.02c-.001.038-.012.076-.012.118v4.867a2.141 2.141 0 1 0 4.282 0v-4.702c1.402.144 2.807.317 4.211.556v7.255zm28.834-8.466a6.647 6.647 0 0 1-5.992 3.798 6.563 6.563 0 0 1-2.808-.63c-5.236-2.462-10.5-4.276-15.753-5.47v-4.421a2.142 2.142 0 0 0-4.283 0v3.598c-3.425-.551-6.839-.848-10.233-.848-7.144 0-14.303 1.228-21.276 3.649a6.563 6.563 0 0 1-2.171.369 6.622 6.622 0 0 1-6.249-4.447c-.58-1.667-.475-3.463.295-5.052s2.113-2.785 3.782-3.365c10.089-3.507 20.427-4.939 30.695-4.258 10.218.678 20.587 3.463 30.822 8.273a6.549 6.549 0 0 1 3.405 3.744 6.572 6.572 0 0 1-.234 5.06z"/><path d="M36.074 16.457a2.141 2.141 0 0 0 2.675 3.343c4.512-3.61 2.306-7.595 1.12-9.737-1.34-2.423-1.436-2.841.046-3.931a2.14 2.14 0 1 0-2.534-3.45c-4.615 3.391-2.431 7.334-1.258 9.455 1.394 2.518 1.518 3.066-.049 4.32z"/><path d="M48.729 16.545a2.142 2.142 0 0 0 2.887 3.163c4.434-4.043 2.165-7.482.947-9.329-1.247-1.889-1.668-2.526.238-4.477a2.142 2.142 0 0 0-3.062-2.993c-4.32 4.42-2.084 7.804-.75 9.829 1.219 1.845 1.473 2.232-.26 3.807z"/><metadata><rdf:RDF xmlns:rdf="http://www.w3.org/1999/02/22-rdf-syntax-ns#" xmlns:rdfs="http://www.w3.org/2000/01/rdf-schema#" xmlns:dc="http://purl.org/dc/elements/1.1/"><rdf:Description about="https://iconscout.com/legal#licenses" dc:title="food,sausage" dc:description="food,sausage" dc:publisher="Iconscout" dc:date="2018-04-15" dc:format="image/svg+xml" dc:language="en"><dc:creator><rdf:Bag><rdf:li>BomSymbols .</rdf:li></rdf:Bag></dc:creator></rdf:Description></rdf:RDF></metadata></svg>