<?xml version="1.0" encoding="UTF-8"?><!DOCTYPE svg PUBLIC "-//W3C//DTD SVG 1.1//EN" "http://www.w3.org/Graphics/SVG/1.1/DTD/svg11.dtd"><svg xmlns="http://www.w3.org/2000/svg" xmlns:xlink="http://www.w3.org/1999/xlink" version="1.1" id="Layer_1" x="0px" y="0px" width="91px" height="91px" viewBox="0 0 91 91" xml:space="preserve"><path d="M78.793 63.579l-1.471-.224c-4.23-.648-11.704 1.563-17.489 3.698-.583-.622-1.3-1.231-2.153-1.923-.593-.48-2.367-1.905-12.71-4.196-.213-.884-.531-1.796-1.005-2.619-.537-.943-1.445-1.785-2.65-2.534 3.099-.629 3.873-4.274 4.04-7.075.309.013.616.034.925.034 4.027 0 7.848-1.293 10.749-3.642 3.586-2.902 6.816-6.476 6.172-12.931C62.642 26.58 47.64 4.056 42.618 1.269c-.769-.428-1.657-.646-2.639-.646-4.17 0-9.727 4.003-15.103 7.875-2.222 1.602-4.321 3.113-5.823 3.938-4.454 2.445-6.922 4.868-7.543 7.403a4.634 4.634 0 0 0-.084 1.896c-4.514 3.971-8.414 10.679-10.11 15.771-1.02 3.053-.985 5.676.103 7.792A6.9 6.9 0 0 0 4.6 48.384c-.306 7.052 1.756 14.006 2.71 16.803 1.134 3.317 3.168 4.568 4.88 4.999 2.533 5.082 6.283 9.105 11.193 11.939 1.385.799 2.816 1.203 4.254 1.203.244 0 .468-.032.698-.054 6.673 4.771 13.007 5.461 18.876 5.461l2.123-.011c.414 0 .806.005 1.182.016l.413.007c1.923 0 3.488-.422 4.688-1.241 4.179 1.73 9.991 2.854 15.045 2.854 6.949 0 13.88-3.843 15.754-7.291.435-.804.495-1.732.17-2.615-.245-.663-.755-2.017-4.784-4.075 4.081-2.121 6.969-4.259 7.847-5.204 1.303-1.403 1.015-2.785.829-3.315-.889-2.546-4.42-3.185-11.685-4.281zM21.231 16.402c1.744-.958 3.952-2.55 6.291-4.233 4.113-2.962 9.746-7.021 12.457-7.021.193 0 .356.028.444.076 3.689 2.049 17.87 23.301 18.276 27.394.367 3.673-.774 5.935-4.516 8.964-1.217.984-3.861 2.637-7.904 2.637-.725 0-1.458-.057-2.193-.165l-.561-.101c-1.601-.286-3.225-.827-4.85-1.597l-.3-.143a24.093 24.093 0 0 1-1.542-.825 22.19 22.19 0 0 1-1.287-.821 31.842 31.842 0 0 1-.657-.466c-.2-.145-.406-.292-.611-.447a42.513 42.513 0 0 1-1.158-.904c-2.042-1.65-4.256-3.708-6.48-5.947l-.359-.359-.799-.818c-.371-.387-.746-.774-1.109-1.158a189.175 189.175 0 0 1-8.45-9.607c.15-.483.966-2.077 5.308-4.459zM7.01 44.51l-.177-.108-.039-.012-.764-.431a2.374 2.374 0 0 1-.586-.726c-.502-.98-.447-2.465.163-4.295 1.407-4.221 4.659-9.946 8.329-13.386 3.247 3.862 10.14 11.734 16.416 16.777a44.11 44.11 0 0 0 1.407 1.09.703.703 0 0 0 .051.041c.429.316.85.615 1.268.896l.251.169c.409.269.808.527 1.204.756l.016.01c.026.016.052.028.078.042.489.283.977.55 1.466.797.063.033.129.06.193.091.463.231.927.447 1.39.647l.084.033c1.031.44 2.066.798 3.094 1.08-.09 2.269-.474 3.14-.632 3.405-.291.027-.804.064-1.586.084l-.234.003a43.58 43.58 0 0 1-.829.007h-.146c-.25 0-.514-.005-.779-.01a86.915 86.915 0 0 1-7.933-.543c-4.472-.515-9.493-1.438-14.092-2.967-.091-.029-.177-.063-.267-.091-.411-.139-.813-.289-1.219-.439-1.764-.662-3.477-1.429-5.067-2.325l-1.06-.595zm6.769 21.351h-.006l-.273-.011c-.548-.072-1.326-.419-1.908-2.124-1.492-4.363-2.359-9.008-2.481-13.031 10.305 4.533 23.112 5.201 27.269 5.295l-.035.102c-.003.017-.011.029-.016.042-.074.2-.203.438-.543.685v.002c-.12.085-.263.172-.44.254-5.207 2.525-17.851 7.491-17.978 7.54l-.431.227c-.321.217-1.779 1.019-3.158 1.019zm14.592 12.847a3.063 3.063 0 0 1-.735.099c-.629 0-1.3-.201-1.99-.602-3.599-2.075-6.464-4.904-8.555-8.428.988-.365 1.759-.8 2.135-1.029 1.224-.483 7.279-2.874 12.499-5.102.753-.319 1.494-.639 2.195-.944.049-.021.096-.046.145-.066a96.04 96.04 0 0 0 3.252-1.488c.374-.18.72-.385 1.042-.611.322-.226.616-.472.881-.738.535.375.732.65.795.762.406.711.616 1.667.728 2.529l.002.025c.06.455.088.871.101 1.199L29.943 77.855c-.122.115-.72.64-1.572.853zm28.562-5.845c-.002.011-.002.019-.005.03-.014.087-.039.188-.055.276-.1.583-.26 1.266-.507 2.071-.033.111-.075.23-.112.343-.108.346-.226.698-.358 1.077-.057.16-.116.32-.177.482-.139.376-.282.764-.441 1.169-.04.097-.08.193-.114.29a69.075 69.075 0 0 1-1.261 2.953c-.059.135-.13.286-.179.394l-.002.009-.261.462.005.072-.005.015.048.529c-.003.041-.017.276-.171.489-.018.027-.036.06-.06.083-.36.394-1.215.616-2.349.616l-.278-.002a42.676 42.676 0 0 0-1.313-.016l-2.125.008c-4.167 0-8.938-.28-14.042-3.192.07-.069.115-.117.138-.139l.051-.069c.011-.011.032-.03.037-.038l11.79-14.611.181-.219.01-.28c6.306 1.462 8.906 2.54 9.474 3.001 1.142.927 1.728 1.414 2.004 1.914l.041.096c.108.253.225.753.036 2.187zm24.913 8.781c-1.665 1.635-6.122 4.193-11.181 4.193-4.113 0-9.098-.908-12.668-2.246.008-.05.013-.096.018-.143.167-.368.426-.948.729-1.657.072.005.143.005.214.011.31.024.631.033.946.05.39.018.776.035 1.172.04.108 0 .212.012.321.012.227 0 .449-.021.676-.026.447-.01.893-.025 1.345-.05.365-.025.729-.053 1.093-.086.398-.036.797-.081 1.198-.133.397-.05.795-.102 1.187-.163.34-.053.678-.117 1.016-.18.459-.084.918-.17 1.37-.269.219-.049.438-.104.657-.155a48.628 48.628 0 0 0 1.731-.436c.046-.017.095-.031.144-.044a49.897 49.897 0 0 0 4.488-1.499c3.039 1.222 4.736 2.185 5.544 2.781zm-5.758-7.575l-.649.266c-2.392.971-4.734 1.712-7.005 2.221-.074.017-.146.028-.22.045a38.991 38.991 0 0 1-2.379.432c-.533.081-1.058.143-1.578.193l-.565.055c-.519.04-1.029.064-1.539.078-.174.005-.351.017-.527.019-.4.003-.79-.019-1.182-.031.023-.07.041-.133.064-.202.06-.188.119-.375.177-.564.057-.184.112-.369.16-.549.062-.206.118-.413.173-.618.029-.111.054-.218.08-.324.047-.196.091-.391.135-.58l.048-.236a13.908 13.908 0 0 0 .239-1.847c.007-.075.012-.153.017-.227.019-.338.027-.66.019-.959 6.096-2.253 11.021-3.481 13.988-3.481.41 0 .779.022 1.097.072l1.483.224c2.102.316 4.957.749 6.784 1.213-1.781 1.266-4.936 3.161-8.82 4.8z"/><metadata><rdf:RDF xmlns:rdf="http://www.w3.org/1999/02/22-rdf-syntax-ns#" xmlns:rdfs="http://www.w3.org/2000/01/rdf-schema#" xmlns:dc="http://purl.org/dc/elements/1.1/"><rdf:Description about="https://iconscout.com/legal#licenses" dc:title="food,shrimp" dc:description="food,shrimp" dc:publisher="Iconscout" dc:date="2018-04-15" dc:format="image/svg+xml" dc:language="en"><dc:creator><rdf:Bag><rdf:li>BomSymbols .</rdf:li></rdf:Bag></dc:creator></rdf:Description></rdf:RDF></metadata></svg>