<?xml version="1.0" encoding="UTF-8"?><!DOCTYPE svg PUBLIC "-//W3C//DTD SVG 1.1//EN" "http://www.w3.org/Graphics/SVG/1.1/DTD/svg11.dtd"><svg xmlns="http://www.w3.org/2000/svg" xmlns:xlink="http://www.w3.org/1999/xlink" version="1.1" id="Layer_1" x="0px" y="0px" width="91px" height="91px" viewBox="0 0 91 91" xml:space="preserve"><path d="M38.504 35.062a9.664 9.664 0 0 0-11.259-7.759c-4.7.866-7.974 5.021-7.904 9.648 0 .082.002.165.008.25.017.451.055.904.139 1.359a9.563 9.563 0 0 0 .368 1.376c1.316 3.862 4.953 6.544 9.13 6.544.585 0 1.177-.056 1.757-.16 5.242-.961 8.724-6.012 7.761-11.258zm-12.649 5.376c-.451.073-1.115-.375-1.594-1.264a5.12 5.12 0 0 1-.178-.365 4.887 4.887 0 0 1-.084-.226 5.212 5.212 0 0 1-.226-.811 5.282 5.282 0 0 1-.072-.882c.005-1.319.582-2.258 1.17-2.357.609 0 1.665.951 1.982 2.673.328 1.771-.387 3.12-.998 3.232zm4.503 1.482c.833-1.502 1.158-3.446.78-5.501-.375-2.03-1.374-3.749-2.7-4.868.189-.021.377-.05.565-.05a5.307 5.307 0 0 1 5.216 4.351c.504 2.738-1.216 5.359-3.861 6.068z"/><path d="M88.838 68.416l-17.956-5.411-38.436-53.27a2.18 2.18 0 0 0-3.534 2.55l5.691 7.889a17.492 17.492 0 0 0-5.591-.929 17.8 17.8 0 0 0-3.193.293 17.453 17.453 0 0 0-11.283 7.305 17.467 17.467 0 0 0-2.815 13.145 17.561 17.561 0 0 0 2.208 5.851L3.25 42.619a2.177 2.177 0 0 0-2.713 1.46 2.177 2.177 0 0 0 1.456 2.713l19.366 5.837a17.412 17.412 0 0 0 5.193 1.566l41.662 12.557 11.333 15.705a2.168 2.168 0 0 0 1.768.903 2.175 2.175 0 0 0 1.763-3.453L75.08 68.823l12.501 3.766a2.182 2.182 0 0 0 2.715-1.457 2.185 2.185 0 0 0-1.458-2.716zM28.979 50.023c-.498 0-.987-.038-1.471-.091l-4.52-1.363a13.201 13.201 0 0 1-6.982-9.37 13.138 13.138 0 0 1 2.117-9.883 13.118 13.118 0 0 1 8.484-5.494 13.44 13.44 0 0 1 2.405-.22c6.365 0 11.821 4.553 12.975 10.821 1.315 7.164-3.439 14.064-10.602 15.379-.796.149-1.605.221-2.406.221zm7.562 2.63c6.081-2.898 10.041-9.109 10.005-15.929l17.469 24.211-27.474-8.282z"/><metadata><rdf:RDF xmlns:rdf="http://www.w3.org/1999/02/22-rdf-syntax-ns#" xmlns:rdfs="http://www.w3.org/2000/01/rdf-schema#" xmlns:dc="http://purl.org/dc/elements/1.1/"><rdf:Description about="https://iconscout.com/legal#licenses" dc:title="food,raw,sushi,with,chopsticks" dc:description="food,raw,sushi,with,chopsticks" dc:publisher="Iconscout" dc:date="2018-04-15" dc:format="image/svg+xml" dc:language="en"><dc:creator><rdf:Bag><rdf:li>BomSymbols .</rdf:li></rdf:Bag></dc:creator></rdf:Description></rdf:RDF></metadata></svg>