<?xml version="1.0" encoding="UTF-8"?><!DOCTYPE svg PUBLIC "-//W3C//DTD SVG 1.1//EN" "http://www.w3.org/Graphics/SVG/1.1/DTD/svg11.dtd"><svg xmlns="http://www.w3.org/2000/svg" xmlns:xlink="http://www.w3.org/1999/xlink" version="1.1" id="Layer_1" x="0px" y="0px" width="91px" height="91px" viewBox="0 0 91 91" xml:space="preserve"><path d="M30.913 67.515c.188.212.417.374.67.485 3.278 7.747 9.185 15.947 19.686 22.483.319.199.675.292 1.025.292a1.944 1.944 0 0 0 1.027-3.593C43.283 80.933 37.78 73.18 34.806 65.943c3.684-6.421 5.382-15.365 4.682-24.852-.757-10.171-4.152-19.319-9.311-25.1a1.968 1.968 0 0 0-1.595-.644 1.948 1.948 0 0 0-1.483.873c-4.248 6.482-6.251 16.032-5.498 26.2.756 10.164 4.149 19.311 9.312 25.095zM28.986 20.75c3.6 5.157 6.032 12.639 6.626 20.629.521 7.047-.434 13.907-2.584 19.295-2.461-9.191-1.251-16.544-1.144-17.136a1.946 1.946 0 0 0-1.565-2.259 1.938 1.938 0 0 0-2.26 1.564c-.022.119-.829 4.905-.014 11.724-1.335-3.791-2.238-8.027-2.565-12.434-.592-7.989.705-15.75 3.506-21.383z"/><path d="M51.309 51.104c-.307 7.194.021 15.258 1.333 24.229a1.942 1.942 0 0 0 2.205 1.641 1.943 1.943 0 0 0 1.641-2.205c-1.313-8.96-1.59-16.999-1.222-24.137 5.505-4.988 9.886-13.029 12.122-22.325 2.381-9.915 1.938-19.663-1.211-26.743a1.942 1.942 0 0 0-2.999-.72C57.15 5.727 52.329 14.208 49.95 24.118c-2.38 9.91-1.937 19.656 1.214 26.742.037.087.093.165.145.244zm13.616-37.349c.225 4.301-.199 8.983-1.318 13.645-1.572 6.542-4.375 12.504-7.829 16.925 1.678-14.992 6.176-25.223 9.147-30.57zM53.731 25.024c1.869-7.787 5.472-14.779 9.857-19.293.196.631.358 1.294.513 1.964-2.061 2.847-8.836 13.352-11.659 31.636-.307-4.48.113-9.408 1.289-14.307z"/><metadata><rdf:RDF xmlns:rdf="http://www.w3.org/1999/02/22-rdf-syntax-ns#" xmlns:rdfs="http://www.w3.org/2000/01/rdf-schema#" xmlns:dc="http://purl.org/dc/elements/1.1/"><rdf:Description about="https://iconscout.com/legal#licenses" dc:title="food,vegetable" dc:description="food,vegetable" dc:publisher="Iconscout" dc:date="2018-04-15" dc:format="image/svg+xml" dc:language="en"><dc:creator><rdf:Bag><rdf:li>BomSymbols .</rdf:li></rdf:Bag></dc:creator></rdf:Description></rdf:RDF></metadata></svg>