<?xml version="1.0" encoding="UTF-8"?><!DOCTYPE svg PUBLIC "-//W3C//DTD SVG 1.1//EN" "http://www.w3.org/Graphics/SVG/1.1/DTD/svg11.dtd"><svg xmlns="http://www.w3.org/2000/svg" xmlns:xlink="http://www.w3.org/1999/xlink" version="1.1" id="Layer_1" x="0px" y="0px" width="91px" height="91px" viewBox="0 0 91 91" xml:space="preserve"><path d="M53.846 10.633c.263-3.537 2.096-6.941 2.228-6.941.393-.655.393-1.572 0-2.227C55.679.81 54.894.417 54.109.417h-3.668c-4.061.655-6.156 6.417-7.072 9.824-9.693.393-19.386 3.012-27.244 7.99-7.336 4.715-12.706 14.145-14.67 25.933-2.227 13.1.261 26.064 6.418 33.661 4.06 5.109 12.05 9.038 21.743 11.003.261.131.523.131.785.131 4.323.787 8.776 1.31 13.623 1.441h1.571c3.276 0 6.417-.263 9.299-.654h.262c10.348-1.442 18.861-5.109 23.577-10.479 12.182-14.016 17.55-37.985.523-57.239-5.764-6.286-15.063-10.215-25.41-11.395zm-8.907 13.492c0 .131.131.131.131.261-.393.394-1.179 1.048-1.572 1.31-1.571 1.18-3.536 2.751-2.488 4.847.523 1.179 1.703 1.703 2.358 1.964 1.179.524 2.095 1.048 2.881 1.441-.916.393-1.833.786-2.62 1.179-4.584 1.964-4.715 1.964-5.108 3.012-.263.524-.263 1.179 0 1.834.523 1.179 1.178 1.571 8.121 4.191.131 0 .131 0 .261.131-1.046.393-2.226.786-3.274 1.047-4.322 1.31-5.762 1.834-5.5 3.929.13 1.049.261 1.573 5.894 4.192.655.262 1.44.654 2.357 1.048-2.095.523-4.584 1.179-7.204 1.834-.655.131-1.047.523-1.44 1.049-.262.523-.393 1.178-.262 1.702.523 1.702 2.357 2.88 6.287 4.846-1.441.393-2.75.785-4.061 1.31a2.136 2.136 0 0 0-1.441 1.703 2.42 2.42 0 0 0 .655 2.096c1.31 1.178 3.929 2.751 6.025 4.061.131 0 .131.131.262.131-.262.131-.524.394-.786.523-3.537 2.62-4.192 8.383-3.798 12.181a103.018 103.018 0 0 1-9.431-1.179c-2.095-1.049-3.798-3.014-4.06-4.846-.262-1.047.13-1.964.785-2.751l.263-.261c.654-.654 1.571-1.571 1.702-3.014.131-2.227-1.965-3.404-2.881-3.931l-1.31-.784c1.179-.655 2.489-1.44 3.536-2.227.786-.524 1.179-1.441 1.048-2.228-.131-.917-.917-1.571-1.703-1.833-1.571-.263-3.536-.786-5.108-1.311.131-.131.393-.131.524-.262 3.537-1.571 4.061-1.833 4.323-3.012.523-2.097-.655-2.751-6.025-4.977 2.489-1.05 4.191-1.966 4.977-3.146.394-.654.524-1.31.263-2.095-.263-.655-.786-1.179-1.572-1.31-1.441-.395-3.667-1.311-5.501-2.096 1.179-.524 2.489-1.18 3.536-1.571 3.929-1.704 4.323-1.965 4.715-2.62.393-.524.524-1.31.393-1.965-.393-1.573-1.964-2.62-4.191-4.06-.262-.131-.523-.263-.654-.524 1.047-.394 2.227-.655 3.012-.917 1.572-.524 2.489-.786 3.144-1.048.655-.262 1.31-.655 1.703-1.441.917-1.572.393-3.144-1.703-4.454.524-.393 1.179-.786 1.703-1.309.917-1.049 1.048-2.227 1.179-3.144 0-.263.131-.655.131-.786 1.31-1.965 2.881-4.192 5.239-5.501l.131-.132c2.489-.261 5.108-.523 7.597-.523-.131.917-.917 2.619-1.178 3.406-.393.917-.786 1.702-.917 2.488-.526 1.446.129 2.755.652 3.542zm5.634-19.124c-.525 1.44-1.049 3.274-1.181 5.239h-1.44c.786-2.488 1.834-4.584 2.621-5.239zM11.278 74.945c-5.239-6.549-7.466-18.469-5.501-30.126 1.702-10.61 6.417-18.862 12.705-22.791 3.667-2.227 7.728-4.061 12.05-5.239-.393.523-.786 1.047-1.048 1.572-.655.917-.786 1.965-.786 2.75 0 .262-.131.655-.131.787-.131.131-.523.393-.786.655-1.179.786-2.62 1.833-2.75 3.405-.131 1.31.523 2.096 1.179 2.751-.131 0-.262.131-.393.131-4.584 1.31-7.335 2.227-7.728 4.322-.392 2.096 1.572 3.406 4.192 5.108.131.131.393.262.655.394-.262.13-.655.261-.917.392-6.941 3.144-7.859 3.668-8.383 4.847-.262.524-.131 1.311.131 1.833.524 1.049 3.537 2.621 6.418 3.669-.393.13-.786.261-1.048.393-2.619 1.048-3.667 1.571-4.191 2.751a2.088 2.088 0 0 0 .262 1.964c.393.787.786.916 4.322 2.489.523.263 1.048.522 1.703.785-3.667 1.703-4.322 2.096-4.715 3.013-.262.654-.262 1.441.131 2.096.655 1.178 3.012 2.227 5.763 3.143-.655.394-1.44.786-2.227 1.179-.786.394-1.179 1.049-1.179 1.966 0 .784.393 1.571 1.179 1.965l4.453 2.619.132.131-.132.132c-1.833 1.833-2.488 4.191-1.964 6.679.131.654.262 1.18.524 1.834-5.371-2.1-9.563-4.586-11.92-7.599zm33.661 11.001c-.524-2.75.131-7.465 1.964-8.775.394-.261.787-.522 1.049-.655.654-.393 1.44-.785 2.096-1.44.262-.263.786-.785 1.048-1.702.262-1.703-.655-2.227-3.931-4.322-.522-.395-1.308-.786-1.963-1.179 1.702-.525 3.405-.786 5.108-1.049.918-.131 1.573-.786 1.834-1.571.262-.785 0-1.702-.654-2.357-.787-.654-2.097-1.311-4.453-2.489-.656-.261-1.442-.654-2.358-1.178 10.085-2.489 10.085-3.668 9.954-5.239 0-1.049-.786-1.834-1.702-2.097-1.965-.393-4.978-1.703-7.466-2.881 2.62-.786 5.371-1.703 6.942-2.621 1.44-.785 1.703-1.832 1.703-2.487 0-1.703-.524-1.964-6.156-4.192-.655-.262-1.572-.655-2.489-.917 6.68-2.882 7.858-3.405 7.074-5.632-.262-.917-.394-1.31-6.419-4.191 1.834-1.31 3.537-2.75 3.274-4.845-.131-1.049-.522-1.704-.786-2.359-.131-.13-.261-.523-.261-.523.13-.261.393-1.048.654-1.571.655-1.441 1.44-3.275 1.573-4.978 3.535.262 6.94.917 10.215 1.703 0 .13-.131.262-.131.393-.655 2.096.261 3.929.916 5.37.395.787.787 1.703.787 2.227 0 .262-.132.524-.263.917-.394 1.179-1.048 3.537 1.047 5.239.526.393 1.181.655 2.358 1.179.132 0 .262.131.394.131a24.821 24.821 0 0 1-2.619 2.62c-2.359 1.964-1.049 3.929-.917 4.191.655.785 1.439 1.047 1.833 1.179.917.261 3.014 1.179 4.191 1.833-1.178 1.31-2.488 2.62-3.931 3.798-1.177 1.048-1.832 1.965-1.964 3.144-.13.787.132 1.571.787 2.228.785.785 1.703 1.047 2.357 1.31 1.179.262 1.965.524 2.75.785l1.18.395c-1.311 1.311-3.144 2.487-3.93 3.012-1.31.785-1.964 1.31-2.097 2.227-.394 1.833 1.18 3.143 3.93 5.5.132.132.263.263.523.395-1.31.785-3.144 1.833-3.929 2.356-1.44.786-1.702 1.049-2.095 1.573-.655 1.178-.525 2.225 1.439 4.846-1.439.654-2.882 1.703-3.536 3.144-.523 1.18-.393 2.227-.393 3.144 0 .393.129.915 0 1.178-.654 1.964-2.357 3.406-5.633 4.847-2.747.256-5.76.386-8.904.386zm30.256-9.56c-2.618 3.013-6.811 5.501-12.051 7.203.263-.525.394-1.048.655-1.572a6.66 6.66 0 0 0 .132-2.749V78.22c.262-.395 1.703-1.31 3.536-1.704.786-.13 1.31-.654 1.572-1.44.261-.785.132-1.571-.394-2.096-.784-1.048-1.439-1.833-1.965-2.619 4.322-2.488 7.597-4.454 6.156-7.074-.392-.654-1.047-1.31-2.619-2.619-.392-.262-.918-.785-1.309-1.178 2.881-1.966 5.762-4.322 6.285-7.335.131-1.18-.655-2.357-1.834-2.489-1.57-.261-2.619-.654-3.667-.916a11.162 11.162 0 0 1-1.571-.524c1.833-1.572 3.537-3.274 4.847-5.239.522-.655.653-1.572.392-2.489-.523-1.703-3.534-3.274-5.631-4.192a28.667 28.667 0 0 0 2.619-3.012c.263-.394.787-1.048.918-2.096.129-2.096-1.967-2.882-4.061-3.667-.263-.131-.525-.263-.917-.394 0-.261.131-.393.131-.655l.393-1.571c.262-1.834-.523-3.406-1.179-4.584-.394-.917-.787-1.704-.654-2.227v-.132c4.32 1.704 7.989 4.061 10.607 7.073 15.458 17.158 10.612 38.639-.391 51.345z"/><metadata><rdf:RDF xmlns:rdf="http://www.w3.org/1999/02/22-rdf-syntax-ns#" xmlns:rdfs="http://www.w3.org/2000/01/rdf-schema#" xmlns:dc="http://purl.org/dc/elements/1.1/"><rdf:Description about="https://iconscout.com/legal#licenses" dc:title="food,watermelon" dc:description="food,watermelon" dc:publisher="Iconscout" dc:date="2018-04-15" dc:format="image/svg+xml" dc:language="en"><dc:creator><rdf:Bag><rdf:li>BomSymbols .</rdf:li></rdf:Bag></dc:creator></rdf:Description></rdf:RDF></metadata></svg>