<?xml version="1.0" encoding="UTF-8"?><!DOCTYPE svg PUBLIC "-//W3C//DTD SVG 1.1//EN" "http://www.w3.org/Graphics/SVG/1.1/DTD/svg11.dtd"><svg xmlns="http://www.w3.org/2000/svg" xmlns:xlink="http://www.w3.org/1999/xlink" version="1.1" id="Layer_1" x="0px" y="0px" width="91px" height="91px" viewBox="0 0 91 91" xml:space="preserve"><g fill="#010101"><path d="M49.304 41.08c-5.286.409-9.342.28-9.381.277-1.178-.023-2.206.899-2.247 2.098a2.174 2.174 0 0 0 2.098 2.247c.068.003.76.027 1.911.027 1.762 0 4.605-.053 7.958-.313a2.173 2.173 0 1 0-.339-4.336z"/><path d="M88.303 55.054h-4.307c1.656-2.271 3.012-5.587 2.642-10.241-.517-6.516-5.409-9.337-9.783-10.31 1.67-2.917 1.975-6.288.852-10.12-2.07-5.988-8.178-7.36-11.577-7.654a9.351 9.351 0 0 0-.188-1.084c-1.074-4.47-5.275-7.07-5.381-7.133-20.841-13.821-38.396.77-38.57.918a2.172 2.172 0 0 0-.595 2.481 2.187 2.187 0 0 0 2.179 1.339c.685-.054 6.709-.36 7.667 4.868.485 2.65-2.695 3.64-3.039 3.738-1.512.405-14.809 4.177-15.93 11.741-.372 2.512-.087 4.63.578 6.418-3.699.562-7.808 2.571-8.567 7.766-.454 3.083.2 5.483 1.148 7.272H2.53a2.174 2.174 0 0 0 0 4.347h85.771a2.172 2.172 0 1 0 .002-4.346zM8.584 48.412c.582-3.979 5.143-4.268 6.981-4.22 1.913 1.884 4.236 2.972 5.943 3.396.177.044.352.065.526.065.969 0 1.848-.658 2.101-1.639a2.18 2.18 0 0 0-1.566-2.64c-.406-.105-2.575-.737-4.214-2.523a2.09 2.09 0 0 0-.233-.282c-1.16-1.395-1.982-3.416-1.55-6.334.553-3.736 8.833-7.125 12.764-8.182 2.563-.697 7.152-3.417 6.181-8.717-.753-4.111-3.354-6.353-6.142-7.477 5.799-2.896 16.523-5.855 28.845 2.314.591.369 5.695 3.737 2.61 8.736-2.847 4.607-10.104 4.983-10.171 4.987a2.173 2.173 0 0 0-2.086 2.257 2.166 2.166 0 0 0 2.258 2.085c.393-.015 9.628-.457 13.696-7.046.442-.714.782-1.431 1.05-2.149 2.357.177 6.722 1.002 7.987 4.659.779 2.669.593 4.901-.573 6.822-2.017 3.32-7.11 5.87-14.726 7.37a2.176 2.176 0 0 0-1.714 2.553 2.176 2.176 0 0 0 2.553 1.712c6.281-1.237 11.062-3.157 14.296-5.725 2.121.078 8.433.799 8.901 6.723.508 6.383-3.372 9.179-4.601 9.899H10.888c-.9-.764-2.856-2.888-2.304-6.644z"/><path d="M81.911 63.672a2.167 2.167 0 0 0-2.891 1.041l-6.604 14.038c-2.04 3.912-2.672 4.648-10.535 4.648H28.958c-7.863 0-8.497-.736-10.497-4.57l-6.642-14.116a2.168 2.168 0 0 0-2.892-1.041 2.171 2.171 0 0 0-1.041 2.891l6.681 14.196c3.031 5.812 5.452 6.988 14.391 6.988h32.924c8.942 0 11.361-1.177 14.431-7.066l6.64-14.118a2.173 2.173 0 0 0-1.042-2.891z"/></g><metadata><rdf:RDF xmlns:rdf="http://www.w3.org/1999/02/22-rdf-syntax-ns#" xmlns:rdfs="http://www.w3.org/2000/01/rdf-schema#" xmlns:dc="http://purl.org/dc/elements/1.1/"><rdf:Description about="https://iconscout.com/legal#licenses" dc:title="food,yogurt" dc:description="food,yogurt" dc:publisher="Iconscout" dc:date="2018-04-15" dc:format="image/svg+xml" dc:language="en"><dc:creator><rdf:Bag><rdf:li>BomSymbols .</rdf:li></rdf:Bag></dc:creator></rdf:Description></rdf:RDF></metadata></svg>